<svg width="24" height="25" viewBox="0 0 24 25" fill="none" xmlns="http://www.w3.org/2000/svg">
    <path d="M12 22.08C17.5228 22.08 22 17.6028 22 12.08C22 6.55715 17.5228 2.08 12 2.08C6.47715 2.08 2 6.55715 2 12.08C2 17.6028 6.47715 22.08 12 22.08Z"
          stroke="#8F9BB3" stroke-width="2" stroke-linecap="round" stroke-linejoin="round"/>
    <path d="M14.0056 7.915L10.1256 11.795L14.0056 15.675C14.0981 15.7676 14.1716 15.8775 14.2217 15.9985C14.2718 16.1194 14.2976 16.2491 14.2976 16.38C14.2976 16.5109 14.2718 16.6406 14.2217 16.7615C14.1716 16.8825 14.0981 16.9924 14.0056 17.085C13.913 17.1776 13.8031 17.251 13.6821 17.3011C13.5611 17.3512 13.4315 17.377 13.3006 17.377C13.1696 17.377 13.04 17.3512 12.919 17.3011C12.7981 17.251 12.6881 17.1776 12.5956 17.085L8.00557 12.495C7.91287 12.4025 7.83932 12.2926 7.78914 12.1716C7.73896 12.0507 7.71313 11.921 7.71313 11.79C7.71313 11.659 7.73896 11.5294 7.78914 11.4084C7.83932 11.2874 7.91287 11.1775 8.00557 11.085L12.5956 6.495C12.6881 6.4023 12.798 6.32875 12.9189 6.27857C13.0399 6.22839 13.1696 6.20256 13.3006 6.20256C13.4315 6.20256 13.5612 6.22839 13.6822 6.27857C13.8032 6.32875 13.9131 6.4023 14.0056 6.495C14.3856 6.885 14.3956 7.525 14.0056 7.915Z"
          fill="#8F9BB3"/>
</svg>
