<svg xmlns="http://www.w3.org/2000/svg" width="43" height="42" viewBox="0 0 43 42" fill="none">
    <path d="M16.1951 32.111L14.5281 38.778L12.3061 41H30.0841L27.8621 38.778L26.1951 32.111M1.19507 23.222H41.1951M5.63907 32.111H36.7511C37.3347 32.111 37.9125 31.9961 38.4517 31.7727C38.9909 31.5494 39.4808 31.222 39.8935 30.8094C40.3061 30.3967 40.6335 29.9068 40.8568 29.3676C41.0801 28.8285 41.1951 28.2506 41.1951 27.667V5.444C41.1951 4.86041 41.0801 4.28253 40.8568 3.74335C40.6335 3.20418 40.3061 2.71428 39.8935 2.30162C39.4808 1.88895 38.9909 1.56161 38.4517 1.33828C37.9125 1.11495 37.3347 1 36.7511 1H5.63907C4.46045 1 3.3301 1.46821 2.49669 2.30162C1.66327 3.13503 1.19507 4.26538 1.19507 5.444V27.667C1.19507 28.8456 1.66327 29.976 2.49669 30.8094C3.3301 31.6428 4.46045 32.111 5.63907 32.111Z"
          stroke="white" stroke-width="2" stroke-linecap="round" stroke-linejoin="round"/>
</svg>