<svg width="24" height="16" viewBox="0 0 24 16" fill="none" xmlns="http://www.w3.org/2000/svg">
<path d="M12 0.950195C7.85875 0.950195 4.5 4.30832 4.5 8.4502C4.5 11.7639 6.64875 14.5752 9.62937 15.5671C10.0037 15.6364 10.125 15.4039 10.125 15.2064V13.8102C8.03875 14.2639 7.60437 12.9252 7.60437 12.9252C7.26312 12.0583 6.77125 11.8277 6.77125 11.8277C6.09063 11.3621 6.82312 11.3721 6.82312 11.3721C7.57625 11.4246 7.9725 12.1452 7.9725 12.1452C8.64125 13.2914 9.72688 12.9602 10.155 12.7683C10.2219 12.2839 10.4163 11.9527 10.6313 11.7658C8.96563 11.5752 7.21438 10.9321 7.21438 8.05895C7.21438 7.23957 7.5075 6.57082 7.98688 6.04582C7.90937 5.85645 7.6525 5.09332 8.06 4.06082C8.06 4.06082 8.69 3.85957 10.1231 4.82957C10.7213 4.66332 11.3625 4.5802 12 4.57707C12.6375 4.5802 13.2794 4.66332 13.8787 4.82957C15.3106 3.85957 15.9394 4.06082 15.9394 4.06082C16.3475 5.09395 16.0906 5.85707 16.0131 6.04582C16.4944 6.57082 16.785 7.2402 16.785 8.05895C16.785 10.9396 15.0306 11.5739 13.3606 11.7596C13.6294 11.9921 13.875 12.4483 13.875 13.1483V15.2064C13.875 15.4058 13.995 15.6402 14.3756 15.5664C17.3537 14.5733 19.5 11.7627 19.5 8.4502C19.5 4.30832 16.1419 0.950195 12 0.950195Z" fill="#545454"/>
</svg>
