<svg width="16" height="16" viewBox="0 0 22 22" fill="none" xmlns="http://www.w3.org/2000/svg">
    <path d="M8 0.950195C3.85875 0.950195 0.5 4.30832 0.5 8.4502C0.5 11.7639 2.64875 14.5752 5.62937 15.5671C6.00375 15.6364 6.125 15.4039 6.125 15.2064V13.8102C4.03875 14.2639 3.60437 12.9252 3.60437 12.9252C3.26312 12.0583 2.77125 11.8277 2.77125 11.8277C2.09063 11.3621 2.82312 11.3721 2.82312 11.3721C3.57625 11.4246 3.9725 12.1452 3.9725 12.1452C4.64125 13.2914 5.72688 12.9602 6.155 12.7683C6.22188 12.2839 6.41625 11.9527 6.63125 11.7658C4.96563 11.5752 3.21438 10.9321 3.21438 8.05895C3.21438 7.23957 3.5075 6.57082 3.98688 6.04582C3.90937 5.85645 3.6525 5.09332 4.06 4.06082C4.06 4.06082 4.69 3.85957 6.12313 4.82957C6.72125 4.66332 7.3625 4.5802 8 4.57707C8.6375 4.5802 9.27938 4.66332 9.87875 4.82957C11.3106 3.85957 11.9394 4.06082 11.9394 4.06082C12.3475 5.09395 12.0906 5.85707 12.0131 6.04582C12.4944 6.57082 12.785 7.2402 12.785 8.05895C12.785 10.9396 11.0306 11.5739 9.36063 11.7596C9.62938 11.9921 9.875 12.4483 9.875 13.1483V15.2064C9.875 15.4058 9.995 15.6402 10.3756 15.5664C13.3537 14.5733 15.5 11.7627 15.5 8.4502C15.5 4.30832 12.1419 0.950195 8 0.950195Z"
          fill="#ffffff"/>
</svg>
