<svg xmlns="http://www.w3.org/2000/svg" width="41" height="46" viewBox="0 0 41 46" fill="none">
    <path d="M18.4786 19.4841C17.7911 19.8811 17.2368 20.4731 16.8858 21.1851C16.5348 21.8971 16.4028 22.6972 16.5066 23.4843C16.6103 24.2713 16.9451 25.0099 17.4686 25.6066C17.9921 26.2034 18.6809 26.6315 19.4477 26.8369C20.2146 27.0423 21.0251 27.0156 21.7768 26.7604C22.5286 26.5051 23.1877 26.0327 23.6709 25.4029C24.1542 24.7731 24.4398 24.0141 24.4916 23.222C24.5435 22.4298 24.3593 21.6401 23.9623 20.9527C23.6986 20.4962 23.3477 20.0961 22.9294 19.7752C22.5112 19.4544 22.0338 19.2191 21.5246 19.0827C21.0154 18.9463 20.4843 18.9116 19.9617 18.9805C19.439 19.0493 18.9351 19.2205 18.4786 19.4841ZM36.4742 23.8388C36.2076 23.5375 35.9297 23.2356 35.6404 22.933C35.845 22.7184 36.043 22.5038 36.2343 22.2892C39.8434 18.2345 41.367 14.1678 39.9554 11.7225C38.6017 9.37826 34.5757 8.67948 29.5359 9.66017C29.0394 9.75748 28.5455 9.86711 28.0543 9.98907C27.9603 9.66517 27.8603 9.34294 27.7543 9.02237C26.0398 3.86998 23.2774 0.52002 20.4551 0.52002C17.7478 0.52002 15.1314 3.66004 13.4628 8.51753C13.2988 8.99671 13.1469 9.47956 13.0069 9.96608C12.6783 9.88544 12.3487 9.81113 12.0182 9.74315C6.70045 8.65149 2.42048 9.37026 1.00783 11.8165C-0.342845 14.1628 1.06981 17.9966 4.44299 21.8674C4.77625 22.2506 5.12016 22.6251 5.47474 22.991C5.05785 23.4199 4.66294 23.8498 4.29503 24.2756C1.00283 28.0914 -0.328848 31.8633 1.01982 34.1995C2.41249 36.6118 6.63546 37.3985 11.7752 36.3899C12.1918 36.3072 12.606 36.2142 13.0179 36.1109C13.1685 36.6374 13.3352 37.1596 13.5178 37.6774C15.1794 42.436 17.7808 45.475 20.4791 45.475C23.2644 45.475 26.0578 42.21 27.7493 37.2516C27.8833 36.8597 28.0093 36.4518 28.1292 36.034C28.6625 36.1673 29.198 36.2849 29.7359 36.3868C34.6887 37.3236 38.6197 36.5868 39.9654 34.2495C41.355 31.8353 39.9224 27.7855 36.4712 23.8448L36.4742 23.8388ZM2.67142 12.7732C3.53821 11.2677 7.03937 10.6799 11.6303 11.6226C11.9235 11.6832 12.2234 11.7499 12.53 11.8225C12.0818 13.8054 11.7655 15.8159 11.5833 17.8406C9.92652 19.0059 8.34693 20.2772 6.85441 21.6464C6.52582 21.3065 6.2059 20.9583 5.89464 20.6018C2.99535 17.2878 1.85762 14.1868 2.67142 12.7732ZM11.4073 25.6472C10.2596 24.7785 9.19284 23.8877 8.22508 22.993C9.19284 22.1033 10.2596 21.2166 11.4043 20.3498C11.363 21.2329 11.3427 22.1163 11.3433 23C11.344 23.8837 11.3653 24.7661 11.4073 25.6472ZM11.4073 34.5034C9.45902 34.9365 7.44767 35.0073 5.47374 34.7124C4.93262 34.6702 4.40589 34.5175 3.92613 34.2637C3.44636 34.0099 3.02375 33.6604 2.68442 33.2368C1.86662 31.8193 2.93536 28.7912 5.75068 25.5272C6.10459 25.118 6.47117 24.7182 6.85041 24.3276C8.34306 25.7042 9.92513 26.9806 11.5863 28.1484C11.7708 30.2 12.0908 32.2371 12.544 34.2465C12.1681 34.3405 11.7899 34.4251 11.4093 34.5004L11.4073 34.5034ZM27.3664 16.4351C26.6126 15.9599 25.8495 15.5 25.077 15.0555C24.3165 14.6183 23.5474 14.1971 22.7696 13.7919C24.1022 13.2311 25.4129 12.7532 26.6776 12.3633C26.9759 13.7081 27.2061 15.0671 27.3674 16.4351H27.3664ZM15.2774 9.13734C16.707 4.97663 18.8235 2.43942 20.4551 2.43942C22.1927 2.43942 24.4541 5.17757 25.9268 9.62618C26.0228 9.91609 26.1134 10.2077 26.1987 10.5009C24.2594 11.1023 22.3621 11.8313 20.5191 12.6832C18.6837 11.821 16.7922 11.0835 14.8575 10.4759C14.9868 10.0274 15.1271 9.58186 15.2784 9.13933L15.2774 9.13734ZM14.3776 12.3363C15.697 12.7515 16.9947 13.233 18.2656 13.7789C16.6914 14.5913 15.1584 15.4764 13.6668 16.4341C13.8447 15.0035 14.0847 13.6299 14.3786 12.3393L14.3776 12.3363ZM13.6668 29.554C14.4112 30.0305 15.1667 30.4897 15.9332 30.9316C16.715 31.3814 17.5072 31.8126 18.3096 32.2251C17.0304 32.7906 15.723 33.2901 14.3926 33.7217C14.0927 32.4101 13.8497 31.0155 13.6678 29.557L13.6668 29.554ZM25.9298 36.6258C25.3319 38.5294 24.3887 40.3068 23.1475 41.8691C22.8406 42.3167 22.4452 42.6965 21.9857 42.9852C21.5263 43.2739 21.0125 43.4653 20.4761 43.5476C18.8395 43.5476 16.75 41.1094 15.3294 37.0406C15.1621 36.5595 15.0081 36.0739 14.8675 35.5841C16.8114 34.957 18.7107 34.1988 20.5521 33.3148C22.4104 34.1724 24.3231 34.9071 26.2777 35.5141C26.1711 35.8873 26.0554 36.2576 25.9308 36.6248L25.9298 36.6258ZM26.7436 33.6497C25.4639 33.2498 24.1352 32.768 22.7825 32.1992C23.545 31.7993 24.3115 31.3757 25.082 30.9285C25.8758 30.4707 26.6489 30.0012 27.4014 29.52C27.2513 30.9073 27.03 32.286 26.7386 33.6507L26.7436 33.6497ZM27.7433 22.991C27.7433 24.3559 27.7007 25.7198 27.6154 27.0827C26.5076 27.8325 25.3389 28.5643 24.1222 29.2661C22.9055 29.9678 21.7108 30.6077 20.5331 31.1895C19.2941 30.5957 18.079 29.9559 16.888 29.2701C15.6969 28.5843 14.5412 27.8582 13.4208 27.0917C13.3175 25.7295 13.2655 24.3633 13.2649 22.993C13.2649 21.6268 13.3158 20.2605 13.4178 18.8943C14.5246 18.1385 15.6853 17.4068 16.885 16.714C18.0847 16.0212 19.3054 15.3784 20.5141 14.7976C21.7378 15.3921 22.9395 16.0292 24.1192 16.709C25.2989 17.3888 26.4593 18.1069 27.6004 18.8633C27.6984 20.2335 27.7473 21.6058 27.7473 22.98L27.7433 22.991ZM29.8938 11.5446C34.2118 10.7048 37.468 11.2697 38.2838 12.6822C39.1526 14.1868 37.9069 17.5107 34.7916 21.0126C34.6197 21.2059 34.4411 21.3999 34.2558 21.5945C32.7375 20.222 31.1275 18.9544 29.4369 17.8006C29.2662 15.7981 28.9616 13.8093 28.5252 11.8475C28.9917 11.7329 29.4479 11.6329 29.8938 11.5476V11.5446ZM29.6019 20.2749C30.742 21.1072 31.8382 21.9981 32.8861 22.944C31.8427 23.9055 30.7498 24.8118 29.6119 25.6592C29.6465 24.7695 29.6635 23.8791 29.6629 22.988C29.6629 22.083 29.6422 21.1783 29.6009 20.2739L29.6019 20.2749ZM38.2998 33.2848C37.483 34.7034 34.3267 35.2952 30.0908 34.4934C29.6056 34.4021 29.1077 34.2932 28.5971 34.1665C29.0229 32.1794 29.3138 30.1658 29.4679 28.1394C31.1541 26.9653 32.7575 25.6767 34.2668 24.2826C34.5334 24.5572 34.785 24.8305 35.0216 25.1024C36.3724 26.5712 37.4413 28.276 38.1748 30.1318C38.4094 30.621 38.5412 31.1531 38.562 31.6953C38.5828 32.2374 38.4922 32.7781 38.2958 33.2838L38.2998 33.2848Z"
          fill="white"/>
</svg>