<svg width="749" height="707" viewBox="0 0 749 707" fill="none" xmlns="http://www.w3.org/2000/svg">
<path d="M327.987 398.228H301.145M314.566 411.648V384.807M535.41 307.19L552.036 307.638L551.589 291.011L568.216 291.458L567.768 274.832L584.395 275.279L583.948 258.652L600.574 259.1L600.127 242.473M179.167 96.1126C179.167 99.3932 176.483 102.003 173.202 101.928C169.996 101.928 167.386 99.3187 167.386 96.1126C167.386 92.832 169.996 90.2224 173.277 90.2224C176.557 90.2224 179.167 92.832 179.167 96.1126ZM200.118 96.1126C200.118 99.3932 197.508 102.003 194.228 102.003C190.947 102.003 188.338 99.3932 188.338 96.1126C188.338 92.832 190.947 90.2224 194.228 90.2224C197.434 90.2224 200.043 92.9066 200.118 96.1126ZM220.994 96.1126C220.994 99.3932 218.31 102.003 215.03 101.928C211.824 101.928 209.214 99.3187 209.214 96.1126C209.214 92.832 211.824 90.2224 215.104 90.2224C218.385 90.2224 220.994 92.832 220.994 96.1126ZM241.945 96.1126C241.945 99.3932 239.336 102.003 236.055 102.003C232.775 102.003 230.165 99.3932 230.165 96.1126C230.165 92.832 232.775 90.2224 236.055 90.2224C239.336 90.2224 241.945 92.9066 241.945 96.1126ZM262.897 96.1126C262.897 99.3932 260.212 102.003 256.932 101.928C253.726 101.928 251.116 99.3187 251.116 96.1126C251.116 92.832 253.726 90.2224 257.006 90.2224C260.287 90.2224 262.897 92.9066 262.897 96.1126ZM511.104 615.792C511.104 619.073 508.494 621.682 505.213 621.682C501.933 621.682 499.323 619.073 499.323 615.792C499.323 612.512 501.933 609.902 505.213 609.902C508.494 609.976 511.104 612.586 511.104 615.792ZM532.055 615.792C532.055 619.073 529.445 621.682 526.164 621.682C522.884 621.682 520.274 619.073 520.274 615.792C520.274 612.512 522.884 609.902 526.164 609.902C529.445 609.902 532.055 612.586 532.055 615.792ZM552.931 615.792C552.931 619.073 550.322 621.682 547.041 621.682C543.76 621.682 541.151 619.073 541.151 615.792C541.151 612.512 543.76 609.902 547.041 609.902C550.322 609.976 552.931 612.586 552.931 615.792ZM573.882 615.792C573.882 619.073 571.273 621.682 567.992 621.682C564.712 621.682 562.102 619.073 562.102 615.792C562.102 612.512 564.712 609.902 567.992 609.902C571.273 609.902 573.882 612.586 573.882 615.792ZM594.833 615.792C594.833 619.073 592.224 621.682 588.943 621.682C585.663 621.682 583.053 619.073 583.053 615.792C583.053 612.512 585.663 609.902 588.943 609.902C592.149 609.976 594.833 612.586 594.833 615.792Z" stroke="#167DF4" stroke-width="1.49119" stroke-miterlimit="50"/>
<path d="M699.962 237.775C699.962 249.481 690.492 258.95 678.787 258.95C667.081 258.95 657.612 249.481 657.612 237.775C657.612 226.069 667.081 216.6 678.787 216.6C690.492 216.6 699.962 226.069 699.962 237.775ZM693.475 201.092H664.024V84.3318H693.475V201.092ZM296.224 387.118C296.224 398.824 286.755 408.293 275.05 408.293C263.344 408.293 253.875 398.824 253.875 387.118C253.875 375.412 263.344 365.943 275.05 365.943C286.755 365.943 296.224 375.412 296.224 387.118ZM289.738 350.435H260.287V233.674H289.738V350.435ZM60.4688 480.914C22.6674 480.914 -0.744135 439.757 18.5666 407.249C37.4301 375.487 83.433 375.487 102.296 407.249C121.682 439.757 98.2702 480.914 60.4688 480.914ZM427.15 218.39C389.349 218.39 365.937 177.233 385.248 144.725C404.111 112.963 450.114 112.963 468.978 144.725C488.363 177.233 464.951 218.39 427.15 218.39ZM699.514 516.106C661.713 516.106 638.301 474.949 657.612 442.441C676.475 410.679 722.478 410.679 741.342 442.441C760.727 474.949 737.316 516.106 699.514 516.106ZM121.905 245.082C121.905 256.788 112.436 266.257 100.731 266.257C89.0249 266.257 79.5559 256.788 79.5559 245.082C79.5559 233.376 89.0249 223.907 100.731 223.907C112.436 223.907 121.905 233.376 121.905 245.082ZM115.344 208.399H85.8934V91.6386H115.344V208.399Z" fill="#EFEFEF"/>
<path d="M448.996 144.501L449.071 148.378L448.996 144.501Z" fill="#3361C2"/>
<path d="M553.006 128.844V251.122H449.071V103.792H527.954L553.006 128.844Z" fill="#167DF4"/>
<path d="M448.996 179.619L429.386 180.439C429.386 180.439 437.588 140.177 448.921 135.778L448.996 158.071C452.947 154.79 457.123 151.808 458.614 152.628C461.447 154.194 448.996 179.619 448.996 179.619Z" fill="#C9784B"/>
<path d="M448.921 135.778C448.921 135.778 438.856 136.822 429.386 179.917" stroke="white" stroke-width="1.11839" stroke-miterlimit="50" stroke-linecap="square"/>
<path d="M529.223 536.237L528.775 561.885C528.701 567.552 534.069 571.802 539.586 570.385L597.892 555.324C602.589 554.131 602.589 547.421 597.892 546.153L570.901 539.07L529.223 536.237ZM593.94 290.414L611.536 291.682C617.203 292.129 621.751 286.985 620.632 281.393L610.343 229.499C609.374 224.802 602.887 224.28 601.247 228.828L588.87 263.871L593.94 290.414ZM346.254 354.088L355.424 386L406.498 371.908L419.993 413.288L340.289 446.393C325.153 452.656 308.079 443.634 304.724 427.678C296.224 386.671 290.334 316.212 345.732 304.208C360.345 301.002 397.998 240.758 397.998 240.758L407.914 182.079L451.308 177.68L446.163 249.705C445.641 257.384 442.957 264.766 438.409 271.029L402.024 321.282L434.681 376.605L350.876 424.323L346.254 354.088Z" fill="#3D155F"/>
<path d="M427.15 402.925C427.97 402.105 437.514 347.751 443.553 312.782C446.61 295.186 459.509 281.02 476.732 276.397L585.887 247.021L603.483 301.599L505.587 334.852L499.622 405.162L427.15 402.925Z" fill="#CCF381"/>
<path d="M352.814 410.157L356.766 419.178C365.117 438.191 384.577 449.822 405.23 448.108L474.495 442.441L517.516 552.938C517.516 552.938 582.159 536.908 580.295 534.447C578.953 532.658 549.279 451.612 531.533 402.999C523.928 382.122 502.754 369.298 480.758 372.206L382.489 385.179L352.814 410.157Z" fill="#CCF381"/>
<path d="M359.525 438.415L419.993 413.289L407.765 375.636L341.556 391.666L359.525 438.415Z" fill="#3D155F"/>
<mask id="mask0_8_683" style="mask-type:luminance" maskUnits="userSpaceOnUse" x="299" y="177" width="153" height="272">
<path d="M407.989 182.08L398.072 240.683C398.072 240.683 360.42 300.927 345.806 304.133C290.408 316.137 296.224 386.596 304.798 427.604C308.154 443.634 325.228 452.656 340.363 446.318L359.6 438.34L419.993 413.214L412.239 389.355L434.756 376.531L402.098 321.208L438.483 270.954C443.032 264.691 445.716 257.31 446.238 249.63L451.382 177.606L407.989 182.08Z" fill="white"/>
</mask>
<g mask="url(#mask0_8_683)">
<path d="M343.868 381.601C343.346 388.46 337.306 393.53 330.447 393.008C323.588 392.486 318.517 386.447 319.039 379.588C319.561 372.728 325.601 367.658 332.46 368.18C339.32 368.702 344.39 374.741 343.868 381.601Z" fill="#167DF4"/>
</g>
<mask id="mask1_8_683" style="mask-type:luminance" maskUnits="userSpaceOnUse" x="299" y="177" width="153" height="272">
<path d="M407.989 182.08L398.072 240.683C398.072 240.683 360.42 300.927 345.806 304.133C290.408 316.137 296.224 386.596 304.798 427.604C308.154 443.634 325.228 452.656 340.363 446.318L359.6 438.34L419.993 413.214L412.239 389.355L434.756 376.531L402.098 321.208L438.483 270.954C443.032 264.691 445.716 257.31 446.238 249.63L451.382 177.606L407.989 182.08Z" fill="white"/>
</mask>
<g mask="url(#mask1_8_683)">
<path d="M393.897 385.627C393.375 392.486 387.336 397.556 380.477 397.034C373.617 396.512 368.547 390.473 369.069 383.614C369.591 376.754 375.63 371.684 382.49 372.206C389.349 372.803 394.494 378.767 393.897 385.627Z" fill="#167DF4"/>
</g>
<mask id="mask2_8_683" style="mask-type:luminance" maskUnits="userSpaceOnUse" x="299" y="177" width="153" height="272">
<path d="M407.989 182.08L398.072 240.683C398.072 240.683 360.42 300.927 345.806 304.133C290.408 316.137 296.224 386.596 304.798 427.604C308.154 443.634 325.228 452.656 340.363 446.318L359.6 438.34L419.993 413.214L412.239 389.355L434.756 376.531L402.098 321.208L438.483 270.954C443.032 264.691 445.716 257.31 446.238 249.63L451.382 177.606L407.989 182.08Z" fill="white"/>
</mask>
<g mask="url(#mask2_8_683)">
<path d="M444 389.727C443.478 396.587 437.439 401.657 430.579 401.135C423.72 400.613 418.65 394.574 419.172 387.714C419.694 380.855 425.733 375.785 432.592 376.307C439.452 376.829 444.522 382.868 444 389.727Z" fill="#167DF4"/>
</g>
<mask id="mask3_8_683" style="mask-type:luminance" maskUnits="userSpaceOnUse" x="299" y="177" width="153" height="272">
<path d="M407.989 182.08L398.072 240.683C398.072 240.683 360.42 300.927 345.806 304.133C290.408 316.137 296.224 386.596 304.798 427.604C308.154 443.634 325.228 452.656 340.363 446.318L359.6 438.34L419.993 413.214L412.239 389.355L434.756 376.531L402.098 321.208L438.483 270.954C443.032 264.691 445.716 257.31 446.238 249.63L451.382 177.606L407.989 182.08Z" fill="white"/>
</mask>
<g mask="url(#mask3_8_683)">
<path d="M371.678 349.018C371.156 355.877 365.117 360.947 358.258 360.425C351.398 359.903 346.328 353.864 346.85 347.005C347.372 340.145 353.411 335.075 360.271 335.597C367.13 336.119 372.275 342.158 371.678 349.018Z" fill="#167DF4"/>
</g>
<mask id="mask4_8_683" style="mask-type:luminance" maskUnits="userSpaceOnUse" x="299" y="177" width="153" height="272">
<path d="M407.989 182.08L398.072 240.683C398.072 240.683 360.42 300.927 345.806 304.133C290.408 316.137 296.224 386.596 304.798 427.604C308.154 443.634 325.228 452.656 340.363 446.318L359.6 438.34L419.993 413.214L412.239 389.355L434.756 376.531L402.098 321.208L438.483 270.954C443.032 264.691 445.716 257.31 446.238 249.63L451.382 177.606L407.989 182.08Z" fill="white"/>
</mask>
<g mask="url(#mask4_8_683)">
<path d="M421.782 353.045C421.26 359.904 415.22 364.974 408.361 364.452C401.502 363.93 396.432 357.891 396.953 351.031C397.475 344.172 403.515 339.102 410.374 339.624C417.234 340.22 422.304 346.185 421.782 353.045Z" fill="#167DF4"/>
</g>
<mask id="mask5_8_683" style="mask-type:luminance" maskUnits="userSpaceOnUse" x="299" y="177" width="153" height="272">
<path d="M407.989 182.08L398.072 240.683C398.072 240.683 360.42 300.927 345.806 304.133C290.408 316.137 296.224 386.596 304.798 427.604C308.154 443.634 325.228 452.656 340.363 446.318L359.6 438.34L419.993 413.214L412.239 389.355L434.756 376.531L402.098 321.208L438.483 270.954C443.032 264.691 445.716 257.31 446.238 249.63L451.382 177.606L407.989 182.08Z" fill="white"/>
</mask>
<g mask="url(#mask5_8_683)">
<path d="M471.811 357.145C471.289 364.005 465.249 369.075 458.39 368.553C451.53 368.031 446.46 361.992 446.982 355.132C447.504 348.273 453.543 343.203 460.403 343.724C467.262 344.321 472.407 350.286 471.811 357.145Z" fill="#167DF4"/>
</g>
<mask id="mask6_8_683" style="mask-type:luminance" maskUnits="userSpaceOnUse" x="299" y="177" width="153" height="272">
<path d="M407.989 182.08L398.072 240.683C398.072 240.683 360.42 300.927 345.806 304.133C290.408 316.137 296.224 386.596 304.798 427.604C308.154 443.634 325.228 452.656 340.363 446.318L359.6 438.34L419.993 413.214L412.239 389.355L434.756 376.531L402.098 321.208L438.483 270.954C443.032 264.691 445.716 257.31 446.238 249.63L451.382 177.606L407.989 182.08Z" fill="white"/>
</mask>
<g mask="url(#mask6_8_683)">
<path d="M321.649 344.917C321.127 351.777 315.087 356.847 308.228 356.325C301.368 355.803 296.298 349.763 296.82 342.904C297.342 336.045 303.382 330.974 310.241 331.496C317.101 332.093 322.171 338.058 321.649 344.917Z" fill="#167DF4"/>
</g>
<mask id="mask7_8_683" style="mask-type:luminance" maskUnits="userSpaceOnUse" x="299" y="177" width="153" height="272">
<path d="M407.989 182.08L398.072 240.683C398.072 240.683 360.42 300.927 345.806 304.133C290.408 316.137 296.224 386.596 304.798 427.604C308.154 443.634 325.228 452.656 340.363 446.318L359.6 438.34L419.993 413.214L412.239 389.355L434.756 376.531L402.098 321.208L438.483 270.954C443.032 264.691 445.716 257.31 446.238 249.63L451.382 177.606L407.989 182.08Z" fill="white"/>
</mask>
<g mask="url(#mask7_8_683)">
<path d="M365.938 418.209C365.416 425.069 359.376 430.139 352.517 429.617C345.657 429.095 340.587 423.055 341.109 416.196C341.631 409.337 347.67 404.266 354.53 404.788C361.389 405.385 366.534 411.35 365.938 418.209Z" fill="#167DF4"/>
</g>
<mask id="mask8_8_683" style="mask-type:luminance" maskUnits="userSpaceOnUse" x="299" y="177" width="153" height="272">
<path d="M407.989 182.08L398.072 240.683C398.072 240.683 360.42 300.927 345.806 304.133C290.408 316.137 296.224 386.596 304.798 427.604C308.154 443.634 325.228 452.656 340.363 446.318L359.6 438.34L419.993 413.214L412.239 389.355L434.756 376.531L402.098 321.208L438.483 270.954C443.032 264.691 445.716 257.31 446.238 249.63L451.382 177.606L407.989 182.08Z" fill="white"/>
</mask>
<g mask="url(#mask8_8_683)">
<path d="M416.04 422.31C415.518 429.169 409.479 434.239 402.62 433.717C395.76 433.195 390.69 427.156 391.212 420.297C391.734 413.437 397.773 408.367 404.633 408.889C411.492 409.411 416.562 415.45 416.04 422.31Z" fill="#167DF4"/>
</g>
<mask id="mask9_8_683" style="mask-type:luminance" maskUnits="userSpaceOnUse" x="299" y="177" width="153" height="272">
<path d="M407.989 182.08L398.072 240.683C398.072 240.683 360.42 300.927 345.806 304.133C290.408 316.137 296.224 386.596 304.798 427.604C308.154 443.634 325.228 452.656 340.363 446.318L359.6 438.34L419.993 413.214L412.239 389.355L434.756 376.531L402.098 321.208L438.483 270.954C443.032 264.691 445.716 257.31 446.238 249.63L451.382 177.606L407.989 182.08Z" fill="white"/>
</mask>
<g mask="url(#mask9_8_683)">
<path d="M466.07 426.337C465.548 433.196 459.509 438.266 452.649 437.744C445.79 437.222 440.72 431.183 441.242 424.323C441.763 417.464 447.803 412.394 454.662 412.916C461.522 413.512 466.666 419.477 466.07 426.337Z" fill="#167DF4"/>
</g>
<mask id="mask10_8_683" style="mask-type:luminance" maskUnits="userSpaceOnUse" x="299" y="177" width="153" height="272">
<path d="M407.989 182.08L398.072 240.683C398.072 240.683 360.42 300.927 345.806 304.133C290.408 316.137 296.224 386.596 304.798 427.604C308.154 443.634 325.228 452.656 340.363 446.318L359.6 438.34L419.993 413.214L412.239 389.355L434.756 376.531L402.098 321.208L438.483 270.954C443.032 264.691 445.716 257.31 446.238 249.63L451.382 177.606L407.989 182.08Z" fill="white"/>
</mask>
<g mask="url(#mask10_8_683)">
<path d="M315.833 414.108C315.312 420.968 309.272 426.038 302.413 425.516C295.553 424.994 290.483 418.955 291.005 412.095C291.527 405.236 297.566 400.166 304.426 400.688C311.36 401.284 316.43 407.249 315.833 414.108Z" fill="#167DF4"/>
</g>
<mask id="mask11_8_683" style="mask-type:luminance" maskUnits="userSpaceOnUse" x="299" y="177" width="153" height="272">
<path d="M407.989 182.08L398.072 240.683C398.072 240.683 360.42 300.927 345.806 304.133C290.408 316.137 296.224 386.596 304.798 427.604C308.154 443.634 325.228 452.656 340.363 446.318L359.6 438.34L419.993 413.214L412.239 389.355L434.756 376.531L402.098 321.208L438.483 270.954C443.032 264.691 445.716 257.31 446.238 249.63L451.382 177.606L407.989 182.08Z" fill="white"/>
</mask>
<g mask="url(#mask11_8_683)">
<path d="M355.275 243.144C354.753 250.003 348.714 255.073 341.854 254.551C334.995 254.029 329.925 247.99 330.447 241.131C330.969 234.271 337.008 229.201 343.868 229.723C350.727 230.319 355.797 236.284 355.275 243.144Z" fill="#167DF4"/>
</g>
<mask id="mask12_8_683" style="mask-type:luminance" maskUnits="userSpaceOnUse" x="299" y="177" width="153" height="272">
<path d="M407.989 182.08L398.072 240.683C398.072 240.683 360.42 300.927 345.806 304.133C290.408 316.137 296.224 386.596 304.798 427.604C308.154 443.634 325.228 452.656 340.363 446.318L359.6 438.34L419.993 413.214L412.239 389.355L434.756 376.531L402.098 321.208L438.483 270.954C443.032 264.691 445.716 257.31 446.238 249.63L451.382 177.606L407.989 182.08Z" fill="white"/>
</mask>
<g mask="url(#mask12_8_683)">
<path d="M405.379 247.244C404.857 254.104 398.818 259.174 391.958 258.652C385.099 258.13 380.029 252.091 380.551 245.231C381.073 238.372 387.112 233.302 393.972 233.824C400.831 234.345 405.901 240.385 405.379 247.244Z" fill="#167DF4"/>
</g>
<mask id="mask13_8_683" style="mask-type:luminance" maskUnits="userSpaceOnUse" x="299" y="177" width="153" height="272">
<path d="M407.989 182.08L398.072 240.683C398.072 240.683 360.42 300.927 345.806 304.133C290.408 316.137 296.224 386.596 304.798 427.604C308.154 443.634 325.228 452.656 340.363 446.318L359.6 438.34L419.993 413.214L412.239 389.355L434.756 376.531L402.098 321.208L438.483 270.954C443.032 264.691 445.716 257.31 446.238 249.63L451.382 177.606L407.989 182.08Z" fill="white"/>
</mask>
<g mask="url(#mask13_8_683)">
<path d="M455.408 251.27C454.886 258.13 448.847 263.2 441.987 262.678C435.128 262.156 430.058 256.117 430.58 249.257C431.102 242.398 437.141 237.328 444 237.85C450.86 238.446 456.004 244.411 455.408 251.27Z" fill="#167DF4"/>
</g>
<mask id="mask14_8_683" style="mask-type:luminance" maskUnits="userSpaceOnUse" x="299" y="177" width="153" height="272">
<path d="M407.989 182.08L398.072 240.683C398.072 240.683 360.42 300.927 345.806 304.133C290.408 316.137 296.224 386.596 304.798 427.604C308.154 443.634 325.228 452.656 340.363 446.318L359.6 438.34L419.993 413.214L412.239 389.355L434.756 376.531L402.098 321.208L438.483 270.954C443.032 264.691 445.716 257.31 446.238 249.63L451.382 177.606L407.989 182.08Z" fill="white"/>
</mask>
<g mask="url(#mask14_8_683)">
<path d="M305.171 239.043C304.649 245.902 298.61 250.972 291.75 250.45C284.891 249.929 279.821 243.889 280.343 237.03C280.865 230.17 286.904 225.1 293.764 225.622C300.623 226.144 305.768 232.258 305.171 239.043Z" fill="#167DF4"/>
</g>
<mask id="mask15_8_683" style="mask-type:luminance" maskUnits="userSpaceOnUse" x="299" y="177" width="153" height="272">
<path d="M407.989 182.08L398.072 240.683C398.072 240.683 360.42 300.927 345.806 304.133C290.408 316.137 296.224 386.596 304.798 427.604C308.154 443.634 325.228 452.656 340.363 446.318L359.6 438.34L419.993 413.214L412.239 389.355L434.756 376.531L402.098 321.208L438.483 270.954C443.032 264.691 445.716 257.31 446.238 249.63L451.382 177.606L407.989 182.08Z" fill="white"/>
</mask>
<g mask="url(#mask15_8_683)">
<path d="M377.345 279.753C376.823 286.612 370.783 291.682 363.924 291.16C357.065 290.638 351.995 284.599 352.516 277.739C353.038 270.88 359.078 265.81 365.937 266.332C372.797 266.854 377.941 272.968 377.345 279.753Z" fill="#167DF4"/>
</g>
<mask id="mask16_8_683" style="mask-type:luminance" maskUnits="userSpaceOnUse" x="299" y="177" width="153" height="272">
<path d="M407.989 182.08L398.072 240.683C398.072 240.683 360.42 300.927 345.806 304.133C290.408 316.137 296.224 386.596 304.798 427.604C308.154 443.634 325.228 452.656 340.363 446.318L359.6 438.34L419.993 413.214L412.239 389.355L434.756 376.531L402.098 321.208L438.483 270.954C443.032 264.691 445.716 257.31 446.238 249.63L451.382 177.606L407.989 182.08Z" fill="white"/>
</mask>
<g mask="url(#mask16_8_683)">
<path d="M427.448 283.853C426.926 290.713 420.887 295.783 414.028 295.261C407.168 294.739 402.098 288.7 402.62 281.84C403.142 274.981 409.181 269.911 416.041 270.433C422.9 271.029 427.97 276.994 427.448 283.853Z" fill="#167DF4"/>
</g>
<mask id="mask17_8_683" style="mask-type:luminance" maskUnits="userSpaceOnUse" x="299" y="177" width="153" height="272">
<path d="M407.989 182.08L398.072 240.683C398.072 240.683 360.42 300.927 345.806 304.133C290.408 316.137 296.224 386.596 304.798 427.604C308.154 443.634 325.228 452.656 340.363 446.318L359.6 438.34L419.993 413.214L412.239 389.355L434.756 376.531L402.098 321.208L438.483 270.954C443.032 264.691 445.716 257.31 446.238 249.63L451.382 177.606L407.989 182.08Z" fill="white"/>
</mask>
<g mask="url(#mask17_8_683)">
<path d="M327.315 275.726C326.794 282.586 320.754 287.656 313.895 287.134C307.035 286.612 301.965 280.573 302.487 273.713C303.009 266.854 309.048 261.784 315.908 262.306C322.767 262.828 327.837 268.867 327.315 275.726Z" fill="#167DF4"/>
</g>
<mask id="mask18_8_683" style="mask-type:luminance" maskUnits="userSpaceOnUse" x="299" y="177" width="153" height="272">
<path d="M407.989 182.08L398.072 240.683C398.072 240.683 360.42 300.927 345.806 304.133C290.408 316.137 296.224 386.596 304.798 427.604C308.154 443.634 325.228 452.656 340.363 446.318L359.6 438.34L419.993 413.214L412.239 389.355L434.756 376.531L402.098 321.208L438.483 270.954C443.032 264.691 445.716 257.31 446.238 249.63L451.382 177.606L407.989 182.08Z" fill="white"/>
</mask>
<g mask="url(#mask18_8_683)">
<path d="M383.16 210.561C382.638 217.421 376.599 222.491 369.739 221.969C362.88 221.447 357.81 215.408 358.332 208.548C358.854 201.689 364.893 196.619 371.753 197.141C378.612 197.737 383.757 203.702 383.16 210.561Z" fill="#167DF4"/>
</g>
<mask id="mask19_8_683" style="mask-type:luminance" maskUnits="userSpaceOnUse" x="299" y="177" width="153" height="272">
<path d="M407.989 182.08L398.072 240.683C398.072 240.683 360.42 300.927 345.806 304.133C290.408 316.137 296.224 386.596 304.798 427.604C308.154 443.634 325.228 452.656 340.363 446.318L359.6 438.34L419.993 413.214L412.239 389.355L434.756 376.531L402.098 321.208L438.483 270.954C443.032 264.691 445.716 257.31 446.238 249.63L451.382 177.606L407.989 182.08Z" fill="white"/>
</mask>
<g mask="url(#mask19_8_683)">
<path d="M433.264 214.662C432.742 221.521 426.702 226.591 419.843 226.07C412.983 225.548 407.913 219.508 408.435 212.649C408.957 205.789 414.997 200.719 421.856 201.241C428.716 201.763 433.786 207.803 433.264 214.662Z" fill="#167DF4"/>
</g>
<mask id="mask20_8_683" style="mask-type:luminance" maskUnits="userSpaceOnUse" x="299" y="177" width="153" height="272">
<path d="M407.989 182.08L398.072 240.683C398.072 240.683 360.42 300.927 345.806 304.133C290.408 316.137 296.224 386.596 304.798 427.604C308.154 443.634 325.228 452.656 340.363 446.318L359.6 438.34L419.993 413.214L412.239 389.355L434.756 376.531L402.098 321.208L438.483 270.954C443.032 264.691 445.716 257.31 446.238 249.63L451.382 177.606L407.989 182.08Z" fill="white"/>
</mask>
<g mask="url(#mask20_8_683)">
<path d="M333.131 206.535C332.609 213.395 326.57 218.465 319.711 217.943C312.851 217.421 307.781 211.382 308.303 204.522C308.825 197.663 314.864 192.593 321.724 193.115C328.583 193.636 333.653 199.676 333.131 206.535Z" fill="#167DF4"/>
</g>
<mask id="mask21_8_683" style="mask-type:luminance" maskUnits="userSpaceOnUse" x="299" y="177" width="153" height="272">
<path d="M407.989 182.08L398.072 240.683C398.072 240.683 360.42 300.927 345.806 304.133C290.408 316.137 296.224 386.596 304.798 427.604C308.154 443.634 325.228 452.656 340.363 446.318L359.6 438.34L419.993 413.214L412.239 389.355L434.756 376.531L402.098 321.208L438.483 270.954C443.032 264.691 445.716 257.31 446.238 249.63L451.382 177.606L407.989 182.08Z" fill="white"/>
</mask>
<g mask="url(#mask21_8_683)">
<path d="M399.638 316.436C399.116 323.295 393.077 328.365 386.217 327.843C379.358 327.321 374.288 321.282 374.81 314.423C375.332 307.563 381.371 302.493 388.23 303.015C395.09 303.611 400.234 309.576 399.638 316.436Z" fill="#167DF4"/>
</g>
<mask id="mask22_8_683" style="mask-type:luminance" maskUnits="userSpaceOnUse" x="299" y="177" width="153" height="272">
<path d="M407.989 182.08L398.072 240.683C398.072 240.683 360.42 300.927 345.806 304.133C290.408 316.137 296.224 386.596 304.798 427.604C308.154 443.634 325.228 452.656 340.363 446.318L359.6 438.34L419.993 413.214L412.239 389.355L434.756 376.531L402.098 321.208L438.483 270.954C443.032 264.691 445.716 257.31 446.238 249.63L451.382 177.606L407.989 182.08Z" fill="white"/>
</mask>
<g mask="url(#mask22_8_683)">
<path d="M449.741 320.536C449.22 327.396 443.18 332.466 436.321 331.944C429.461 331.422 424.391 325.383 424.913 318.523C425.435 311.664 431.474 306.594 438.334 307.116C445.193 307.637 450.263 313.677 449.741 320.536Z" fill="#167DF4"/>
</g>
<mask id="mask23_8_683" style="mask-type:luminance" maskUnits="userSpaceOnUse" x="299" y="177" width="153" height="272">
<path d="M407.989 182.08L398.072 240.683C398.072 240.683 360.42 300.927 345.806 304.133C290.408 316.137 296.224 386.596 304.798 427.604C308.154 443.634 325.228 452.656 340.363 446.318L359.6 438.34L419.993 413.214L412.239 389.355L434.756 376.531L402.098 321.208L438.483 270.954C443.032 264.691 445.716 257.31 446.238 249.63L451.382 177.606L407.989 182.08Z" fill="white"/>
</mask>
<g mask="url(#mask23_8_683)">
<path d="M299.505 308.309C298.983 315.168 292.944 320.238 286.084 319.716C279.225 319.194 274.155 313.155 274.677 306.296C275.198 299.436 281.238 294.366 288.097 294.888C294.957 295.41 300.101 301.449 299.505 308.309Z" fill="#167DF4"/>
</g>
<path d="M346.03 322.475C345.508 322.475 344.986 322.475 344.464 322.4C337.307 321.58 332.237 315.093 333.057 307.936L338.723 259.77C339.543 252.613 346.03 247.542 353.188 248.363C360.345 249.183 365.416 255.669 364.595 262.827L358.929 311.067C358.109 317.628 352.517 322.475 346.03 322.475Z" fill="#3D155F"/>
<path d="M482.548 443.037L473.079 442.068L476.211 430.139M342.824 389.802L351.324 387.64" stroke="white" stroke-width="1.11839" stroke-miterlimit="50" stroke-linecap="square"/>
<path d="M413.953 395.319C413.953 395.245 431.699 379.065 431.699 379.065L452.724 374.666C452.724 374.666 435.426 358.04 408.883 379.364L413.953 395.319Z" fill="#C9784B"/>
<path d="M506.258 325.085L507.6 336.045L493.509 335.821M343.644 354.088L351.324 387.789L406.572 371.834L414.326 395.693L432.295 378.097L481.355 371.61C481.355 371.61 495.522 369.373 502.53 373.847" stroke="white" stroke-width="1.11839" stroke-miterlimit="50" stroke-linecap="square"/>
<path d="M299.282 316.436V429.766H70.46V341.488L95.5118 316.436H299.282ZM745.219 322.475V411.35H567.023L541.971 386.373V322.55L745.219 322.475ZM247.985 553.759H476.434V448.406H222.933V528.632L247.985 553.759ZM672.449 235.762H627.863V160.756H672.449V235.762Z" fill="#167DF4"/>
<path d="M294.982 512.304C293.133 512.304 291.486 511.987 290.042 511.354C288.598 510.721 287.458 509.859 286.622 508.77C285.786 507.655 285.317 506.414 285.216 505.046H291.638C291.714 505.781 292.056 506.376 292.664 506.832C293.272 507.288 294.019 507.516 294.906 507.516C295.717 507.516 296.337 507.364 296.768 507.06C297.224 506.731 297.452 506.313 297.452 505.806C297.452 505.198 297.135 504.755 296.502 504.476C295.869 504.172 294.843 503.843 293.424 503.488C291.904 503.133 290.637 502.766 289.624 502.386C288.611 501.981 287.737 501.36 287.002 500.524C286.267 499.663 285.9 498.51 285.9 497.066C285.9 495.85 286.229 494.748 286.888 493.76C287.572 492.747 288.56 491.949 289.852 491.366C291.169 490.783 292.727 490.492 294.526 490.492C297.186 490.492 299.276 491.151 300.796 492.468C302.341 493.785 303.228 495.533 303.456 497.712H297.452C297.351 496.977 297.021 496.395 296.464 495.964C295.932 495.533 295.223 495.318 294.336 495.318C293.576 495.318 292.993 495.47 292.588 495.774C292.183 496.053 291.98 496.445 291.98 496.952C291.98 497.56 292.297 498.016 292.93 498.32C293.589 498.624 294.602 498.928 295.97 499.232C297.541 499.637 298.82 500.043 299.808 500.448C300.796 500.828 301.657 501.461 302.392 502.348C303.152 503.209 303.545 504.375 303.57 505.844C303.57 507.085 303.215 508.2 302.506 509.188C301.822 510.151 300.821 510.911 299.504 511.468C298.212 512.025 296.705 512.304 294.982 512.304ZM318.11 506.49V512H314.804C312.448 512 310.611 511.43 309.294 510.29C307.977 509.125 307.318 507.237 307.318 504.628V496.192H304.734V490.796H307.318V485.628H313.816V490.796H318.072V496.192H313.816V504.704C313.816 505.337 313.968 505.793 314.272 506.072C314.576 506.351 315.083 506.49 315.792 506.49H318.11ZM340.464 501.056C340.464 501.664 340.426 502.297 340.35 502.956H325.644C325.746 504.273 326.164 505.287 326.898 505.996C327.658 506.68 328.583 507.022 329.672 507.022C331.294 507.022 332.421 506.338 333.054 504.97H339.97C339.616 506.363 338.97 507.617 338.032 508.732C337.12 509.847 335.968 510.721 334.574 511.354C333.181 511.987 331.623 512.304 329.9 512.304C327.823 512.304 325.974 511.861 324.352 510.974C322.731 510.087 321.464 508.821 320.552 507.174C319.64 505.527 319.184 503.602 319.184 501.398C319.184 499.194 319.628 497.269 320.514 495.622C321.426 493.975 322.693 492.709 324.314 491.822C325.936 490.935 327.798 490.492 329.9 490.492C331.952 490.492 333.776 490.923 335.372 491.784C336.968 492.645 338.21 493.874 339.096 495.47C340.008 497.066 340.464 498.928 340.464 501.056ZM333.814 499.346C333.814 498.231 333.434 497.345 332.674 496.686C331.914 496.027 330.964 495.698 329.824 495.698C328.735 495.698 327.81 496.015 327.05 496.648C326.316 497.281 325.86 498.181 325.682 499.346H333.814ZM349.137 493.798C349.77 492.81 350.644 492.012 351.759 491.404C352.874 490.796 354.178 490.492 355.673 490.492C357.421 490.492 359.004 490.935 360.423 491.822C361.842 492.709 362.956 493.975 363.767 495.622C364.603 497.269 365.021 499.181 365.021 501.36C365.021 503.539 364.603 505.464 363.767 507.136C362.956 508.783 361.842 510.062 360.423 510.974C359.004 511.861 357.421 512.304 355.673 512.304C354.204 512.304 352.899 512 351.759 511.392C350.644 510.784 349.77 509.999 349.137 509.036V522.108H342.639V490.796H349.137V493.798ZM358.409 501.36C358.409 499.739 357.953 498.472 357.041 497.56C356.154 496.623 355.052 496.154 353.735 496.154C352.443 496.154 351.341 496.623 350.429 497.56C349.542 498.497 349.099 499.777 349.099 501.398C349.099 503.019 349.542 504.299 350.429 505.236C351.341 506.173 352.443 506.642 353.735 506.642C355.027 506.642 356.129 506.173 357.041 505.236C357.953 504.273 358.409 502.981 358.409 501.36ZM380.211 490.568C382.643 490.568 384.593 491.379 386.063 493C387.532 494.596 388.267 496.8 388.267 499.612V512H381.807V500.486C381.807 499.067 381.439 497.965 380.705 497.18C379.97 496.395 378.982 496.002 377.741 496.002C376.499 496.002 375.511 496.395 374.777 497.18C374.042 497.965 373.675 499.067 373.675 500.486V512H367.177V483.88H373.675V493.646C374.333 492.709 375.233 491.961 376.373 491.404C377.513 490.847 378.792 490.568 380.211 490.568ZM411.517 501.056C411.517 501.664 411.479 502.297 411.403 502.956H396.697C396.798 504.273 397.216 505.287 397.951 505.996C398.711 506.68 399.636 507.022 400.725 507.022C402.346 507.022 403.474 506.338 404.107 504.97H411.023C410.668 506.363 410.022 507.617 409.085 508.732C408.173 509.847 407.02 510.721 405.627 511.354C404.234 511.987 402.676 512.304 400.953 512.304C398.876 512.304 397.026 511.861 395.405 510.974C393.784 510.087 392.517 508.821 391.605 507.174C390.693 505.527 390.237 503.602 390.237 501.398C390.237 499.194 390.68 497.269 391.567 495.622C392.479 493.975 393.746 492.709 395.367 491.822C396.988 490.935 398.85 490.492 400.953 490.492C403.005 490.492 404.829 490.923 406.425 491.784C408.021 492.645 409.262 493.874 410.149 495.47C411.061 497.066 411.517 498.928 411.517 501.056ZM404.867 499.346C404.867 498.231 404.487 497.345 403.727 496.686C402.967 496.027 402.017 495.698 400.877 495.698C399.788 495.698 398.863 496.015 398.103 496.648C397.368 497.281 396.912 498.181 396.735 499.346H404.867ZM426.612 490.568C429.094 490.568 431.07 491.379 432.54 493C434.034 494.596 434.782 496.8 434.782 499.612V512H428.322V500.486C428.322 499.067 427.954 497.965 427.22 497.18C426.485 496.395 425.497 496.002 424.256 496.002C423.014 496.002 422.026 496.395 421.292 497.18C420.557 497.965 420.19 499.067 420.19 500.486V512H413.692V490.796H420.19V493.608C420.848 492.671 421.735 491.936 422.85 491.404C423.964 490.847 425.218 490.568 426.612 490.568Z" fill="#CCF381"/>
<path d="M122.12 382.21C120.72 382.21 119.46 381.97 118.34 381.49C117.22 380.99 116.34 380.29 115.7 379.39C115.06 378.49 114.74 377.44 114.74 376.24H118.4C118.48 377.14 118.83 377.88 119.45 378.46C120.09 379.04 120.98 379.33 122.12 379.33C123.3 379.33 124.22 379.05 124.88 378.49C125.54 377.91 125.87 377.17 125.87 376.27C125.87 375.57 125.66 375 125.24 374.56C124.84 374.12 124.33 373.78 123.71 373.54C123.11 373.3 122.27 373.04 121.19 372.76C119.83 372.4 118.72 372.04 117.86 371.68C117.02 371.3 116.3 370.72 115.7 369.94C115.1 369.16 114.8 368.12 114.8 366.82C114.8 365.62 115.1 364.57 115.7 363.67C116.3 362.77 117.14 362.08 118.22 361.6C119.3 361.12 120.55 360.88 121.97 360.88C123.99 360.88 125.64 361.39 126.92 362.41C128.22 363.41 128.94 364.79 129.08 366.55H125.3C125.24 365.79 124.88 365.14 124.22 364.6C123.56 364.06 122.69 363.79 121.61 363.79C120.63 363.79 119.83 364.04 119.21 364.54C118.59 365.04 118.28 365.76 118.28 366.7C118.28 367.34 118.47 367.87 118.85 368.29C119.25 368.69 119.75 369.01 120.35 369.25C120.95 369.49 121.77 369.75 122.81 370.03C124.19 370.41 125.31 370.79 126.17 371.17C127.05 371.55 127.79 372.14 128.39 372.94C129.01 373.72 129.32 374.77 129.32 376.09C129.32 377.15 129.03 378.15 128.45 379.09C127.89 380.03 127.06 380.79 125.96 381.37C124.88 381.93 123.6 382.21 122.12 382.21ZM141.612 382.21C139.672 382.21 137.882 381.76 136.242 380.86C134.622 379.94 133.332 378.67 132.372 377.05C131.432 375.41 130.962 373.57 130.962 371.53C130.962 369.49 131.432 367.66 132.372 366.04C133.332 364.42 134.622 363.16 136.242 362.26C137.882 361.34 139.672 360.88 141.612 360.88C143.572 360.88 145.362 361.34 146.982 362.26C148.622 363.16 149.912 364.42 150.852 366.04C151.792 367.66 152.262 369.49 152.262 371.53C152.262 373.57 151.792 375.41 150.852 377.05C149.912 378.67 148.622 379.94 146.982 380.86C145.362 381.76 143.572 382.21 141.612 382.21ZM141.612 379.24C142.992 379.24 144.222 378.93 145.302 378.31C146.382 377.67 147.222 376.77 147.822 375.61C148.442 374.43 148.752 373.07 148.752 371.53C148.752 369.99 148.442 368.64 147.822 367.48C147.222 366.32 146.382 365.43 145.302 364.81C144.222 364.19 142.992 363.88 141.612 363.88C140.232 363.88 139.002 364.19 137.922 364.81C136.842 365.43 135.992 366.32 135.372 367.48C134.772 368.64 134.472 369.99 134.472 371.53C134.472 373.07 134.772 374.43 135.372 375.61C135.992 376.77 136.842 377.67 137.922 378.31C139.002 378.93 140.232 379.24 141.612 379.24ZM166.644 361.15V363.94H157.794V370.09H164.694V372.88H157.794V382H154.374V361.15H166.644ZM182.03 361.15V363.94H176.48V382H173.06V363.94H167.48V361.15H182.03ZM211.391 361.15L205.211 382H201.341L196.961 366.22L192.311 382L188.471 382.03L182.561 361.15H186.191L190.511 378.13L195.191 361.15H199.031L203.381 378.04L207.731 361.15H211.391ZM225.528 377.74H216.798L215.298 382H211.728L219.198 361.12H223.158L230.628 382H227.028L225.528 377.74ZM224.568 374.95L221.178 365.26L217.758 374.95H224.568ZM243.453 382L238.653 373.66H236.043V382H232.623V361.15H239.823C241.423 361.15 242.773 361.43 243.873 361.99C244.993 362.55 245.823 363.3 246.363 364.24C246.923 365.18 247.203 366.23 247.203 367.39C247.203 368.75 246.803 369.99 246.003 371.11C245.223 372.21 244.013 372.96 242.373 373.36L247.533 382H243.453ZM236.043 370.93H239.823C241.103 370.93 242.063 370.61 242.703 369.97C243.363 369.33 243.693 368.47 243.693 367.39C243.693 366.31 243.373 365.47 242.733 364.87C242.093 364.25 241.123 363.94 239.823 363.94H236.043V370.93ZM253.744 363.91V370.03H260.944V372.82H253.744V379.21H261.844V382H250.324V361.12H261.844V363.91H253.744Z" fill="#CCF381"/>
<path d="M249.327 160.606C237.173 160.606 229.643 147.409 235.906 136.971C241.945 126.756 256.708 126.756 262.822 136.971C269.01 147.409 261.48 160.606 249.327 160.606Z" fill="#CCF381"/>
<path d="M377.568 197.066C377.568 202.583 373.095 207.131 367.503 207.131C361.911 207.131 357.437 202.658 357.437 197.066C357.437 191.548 361.911 187 367.503 187C373.095 187.075 377.568 191.548 377.568 197.066ZM374.511 179.768H360.569V124.519H374.511V179.768Z" fill="#167DF4"/>
<path d="M188.337 407.025C188.337 408.964 186.846 410.529 184.908 410.529C182.969 410.529 181.403 409.038 181.403 407.1V407.025C181.403 405.087 183.044 403.595 184.908 403.595C186.772 403.67 188.263 405.161 188.337 407.025ZM663.502 191.846C663.502 193.561 662.085 194.978 660.37 194.978C658.656 194.978 657.239 193.561 657.239 191.846C657.239 190.132 658.656 188.715 660.37 188.715C662.085 188.715 663.502 190.132 663.502 191.846ZM662.533 186.404H658.134V169.031H662.533V186.404Z" fill="#CCF381"/>
<path d="M720.615 341.189H731.649M726.132 335.672V346.707M233.893 465.331H245.897M239.858 459.291V471.295M80.9729 415.45H92.3059M86.6394 409.784V421.117M278.853 330.9H292.049M285.414 324.339V337.536M534.217 238.148H543.164M538.691 233.674V242.622M633.082 225.771H640.911M637.034 221.894V229.723" stroke="#FFEB5C" stroke-width="1.49119" stroke-miterlimit="50"/>
<path d="M694.221 561.065H630.249V508.501H694.221V561.065Z" fill="#167DF4"/>
<path d="M694.221 561.065H630.249V508.501H694.221V561.065Z" fill="#167DF4"/>
<path d="M656.27 534.82H668.2M662.235 528.855V540.785" stroke="#FFEB5C" stroke-width="1.49119" stroke-miterlimit="50"/>
<path d="M250.818 244.187C250.818 246.35 249.029 248.139 246.866 248.139C244.704 248.139 242.915 246.35 242.915 244.187C242.915 242.025 244.704 240.236 246.866 240.236C249.029 240.236 250.818 242.025 250.818 244.187ZM249.551 237.403H244.108V215.78H249.551V237.403Z" fill="#167DF4"/>
<path d="M302.86 183.571L313.97 194.68M313.97 183.571L302.86 194.68" stroke="#FFEB5C" stroke-width="1.49119" stroke-miterlimit="50"/>
<path d="M359.525 305.848L350.951 304.804L358.929 311.067L359.525 305.848Z" fill="#24272D"/>
<path d="M430.132 368.851C430.132 368.851 443.926 365.198 452.724 374.592" stroke="white" stroke-width="1.11839" stroke-miterlimit="50" stroke-linecap="square"/>
<path d="M353.933 306.072H356.841C371.082 305.922 381.669 291.98 378.836 277.142L375.555 259.845C373.393 248.288 363.7 240.086 352.665 240.31C340.065 240.608 330.149 251.718 330.447 265.064L330.82 282.436C331.192 295.633 341.482 306.221 353.933 306.072Z" fill="#C9784B"/>
<path d="M363.029 268.718L365.34 278.112C365.937 280.498 364.52 282.958 362.06 283.555L361.538 283.704" stroke="#252B2D" stroke-width="1.11839" stroke-miterlimit="50" stroke-linecap="round" stroke-linejoin="round"/>
<path d="M340.214 283.033L343.793 256.863L344.613 250.674C346.328 252.091 348.267 253.209 350.354 254.029C357.885 256.937 378.985 252.762 380.103 237.477C380.998 225.026 368.92 233.6 362.209 233.675C351.696 233.749 343.644 228.53 330.372 237.999C314.491 249.332 325.377 270.954 325.377 270.954C325.377 270.954 332.535 267.077 340.214 283.033Z" fill="#24272D"/>
<path d="M350.652 272.819C351.323 274.012 352.814 274.459 354.082 273.788C355.275 273.117 355.722 271.626 355.051 270.358C354.38 269.165 352.814 268.792 351.621 269.463C350.429 270.209 349.981 271.626 350.652 272.819ZM366.011 271.178C366.682 272.371 368.174 272.819 369.441 272.148C370.634 271.476 371.082 269.985 370.41 268.718C369.739 267.525 368.174 267.152 366.981 267.823C365.788 268.569 365.34 270.06 366.011 271.178Z" fill="#24272D"/>
<path d="M350.578 288.625C350.578 288.625 351.323 293.77 357.139 294.068" stroke="#252B2D" stroke-width="1.11839" stroke-miterlimit="50" stroke-linecap="round" stroke-linejoin="round"/>
<path d="M341.705 291.682C345.508 288.625 346.179 282.958 343.122 279.156L337.754 272.445C334.697 268.643 329.03 267.972 325.228 271.029C321.425 274.086 320.754 279.752 323.811 283.555L329.179 290.265C332.236 294.142 337.903 294.739 341.705 291.682Z" fill="#C9784B"/>
<path d="M328.285 278.41L333.653 282.809" stroke="#252B2D" stroke-width="1.11839" stroke-miterlimit="50" stroke-linecap="round" stroke-linejoin="round"/>
<path d="M95.5118 316.436V341.488H70.46L95.5118 316.436ZM247.985 553.758L222.933 528.706H247.985V553.758ZM567.098 386.372V411.424L541.971 386.372H567.098Z" fill="#3D155F"/>
<path d="M527.954 103.718L553.006 128.77H527.954V103.718Z" fill="#3D155F"/>
<path d="M579.174 375.806C577.907 375.799 576.818 375.505 575.906 374.926C575.001 374.341 574.307 373.539 573.824 372.519C573.341 371.499 573.104 370.333 573.112 369.02C573.119 367.691 573.376 366.519 573.882 365.505C574.388 364.485 575.098 363.691 576.01 363.123C576.922 362.554 577.995 362.273 579.228 362.281C580.222 362.287 581.108 362.476 581.884 362.85C582.66 363.219 583.285 363.734 583.758 364.395C584.237 365.057 584.52 365.829 584.606 366.71L582.125 366.696C581.993 366.081 581.683 365.551 581.197 365.105C580.717 364.659 580.071 364.433 579.258 364.429C578.548 364.424 577.925 364.608 577.388 364.98C576.858 365.346 576.443 365.872 576.143 366.558C575.844 367.238 575.691 368.044 575.686 368.976C575.68 369.93 575.82 370.755 576.106 371.45C576.392 372.145 576.798 372.684 577.324 373.068C577.856 373.452 578.482 373.646 579.204 373.65C579.687 373.653 580.125 373.567 580.518 373.394C580.917 373.214 581.251 372.958 581.52 372.624C581.794 372.29 581.987 371.888 582.098 371.417L584.578 371.432C584.482 372.278 584.202 373.032 583.738 373.694C583.274 374.356 582.654 374.875 581.879 375.251C581.11 375.627 580.208 375.812 579.174 375.806ZM587.607 380.501C587.226 380.499 586.88 380.465 586.568 380.401C586.256 380.342 586.023 380.278 585.87 380.209L586.496 378.125C586.961 378.253 587.376 378.309 587.739 378.294C588.103 378.279 588.425 378.145 588.705 377.891C588.99 377.637 589.243 377.221 589.462 376.642L589.783 375.775L585.071 362.486L587.798 362.502L591.054 372.68L591.19 372.681L594.565 362.541L597.301 362.558L591.819 377.364C591.565 378.044 591.243 378.619 590.854 379.088C590.465 379.563 590.003 379.918 589.467 380.154C588.932 380.389 588.312 380.505 587.607 380.501ZM598.57 375.656L598.673 358.202L601.221 358.217L601.183 364.703L601.336 364.703C601.485 364.432 601.7 364.118 601.981 363.761C602.261 363.405 602.65 363.095 603.146 362.831C603.641 362.561 604.296 362.428 605.108 362.433C606.165 362.439 607.107 362.712 607.933 363.251C608.759 363.79 609.405 364.563 609.871 365.572C610.342 366.58 610.574 367.792 610.566 369.207C610.557 370.622 610.314 371.833 609.837 372.842C609.359 373.845 608.707 374.616 607.88 375.157C607.053 375.692 606.111 375.956 605.054 375.95C604.259 375.945 603.609 375.808 603.105 375.538C602.606 375.268 602.216 374.953 601.934 374.594C601.652 374.234 601.435 373.914 601.284 373.635L601.071 373.634L601.059 375.671L598.57 375.656ZM601.106 369.126C601.1 370.046 601.229 370.854 601.492 371.548C601.755 372.243 602.138 372.788 602.641 373.183C603.145 373.572 603.763 373.769 604.496 373.773C605.257 373.778 605.895 373.58 606.409 373.18C606.922 372.773 607.312 372.222 607.577 371.524C607.849 370.827 607.987 370.041 607.992 369.166C607.997 368.302 607.871 367.526 607.613 366.837C607.362 366.148 606.979 365.603 606.464 365.202C605.955 364.802 605.317 364.599 604.55 364.595C603.811 364.59 603.185 364.777 602.672 365.155C602.164 365.532 601.777 366.061 601.512 366.741C601.246 367.422 601.111 368.216 601.106 369.126ZM617.776 376.033C616.486 376.026 615.377 375.744 614.448 375.187C613.525 374.625 612.814 373.839 612.314 372.831C611.82 371.816 611.577 370.63 611.585 369.272C611.593 367.932 611.85 366.751 612.356 365.731C612.868 364.712 613.577 363.918 614.484 363.349C615.396 362.781 616.46 362.5 617.676 362.507C618.415 362.511 619.13 362.638 619.822 362.886C620.514 363.135 621.133 363.522 621.682 364.048C622.23 364.574 622.66 365.255 622.973 366.092C623.287 366.924 623.44 367.933 623.433 369.121L623.428 370.024L613.022 369.963L613.033 368.054L620.942 368.1C620.946 367.43 620.813 366.835 620.543 366.317C620.274 365.792 619.892 365.378 619.4 365.074C618.913 364.77 618.34 364.616 617.681 364.612C616.965 364.608 616.339 364.78 615.803 365.13C615.272 365.473 614.861 365.925 614.568 366.486C614.28 367.041 614.135 367.645 614.131 368.299L614.122 369.79C614.117 370.665 614.266 371.41 614.569 372.026C614.878 372.641 615.31 373.113 615.865 373.44C616.42 373.761 617.069 373.924 617.814 373.928C618.297 373.931 618.737 373.866 619.136 373.732C619.534 373.592 619.879 373.384 620.171 373.107C620.462 372.83 620.686 372.488 620.842 372.08L623.251 372.529C623.054 373.238 622.703 373.858 622.2 374.389C621.703 374.914 621.078 375.323 620.326 375.614C619.58 375.899 618.73 376.039 617.776 376.033ZM624.968 375.812L625.045 362.721L627.508 362.735L627.496 364.815L627.632 364.816C627.875 364.113 628.298 363.561 628.903 363.161C629.513 362.756 630.202 362.555 630.969 362.56C631.128 362.561 631.316 362.567 631.531 362.58C631.753 362.593 631.926 362.608 632.051 362.626L632.037 365.063C631.935 365.034 631.753 365.002 631.492 364.966C631.231 364.925 630.97 364.903 630.708 364.902C630.106 364.898 629.568 365.023 629.095 365.276C628.628 365.523 628.256 365.87 627.981 366.318C627.706 366.759 627.566 367.264 627.563 367.832L627.516 375.827L624.968 375.812ZM642.793 366.021L640.481 366.417C640.386 366.121 640.234 365.839 640.026 365.57C639.823 365.302 639.546 365.082 639.194 364.909C638.843 364.737 638.403 364.649 637.875 364.646C637.153 364.642 636.55 364.8 636.065 365.121C635.58 365.436 635.336 365.847 635.333 366.353C635.331 366.79 635.491 367.143 635.813 367.412C636.135 367.681 636.657 367.903 637.377 368.078L639.454 368.567C640.657 368.853 641.552 369.287 642.14 369.87C642.727 370.453 643.018 371.207 643.013 372.134C643.008 372.918 642.777 373.615 642.318 374.226C641.866 374.831 641.235 375.305 640.427 375.647C639.623 375.989 638.693 376.157 637.637 376.15C636.171 376.142 634.977 375.822 634.054 375.192C633.132 374.556 632.569 373.657 632.365 372.497L634.831 372.137C634.98 372.78 635.293 373.267 635.768 373.6C636.243 373.926 636.865 374.092 637.632 374.096C638.467 374.101 639.135 373.932 639.638 373.588C640.14 373.239 640.392 372.811 640.395 372.306C640.397 371.897 640.246 371.552 639.941 371.272C639.641 370.992 639.18 370.779 638.555 370.633L636.342 370.134C635.123 369.848 634.222 369.4 633.64 368.789C633.064 368.177 632.779 367.406 632.784 366.474C632.789 365.701 633.009 365.026 633.444 364.449C633.879 363.872 634.479 363.424 635.242 363.105C636.005 362.78 636.878 362.62 637.861 362.626C639.276 362.634 640.388 362.948 641.197 363.566C642.005 364.179 642.538 364.997 642.793 366.021ZM650.179 376.224C648.889 376.217 647.78 375.934 646.852 375.378C645.929 374.816 645.218 374.03 644.718 373.021C644.224 372.007 643.981 370.821 643.989 369.463C643.997 368.122 644.254 366.942 644.76 365.922C645.271 364.902 645.981 364.108 646.887 363.54C647.8 362.971 648.864 362.691 650.08 362.698C650.819 362.702 651.534 362.828 652.225 363.077C652.917 363.325 653.537 363.712 654.085 364.238C654.633 364.764 655.064 365.446 655.377 366.283C655.69 367.114 655.843 368.124 655.837 369.311L655.831 370.215L645.425 370.153L645.436 368.244L653.345 368.291C653.349 367.621 653.216 367.026 652.947 366.507C652.677 365.983 652.296 365.569 651.803 365.265C651.317 364.961 650.744 364.807 650.085 364.803C649.369 364.799 648.743 364.971 648.206 365.32C647.676 365.664 647.264 366.116 646.971 366.677C646.684 367.232 646.538 367.836 646.534 368.489L646.526 369.981C646.52 370.856 646.669 371.601 646.973 372.217C647.282 372.832 647.713 373.303 648.268 373.63C648.823 373.952 649.473 374.115 650.217 374.119C650.7 374.122 651.141 374.056 651.539 373.922C651.938 373.783 652.283 373.575 652.574 373.298C652.866 373.021 653.089 372.679 653.245 372.271L655.655 372.719C655.457 373.428 655.107 374.049 654.604 374.58C654.106 375.105 653.482 375.513 652.73 375.804C651.984 376.09 651.134 376.23 650.179 376.224ZM662.884 376.299C661.617 376.291 660.528 375.998 659.616 375.419C658.711 374.834 658.016 374.032 657.534 373.012C657.051 371.992 656.814 370.826 656.821 369.513C656.829 368.184 657.086 367.012 657.592 365.998C658.098 364.978 658.807 364.184 659.72 363.615C660.632 363.047 661.705 362.766 662.938 362.773C663.932 362.779 664.817 362.969 665.594 363.343C666.37 363.711 666.995 364.226 667.468 364.888C667.947 365.55 668.23 366.322 668.315 367.203L665.835 367.188C665.702 366.574 665.393 366.044 664.907 365.598C664.427 365.152 663.78 364.926 662.968 364.921C662.258 364.917 661.634 365.101 661.098 365.473C660.567 365.839 660.152 366.365 659.853 367.051C659.553 367.731 659.401 368.537 659.396 369.469C659.39 370.423 659.53 371.248 659.816 371.943C660.101 372.638 660.507 373.177 661.033 373.561C661.565 373.945 662.192 374.139 662.914 374.143C663.396 374.146 663.834 374.06 664.228 373.886C664.626 373.707 664.96 373.45 665.229 373.117C665.504 372.783 665.697 372.381 665.807 371.91L668.287 371.924C668.192 372.77 667.912 373.525 667.447 374.187C666.983 374.849 666.364 375.368 665.589 375.744C664.82 376.12 663.918 376.305 662.884 376.299ZM678.059 370.695L678.104 363.033L680.661 363.048L680.584 376.139L678.079 376.124L678.092 373.857L677.955 373.856C677.65 374.553 677.164 375.133 676.496 375.595C675.835 376.051 675.012 376.277 674.029 376.271C673.188 376.266 672.445 376.077 671.8 375.704C671.16 375.325 670.657 374.768 670.292 374.033C669.933 373.298 669.757 372.39 669.763 371.311L669.812 362.984L672.36 362.999L672.313 371.019C672.308 371.911 672.551 372.623 673.042 373.154C673.533 373.685 674.174 373.953 674.963 373.958C675.441 373.961 675.916 373.844 676.389 373.608C676.867 373.373 677.264 373.014 677.58 372.533C677.901 372.052 678.061 371.439 678.059 370.695ZM682.755 376.152L682.832 363.061L685.295 363.076L685.283 365.155L685.419 365.156C685.662 364.453 686.086 363.901 686.69 363.501C687.3 363.096 687.989 362.895 688.756 362.9C688.915 362.901 689.103 362.908 689.319 362.92C689.54 362.933 689.713 362.948 689.838 362.966L689.824 365.403C689.722 365.374 689.54 365.342 689.279 365.306C689.018 365.265 688.757 365.244 688.495 365.242C687.893 365.239 687.355 365.363 686.882 365.616C686.415 365.863 686.043 366.211 685.768 366.658C685.493 367.099 685.353 367.604 685.35 368.173L685.303 376.167L682.755 376.152ZM690.712 376.199L690.789 363.108L693.338 363.123L693.261 376.214L690.712 376.199ZM692.088 361.096C691.645 361.093 691.265 360.943 690.949 360.646C690.638 360.343 690.484 359.984 690.486 359.569C690.489 359.149 690.647 358.792 690.961 358.498C691.281 358.199 691.663 358.05 692.106 358.053C692.549 358.056 692.926 358.208 693.237 358.511C693.553 358.809 693.71 359.168 693.708 359.588C693.705 360.003 693.544 360.36 693.224 360.659C692.91 360.953 692.531 361.098 692.088 361.096ZM701.623 363.172L701.611 365.217L694.461 365.175L694.473 363.13L701.623 363.172ZM696.409 360.005L698.957 360.02L698.884 372.403C698.881 372.897 698.953 373.27 699.099 373.521C699.245 373.766 699.435 373.934 699.667 374.027C699.905 374.113 700.164 374.158 700.442 374.159C700.647 374.16 700.826 374.147 700.979 374.12C701.133 374.092 701.252 374.07 701.338 374.054L701.785 376.161C701.637 376.217 701.427 376.273 701.154 376.328C700.881 376.389 700.54 376.421 700.13 376.424C699.46 376.432 698.836 376.309 698.258 376.055C697.679 375.802 697.213 375.413 696.858 374.888C696.503 374.363 696.328 373.706 696.333 372.916L696.409 360.005ZM704.694 381.19C704.313 381.188 703.966 381.154 703.654 381.09C703.342 381.031 703.11 380.968 702.957 380.899L703.583 378.814C704.048 378.942 704.462 378.998 704.826 378.983C705.19 378.968 705.511 378.834 705.791 378.58C706.077 378.326 706.329 377.91 706.549 377.332L706.869 376.464L702.158 363.175L704.885 363.191L708.14 373.369L708.277 373.37L711.652 363.231L714.387 363.247L708.905 378.053C708.651 378.733 708.33 379.308 707.941 379.777C707.551 380.252 707.089 380.608 706.554 380.843C706.018 381.078 705.398 381.194 704.694 381.19Z" fill="#CCF381"/>
<path d="M509 205.828L497 209.359L497 206.945L505.812 204.594L505.812 204.477L497 202.117L497 199.703L505.773 197.359L505.773 197.242L497 194.906L497 192.492L509 196.016L509 198.398L500.336 200.836L500.336 201.016L509 203.453L509 205.828ZM509.242 186.722C509.242 187.904 508.99 188.923 508.484 189.777C507.974 190.626 507.258 191.282 506.336 191.745C505.409 192.204 504.323 192.433 503.078 192.433C501.849 192.433 500.766 192.204 499.828 191.745C498.891 191.282 498.159 190.636 497.633 189.808C497.107 188.975 496.844 188.001 496.844 186.886C496.844 186.209 496.956 185.553 497.18 184.917C497.404 184.282 497.755 183.712 498.234 183.206C498.714 182.701 499.336 182.303 500.102 182.011C500.862 181.719 501.786 181.574 502.875 181.574L503.703 181.574L503.703 191.113L501.953 191.113L501.953 183.863C501.339 183.863 500.794 183.988 500.32 184.238C499.841 184.488 499.464 184.839 499.187 185.292C498.911 185.74 498.773 186.266 498.773 186.87C498.773 187.527 498.935 188.1 499.258 188.589C499.576 189.074 499.992 189.449 500.508 189.714C501.018 189.975 501.573 190.105 502.172 190.105L503.539 190.105C504.341 190.105 505.023 189.964 505.586 189.683C506.148 189.397 506.578 188.998 506.875 188.488C507.167 187.977 507.312 187.381 507.312 186.699C507.312 186.256 507.25 185.852 507.125 185.488C506.995 185.123 506.802 184.808 506.547 184.542C506.292 184.277 505.977 184.074 505.602 183.933L506 181.722C506.651 181.899 507.221 182.217 507.711 182.675C508.195 183.128 508.573 183.699 508.844 184.386C509.109 185.068 509.242 185.847 509.242 186.722ZM509 180.048L493 180.048L493 177.712L498.945 177.712L498.945 177.571C498.695 177.436 498.406 177.24 498.078 176.985C497.75 176.73 497.464 176.376 497.219 175.923C496.969 175.47 496.844 174.871 496.844 174.126C496.844 173.157 497.089 172.292 497.578 171.532C498.068 170.772 498.773 170.175 499.695 169.743C500.617 169.305 501.727 169.087 503.023 169.087C504.32 169.087 505.432 169.303 506.359 169.735C507.281 170.167 507.992 170.761 508.492 171.516C508.987 172.272 509.234 173.134 509.234 174.102C509.234 174.831 509.112 175.428 508.867 175.891C508.622 176.35 508.336 176.709 508.008 176.97C507.68 177.23 507.388 177.43 507.133 177.571L507.133 177.766L509 177.766L509 180.048ZM503 177.759C503.844 177.759 504.583 177.636 505.219 177.391C505.854 177.147 506.352 176.792 506.711 176.329C507.065 175.865 507.242 175.298 507.242 174.626C507.242 173.928 507.057 173.345 506.687 172.876C506.312 172.407 505.805 172.053 505.164 171.813C504.523 171.568 503.802 171.446 503 171.446C502.208 171.446 501.497 171.566 500.867 171.805C500.237 172.04 499.74 172.394 499.375 172.868C499.01 173.337 498.828 173.923 498.828 174.626C498.828 175.303 499.003 175.876 499.352 176.345C499.701 176.808 500.187 177.16 500.812 177.399C501.437 177.639 502.167 177.759 503 177.759ZM509.219 157.609C509.219 158.682 509.034 159.64 508.664 160.484C508.294 161.322 507.781 161.987 507.125 162.476C506.464 162.961 505.698 163.221 504.828 163.257L504.828 160.804C505.302 160.773 505.714 160.614 506.062 160.328C506.406 160.036 506.672 159.656 506.859 159.187C507.047 158.718 507.141 158.197 507.141 157.625C507.141 156.994 507.031 156.437 506.812 155.953C506.594 155.463 506.289 155.08 505.898 154.804C505.503 154.528 505.047 154.39 504.531 154.39C503.995 154.39 503.523 154.528 503.117 154.804C502.706 155.075 502.383 155.474 502.148 156C501.914 156.52 501.797 157.151 501.797 157.89L501.797 159.242L499.828 159.242L499.828 157.89C499.828 157.296 499.721 156.776 499.508 156.328C499.294 155.875 498.997 155.52 498.617 155.265C498.232 155.01 497.781 154.882 497.266 154.882C496.771 154.882 496.341 154.994 495.977 155.218C495.607 155.437 495.318 155.75 495.109 156.156C494.901 156.557 494.797 157.031 494.797 157.578C494.797 158.099 494.893 158.586 495.086 159.039C495.273 159.487 495.544 159.851 495.898 160.132C496.247 160.414 496.667 160.565 497.156 160.586L497.156 162.921C496.292 162.895 495.531 162.64 494.875 162.156C494.219 161.666 493.706 161.02 493.336 160.218C492.966 159.416 492.781 158.526 492.781 157.546C492.781 156.52 492.982 155.635 493.383 154.89C493.779 154.14 494.307 153.562 494.969 153.156C495.63 152.744 496.354 152.541 497.141 152.546C498.036 152.541 498.797 152.791 499.422 153.296C500.047 153.796 500.466 154.463 500.68 155.296L500.805 155.296C500.966 154.234 501.388 153.411 502.07 152.828C502.753 152.239 503.599 151.947 504.609 151.953C505.49 151.947 506.279 152.192 506.977 152.687C507.674 153.177 508.224 153.846 508.625 154.695C509.021 155.544 509.219 156.515 509.219 157.609Z" fill="#CCF381"/>
<path d="M215.925 292.054H160.676V212.872L173.277 201.987H215.925V292.054Z" fill="#167DF4"/>
<path d="M173.277 212.872H160.676L173.277 201.987V212.872Z" fill="#3D155F"/>
<path d="M204.666 212.276H210.631M207.649 209.293V215.258" stroke="#FFEB5C" stroke-width="1.11839" stroke-miterlimit="10"/>
<path d="M189.304 259.208C187.96 259.208 186.768 258.944 185.728 258.416C184.688 257.872 183.888 257.144 183.328 256.232C182.768 255.304 182.488 254.272 182.488 253.136C182.488 252.144 182.688 251.28 183.088 250.544C183.488 249.792 183.992 249.192 184.6 248.744L182.704 248.744L182.704 245.36L196 245.36L196 248.744L194.056 248.744C194.68 249.176 195.2 249.776 195.616 250.544C196.016 251.296 196.216 252.168 196.216 253.16C196.216 254.28 195.928 255.304 195.352 256.232C194.776 257.144 193.968 257.872 192.928 258.416C191.872 258.944 190.664 259.208 189.304 259.208ZM189.352 248.744C188.536 248.744 187.84 248.904 187.264 249.224C186.672 249.544 186.224 249.976 185.92 250.52C185.6 251.064 185.44 251.648 185.44 252.272C185.44 252.896 185.592 253.472 185.896 254C186.2 254.528 186.648 254.96 187.24 255.296C187.816 255.616 188.504 255.776 189.304 255.776C190.104 255.776 190.808 255.616 191.416 255.296C192.008 254.96 192.464 254.528 192.784 254C193.104 253.456 193.264 252.88 193.264 252.272C193.264 251.648 193.112 251.064 192.808 250.52C192.488 249.976 192.04 249.544 191.464 249.224C190.872 248.904 190.168 248.744 189.352 248.744ZM181.12 241.628C181.12 242.22 180.936 242.716 180.568 243.116C180.184 243.5 179.712 243.692 179.152 243.692C178.592 243.692 178.128 243.5 177.76 243.116C177.376 242.716 177.184 242.22 177.184 241.628C177.184 241.036 177.376 240.548 177.76 240.164C178.128 239.764 178.592 239.564 179.152 239.564C179.712 239.564 180.184 239.764 180.568 240.164C180.936 240.548 181.12 241.036 181.12 241.628ZM182.704 239.972L196 239.972L196 243.332L182.704 243.332L182.704 239.972Z" fill="#CCF381"/>
</svg>
