<svg xmlns="http://www.w3.org/2000/svg" width="82" height="12" viewBox="0 0 82 12" fill="none">
    <path d="M11.0735 5.64002C11.0735 6.93715 10.5582 8.18116 9.64095 9.09837C8.72374 10.0156 7.47973 10.5309 6.1826 10.5309C4.88546 10.5309 3.64146 10.0156 2.72425 9.09837C1.80703 8.18116 1.29175 6.93715 1.29175 5.64002C1.29175 4.34288 1.80703 3.09887 2.72425 2.18166C3.64146 1.26445 4.88546 0.749164 6.1826 0.749164C7.47973 0.749164 8.72374 1.26445 9.64095 2.18166C10.5582 3.09887 11.0735 4.34288 11.0735 5.64002ZM28.4706 5.64002C28.4706 6.28237 28.344 6.91842 28.0981 7.51185C27.8522 8.10528 27.4918 8.64447 27.0375 9.09863C26.5833 9.55278 26.044 9.91302 25.4505 10.1588C24.857 10.4045 24.2209 10.5309 23.5786 10.5309C22.9362 10.5308 22.3002 10.4042 21.7067 10.1583C21.1133 9.91239 20.5741 9.55202 20.1199 9.09775C19.6658 8.64348 19.3056 8.1042 19.0598 7.51071C18.8141 6.91722 18.6876 6.28113 18.6877 5.63878C18.6879 4.34148 19.2034 3.09738 20.1208 2.18017C21.0383 1.26295 22.2825 0.74776 23.5798 0.747925C24.8771 0.748089 26.1212 1.2636 27.0384 2.18104C27.9556 3.09849 28.4708 4.34272 28.4706 5.64002ZM45.8672 5.64002C45.8672 6.93715 45.3519 8.18116 44.4347 9.09837C43.5175 10.0156 42.2735 10.5309 40.9764 10.5309C39.6792 10.5309 38.4352 10.0156 37.518 9.09837C36.6008 8.18116 36.0855 6.93715 36.0855 5.64002C36.0855 4.3428 36.6008 3.09871 37.5181 2.18144C38.4354 1.26417 39.6795 0.748854 40.9767 0.748854C42.2739 0.748854 43.518 1.26417 44.4353 2.18144C45.3525 3.09871 45.8672 4.3428 45.8672 5.64002ZM63.265 5.64002C63.2722 6.28697 63.151 6.92892 62.9084 7.5287C62.6658 8.12847 62.3066 8.67416 61.8516 9.13416C61.3967 9.59417 60.855 9.95934 60.2579 10.2085C59.6608 10.4577 59.0202 10.586 58.3733 10.5859C57.7263 10.5858 57.0857 10.4574 56.4887 10.2081C55.8917 9.95871 55.3501 9.5934 54.8952 9.13328C54.4404 8.67317 54.0813 8.12739 53.8389 7.52755C53.5964 6.92771 53.4754 6.28572 53.4827 5.63878C53.4974 4.3511 54.0192 3.12114 54.935 2.21581C55.8509 1.31048 57.0867 0.802818 58.3745 0.802982C59.6623 0.803145 60.898 1.31112 61.8136 2.21669C62.7292 3.12225 63.2507 4.35233 63.265 5.64002ZM80.6616 5.64002C80.6616 6.93715 80.1463 8.18116 79.2291 9.09837C78.3119 10.0156 77.0679 10.5309 75.7708 10.5309C74.4736 10.5309 73.2296 10.0156 72.3124 9.09837C71.3952 8.18116 70.8799 6.93715 70.8799 5.64002C70.8799 4.34288 71.3952 3.09887 72.3124 2.18166C73.2296 1.26445 74.4736 0.749164 75.7708 0.749164C77.0679 0.749164 78.3119 1.26445 79.2291 2.18166C80.1463 3.09887 80.6616 4.34288 80.6616 5.64002Z"
          stroke="#0067DE" stroke-width="1.2396" stroke-miterlimit="50"/>
</svg>