<svg xmlns="http://www.w3.org/2000/svg" width="310" height="1115" viewBox="0 0 310 1115" fill="none">
    <path d="M-696.182 154.521C-525.812 -41.591 -228.296 -49.401 -47.8 131.095C70.236 249.131 107.727 417.154 64.71 566.953C59.949 583.533 52.7 599.236 45.394 614.862C41.5597 623.059 38.5354 631.611 36.364 640.396C24.419 687.93 37.034 740.309 74.209 777.483C98.352 801.627 128.886 815.369 160.379 818.795C165.852 819.421 171.407 819.714 177.004 819.713C209.334 823.139 240.746 837.34 265.474 862.067C326.918 923.512 322.864 1025.78 253.314 1081.83C201.481 1123.61 125.894 1125.01 72.743 1084.92C38.017 1058.73 18.379 1021.25 14.269 982.448C14.269 976.852 13.976 971.297 13.349 965.824C9.924 934.33 -3.817 903.796 -27.961 879.652C-65.135 842.478 -117.516 829.864 -165.049 841.811C-173.835 843.995 -182.39 847.022 -190.594 850.851C-205.969 858.032 -221.394 865.21 -237.696 869.925C-396.184 915.759 -575.221 871.395 -693.927 736.794C-839.378 571.867 -840.398 320.527 -696.182 154.521ZM-218.612 586.833C-140.086 508.309 -140.085 380.431 -218.612 301.905C-297.194 223.322 -425.014 223.38 -503.539 301.905C-582.122 380.488 -582.122 508.25 -503.539 586.833C-425.013 665.359 -297.194 665.416 -218.611 586.833H-218.612Z"
          stroke="#CCF381" stroke-miterlimit="50"/>
</svg>