<svg width="41" height="135" viewBox="0 0 41 135" fill="none" xmlns="http://www.w3.org/2000/svg">
    <g clip-path="url(#clip0_183_37)">
        <path opacity="0.3"
              d="M10.4607 134.185H9.32593L13.4822 123.377H14.6101L10.4607 134.185ZM28.2136 123.24C28.6602 123.24 29.0681 123.302 29.4373 123.425C29.8064 123.543 30.1231 123.721 30.3875 123.958C30.6518 124.195 30.8569 124.489 31.0027 124.84C31.1485 125.191 31.2214 125.596 31.2214 126.057C31.2214 126.248 31.1918 126.446 31.1326 126.651C31.0733 126.856 30.9822 127.055 30.8591 127.246C30.7361 127.442 30.5766 127.627 30.3806 127.8C30.1892 127.968 29.9591 128.11 29.6902 128.224C30.0138 128.328 30.2826 128.465 30.4968 128.634C30.7156 128.802 30.891 128.992 31.0232 129.201C31.1508 129.411 31.2397 129.632 31.2898 129.864C31.3445 130.097 31.3718 130.327 31.3718 130.555C31.3718 131.02 31.2921 131.432 31.1326 131.792C30.9731 132.152 30.752 132.455 30.4695 132.701C30.1869 132.952 29.852 133.143 29.4646 133.275C29.0818 133.403 28.6671 133.467 28.2205 133.467C27.783 133.467 27.3705 133.405 26.9832 133.282C26.6003 133.159 26.2677 132.979 25.9851 132.742C25.7026 132.505 25.477 132.216 25.3083 131.874C25.1443 131.532 25.0623 131.143 25.0623 130.705H26.3269C26.3269 130.965 26.3702 131.202 26.4568 131.416C26.5479 131.63 26.6755 131.812 26.8396 131.963C27.0037 132.113 27.2019 132.229 27.4343 132.312C27.6713 132.394 27.9333 132.435 28.2205 132.435C28.5076 132.435 28.7673 132.398 28.9998 132.325C29.2322 132.248 29.4304 132.132 29.5945 131.977C29.7585 131.822 29.8839 131.63 29.9705 131.402C30.0616 131.17 30.1072 130.896 30.1072 130.582C30.1072 130.272 30.0548 130.006 29.95 129.782C29.8497 129.554 29.7084 129.365 29.5261 129.215C29.3393 129.064 29.1137 128.953 28.8494 128.88C28.5896 128.807 28.3025 128.771 27.988 128.771H27.0857V127.745H27.988C28.307 127.745 28.5873 127.702 28.8289 127.615C29.075 127.529 29.2823 127.41 29.4509 127.26C29.615 127.109 29.7403 126.929 29.8269 126.72C29.9135 126.51 29.9568 126.28 29.9568 126.029C29.9568 125.733 29.9181 125.476 29.8406 125.257C29.7631 125.034 29.6492 124.849 29.4988 124.703C29.3529 124.562 29.1707 124.457 28.9519 124.389C28.7377 124.316 28.4916 124.279 28.2136 124.279C27.9447 124.279 27.6986 124.32 27.4753 124.402C27.2566 124.48 27.0697 124.594 26.9148 124.744C26.7553 124.895 26.6322 125.075 26.5457 125.284C26.4591 125.494 26.4158 125.729 26.4158 125.988H25.1443C25.1443 125.61 25.2172 125.255 25.363 124.922C25.5134 124.585 25.7231 124.291 25.9919 124.04C26.2608 123.794 26.5821 123.6 26.9558 123.459C27.3341 123.313 27.7533 123.24 28.2136 123.24ZM18.4656 127.034C18.5658 126.884 18.6775 126.747 18.8005 126.624C18.9236 126.496 19.0535 126.385 19.1902 126.289C19.4089 126.13 19.6482 126.009 19.908 125.927C20.1723 125.845 20.4526 125.801 20.7488 125.797C21.1361 125.797 21.4871 125.854 21.8015 125.968C22.1205 126.077 22.3917 126.25 22.615 126.487C22.8383 126.724 23.0092 127.025 23.1277 127.39C23.2507 127.75 23.3123 128.178 23.3123 128.675V133.33H22.0476V128.661C22.0476 128.369 22.0134 128.114 21.9451 127.896C21.8767 127.672 21.7764 127.488 21.6443 127.342C21.503 127.182 21.3253 127.064 21.1111 126.986C20.8969 126.904 20.6508 126.866 20.3728 126.87C20.1449 126.87 19.9285 126.902 19.7234 126.966C19.5183 127.03 19.3292 127.121 19.156 127.239C19.0193 127.33 18.8917 127.438 18.7732 127.561C18.6593 127.679 18.5567 127.811 18.4656 127.957V133.33H17.2009V122.83H18.4656V127.034ZM6.15405 127.157L1.97046 128.798L1.60815 128.914L1.97046 129.037L6.15405 130.65V131.99L0.357178 129.399V128.401L6.15405 125.817V127.157ZM40.0808 128.395V129.393L34.0447 131.983V130.671L38.4675 129.003L38.8777 128.887L38.4675 128.757L34.0447 127.116V125.811L40.0808 128.395ZM18.1951 114.189H16.1951V20.3799H18.1951V114.189ZM19.8054 1.29004C20.252 1.29004 20.6599 1.35156 21.0291 1.47461C21.3982 1.5931 21.7149 1.77083 21.9792 2.00781C22.2436 2.24479 22.4486 2.53874 22.5945 2.88965C22.7403 3.24056 22.8132 3.64616 22.8132 4.10645C22.8132 4.29785 22.7836 4.49609 22.7244 4.70117C22.6651 4.90625 22.574 5.10449 22.4509 5.2959C22.3279 5.49186 22.1684 5.67643 21.9724 5.84961C21.781 6.01823 21.5509 6.15951 21.282 6.27344C21.6056 6.37826 21.8744 6.51497 22.0886 6.68359C22.3074 6.85221 22.4828 7.04134 22.615 7.25098C22.7426 7.46061 22.8315 7.68164 22.8816 7.91406C22.9363 8.14648 22.9636 8.37663 22.9636 8.60449C22.9636 9.06934 22.8839 9.48177 22.7244 9.8418C22.5649 10.2018 22.3438 10.5049 22.0613 10.751C21.7787 11.0016 21.4438 11.193 21.0564 11.3252C20.6736 11.4528 20.2589 11.5166 19.8123 11.5166C19.3748 11.5166 18.9623 11.4551 18.575 11.332C18.1921 11.209 17.8595 11.029 17.5769 10.792C17.2944 10.555 17.0688 10.2656 16.9001 9.92383C16.7361 9.58203 16.6541 9.19238 16.6541 8.75488H17.9187C17.9187 9.01465 17.962 9.25163 18.0486 9.46582C18.1397 9.68001 18.2673 9.8623 18.4314 10.0127C18.5955 10.1631 18.7937 10.2793 19.0261 10.3613C19.2631 10.4434 19.5251 10.4844 19.8123 10.4844C20.0994 10.4844 20.3591 10.4479 20.5916 10.375C20.824 10.2975 21.0222 10.1813 21.1863 10.0264C21.3503 9.87142 21.4757 9.68001 21.5623 9.45215C21.6534 9.21973 21.699 8.94629 21.699 8.63184C21.699 8.32194 21.6466 8.05534 21.5417 7.83203C21.4415 7.60417 21.3002 7.41504 21.1179 7.26465C20.9311 7.11426 20.7055 7.0026 20.4412 6.92969C20.1814 6.85677 19.8943 6.82031 19.5798 6.82031H18.6775V5.79492H19.5798C19.8988 5.79492 20.1791 5.75163 20.4207 5.66504C20.6667 5.57845 20.8741 5.45996 21.0427 5.30957C21.2068 5.15918 21.3321 4.97917 21.4187 4.76953C21.5053 4.5599 21.5486 4.32975 21.5486 4.0791C21.5486 3.78288 21.5098 3.52539 21.4324 3.30664C21.3549 3.08333 21.241 2.89876 21.0906 2.75293C20.9447 2.61165 20.7625 2.50684 20.5437 2.43848C20.3295 2.36556 20.0834 2.3291 19.8054 2.3291C19.5365 2.3291 19.2904 2.37012 19.0671 2.45215C18.8484 2.52962 18.6615 2.64355 18.5066 2.79395C18.3471 2.94434 18.224 3.12435 18.1375 3.33398C18.0509 3.54362 18.0076 3.77832 18.0076 4.03809H16.7361C16.7361 3.65983 16.809 3.30436 16.9548 2.97168C17.1052 2.63444 17.3149 2.34049 17.5837 2.08984C17.8526 1.84375 18.1739 1.65007 18.5476 1.50879C18.9259 1.36296 19.3451 1.29004 19.8054 1.29004ZM10.0574 5.08398C10.1576 4.93359 10.2693 4.79688 10.3923 4.67383C10.5154 4.54622 10.6453 4.43457 10.782 4.33887C11.0007 4.17936 11.24 4.05859 11.4998 3.97656C11.7641 3.89453 12.0444 3.85124 12.3406 3.84668C12.7279 3.84668 13.0789 3.90365 13.3933 4.01758C13.7123 4.12695 13.9835 4.30013 14.2068 4.53711C14.4301 4.77409 14.601 5.07487 14.7195 5.43945C14.8425 5.79948 14.9041 6.22786 14.9041 6.72461V11.3799H13.6394V6.71094C13.6394 6.41927 13.6052 6.16406 13.5369 5.94531C13.4685 5.72201 13.3682 5.53743 13.2361 5.3916C13.0948 5.2321 12.9171 5.11361 12.7029 5.03613C12.4887 4.9541 12.2426 4.91536 11.9646 4.91992C11.7367 4.91992 11.5203 4.95182 11.3152 5.01562C11.1101 5.07943 10.921 5.17057 10.7478 5.28906C10.6111 5.38021 10.4835 5.4873 10.365 5.61035C10.2511 5.72884 10.1485 5.861 10.0574 6.00684V11.3799H8.79272V0.879883H10.0574V5.08398ZM6.15405 5.20703L1.97046 6.84766L1.60815 6.96387L1.97046 7.08691L6.15405 8.7002V10.04L0.357178 7.44922V6.45117L6.15405 3.86719V5.20703ZM31.6726 6.44434V7.44238L25.6365 10.0332V8.7207L30.0593 7.05273L30.4695 6.93652L30.0593 6.80664L25.6365 5.16602V3.86035L31.6726 6.44434Z"
              fill="white"/>
    </g>
    <defs>
        <clipPath id="clip0_183_37">
            <rect width="41" height="135" fill="white"/>
        </clipPath>
    </defs>
</svg>
