<svg xmlns="http://www.w3.org/2000/svg" width="147" height="137" viewBox="0 0 147 137" fill="none">
    <path d="M2.19948 2.01526C2.19948 2.2912 2.08988 2.55583 1.89477 2.75095C1.69965 2.94606 1.435 3.0557 1.15906 3.0557C0.883127 3.0557 0.618478 2.94606 0.423361 2.75095C0.228245 2.55583 0.118652 2.2912 0.118652 2.01526C0.118652 1.73942 0.228225 1.47487 0.423277 1.27982C0.618328 1.08476 0.882881 0.975192 1.15873 0.975192C1.43457 0.975192 1.69912 1.08476 1.89417 1.27982C2.08923 1.47487 2.19948 1.73942 2.19948 2.01526ZM15.3508 2.01526C15.3508 2.29111 15.2413 2.55566 15.0462 2.75071C14.8512 2.94576 14.5866 3.05534 14.3108 3.05534C14.0349 3.05534 13.7704 2.94576 13.5754 2.75071C13.3803 2.55566 13.2707 2.29111 13.2707 2.01526C13.2707 1.73942 13.3803 1.47487 13.5754 1.27982C13.7704 1.08476 14.0349 0.975192 14.3108 0.975192C14.5866 0.975192 14.8512 1.08476 15.0462 1.27982C15.2413 1.47487 15.3508 1.73942 15.3508 2.01526ZM28.5029 2.01526C28.5029 2.2912 28.3933 2.55583 28.1982 2.75095C28.0031 2.94606 27.7384 3.0557 27.4625 3.0557C27.1866 3.0557 26.9219 2.94606 26.7268 2.75095C26.5317 2.55583 26.4221 2.2912 26.4221 2.01526C26.4221 1.73933 26.5317 1.4747 26.7268 1.27958C26.9219 1.08447 27.1866 0.974854 27.4625 0.974854C27.7384 0.974854 28.0031 1.08447 28.1982 1.27958C28.3933 1.4747 28.5029 1.73933 28.5029 2.01526ZM41.655 2.01526C41.655 2.2912 41.5454 2.55583 41.3502 2.75095C41.1551 2.94606 40.8905 3.0557 40.6146 3.0557C40.3386 3.0557 40.074 2.94606 39.8789 2.75095C39.6838 2.55583 39.5742 2.2912 39.5742 2.01526C39.5742 1.73942 39.6837 1.47487 39.8788 1.27982C40.0738 1.08476 40.3384 0.975192 40.6142 0.975192C40.8901 0.975192 41.1546 1.08476 41.3496 1.27982C41.5447 1.47487 41.655 1.73942 41.655 2.01526ZM54.8071 2.01526C54.8071 2.2912 54.6974 2.55583 54.5023 2.75095C54.3072 2.94606 54.0426 3.0557 53.7666 3.0557C53.4907 3.0557 53.2261 2.94606 53.031 2.75095C52.8358 2.55583 52.7262 2.2912 52.7262 2.01526C52.7262 1.73942 52.8358 1.47487 53.0308 1.27982C53.2259 1.08476 53.4904 0.975192 53.7663 0.975192C54.0421 0.975192 54.3067 1.08476 54.5017 1.27982C54.6968 1.47487 54.8064 1.73942 54.8064 2.01526H54.8071ZM67.9584 2.01526C67.9584 2.29111 67.8489 2.55566 67.6538 2.75071C67.4588 2.94576 67.1942 3.05534 66.9184 3.05534C66.6425 3.05534 66.378 2.94576 66.1829 2.75071C65.9879 2.55566 65.8783 2.29111 65.8783 2.01526C65.8783 1.73942 65.9879 1.47487 66.1829 1.27982C66.378 1.08476 66.6425 0.975192 66.9184 0.975192C67.1942 0.975192 67.4588 1.08476 67.6538 1.27982C67.8489 1.47487 67.9584 1.73942 67.9584 2.01526ZM81.1105 2.01526C81.1105 2.29111 81.0009 2.55566 80.8059 2.75071C80.6108 2.94576 80.3463 3.05534 80.0704 3.05534C79.7946 3.05534 79.53 2.94576 79.335 2.75071C79.1399 2.55566 79.0304 2.29111 79.0304 2.01526C79.0304 1.73942 79.1399 1.47487 79.335 1.27982C79.53 1.08476 79.7946 0.975192 80.0704 0.975192C80.3463 0.975192 80.6108 1.08476 80.8059 1.27982C81.0009 1.47487 81.1105 1.73942 81.1105 2.01526ZM94.2633 2.01526C94.2633 2.2912 94.1536 2.55583 93.9585 2.75095C93.7634 2.94606 93.4988 3.0557 93.2229 3.0557C92.9469 3.0557 92.6823 2.94606 92.4872 2.75095C92.292 2.55583 92.1824 2.2912 92.1824 2.01526C92.1824 1.73933 92.292 1.4747 92.4872 1.27958C92.6823 1.08447 92.9469 0.974854 93.2229 0.974854C93.4988 0.974854 93.7634 1.08447 93.9585 1.27958C94.1536 1.4747 94.2633 1.73933 94.2633 2.01526ZM107.415 2.01526C107.415 2.2912 107.306 2.55583 107.111 2.75095C106.915 2.94606 106.651 3.0557 106.375 3.0557C106.099 3.0557 105.834 2.94606 105.639 2.75095C105.444 2.55583 105.334 2.2912 105.334 2.01526C105.334 1.73942 105.444 1.47487 105.639 1.27982C105.834 1.08476 106.099 0.975192 106.375 0.975192C106.65 0.975192 106.915 1.08476 107.11 1.27982C107.305 1.47487 107.415 1.73942 107.415 2.01526ZM120.567 2.01526C120.567 2.29129 120.458 2.55602 120.263 2.7512C120.067 2.94638 119.803 3.05604 119.527 3.05604C119.251 3.05604 118.986 2.94638 118.791 2.7512C118.595 2.55602 118.486 2.29129 118.486 2.01526C118.486 1.73933 118.595 1.4747 118.791 1.27958C118.986 1.08447 119.25 0.974854 119.526 0.974854C119.802 0.974854 120.067 1.08447 120.262 1.27958C120.457 1.4747 120.567 1.73933 120.567 2.01526ZM133.719 2.01526C133.719 2.29111 133.609 2.55566 133.414 2.75071C133.219 2.94576 132.955 3.05534 132.679 3.05534C132.403 3.05534 132.138 2.94576 131.943 2.75071C131.748 2.55566 131.639 2.29111 131.639 2.01526C131.639 1.73942 131.748 1.47487 131.943 1.27982C132.138 1.08476 132.403 0.975192 132.679 0.975192C132.955 0.975192 133.219 1.08476 133.414 1.27982C133.609 1.47487 133.719 1.73942 133.719 2.01526ZM146.871 2.01526C146.871 2.2912 146.761 2.55583 146.566 2.75095C146.371 2.94606 146.106 3.0557 145.83 3.0557C145.554 3.0557 145.29 2.94606 145.095 2.75095C144.9 2.55583 144.79 2.2912 144.79 2.01526C144.79 1.73933 144.9 1.4747 145.095 1.27958C145.29 1.08447 145.554 0.974854 145.83 0.974854C146.106 0.974854 146.371 1.08447 146.566 1.27958C146.761 1.4747 146.871 1.73933 146.871 2.01526ZM2.19948 15.3441C2.19943 15.4808 2.17249 15.6161 2.12017 15.7423C2.06784 15.8685 1.99116 15.9832 1.89451 16.0797C1.79787 16.1763 1.68312 16.2529 1.55688 16.3052C1.43063 16.3574 1.29536 16.3843 1.15873 16.3842C1.0221 16.3842 0.886784 16.3572 0.760572 16.3049C0.63436 16.2526 0.519729 16.1759 0.42315 16.0792C0.32657 15.9826 0.249951 15.8679 0.197707 15.7416C0.145464 15.6154 0.118607 15.4801 0.118652 15.3435C0.118744 15.0676 0.228414 14.8031 0.423531 14.6081C0.618647 14.4131 0.883219 14.3036 1.15906 14.3037C1.43491 14.3038 1.6994 14.4135 1.89439 14.6086C2.08937 14.8037 2.19957 15.0683 2.19948 15.3441ZM15.3508 15.3441C15.3507 15.62 15.2411 15.8845 15.046 16.0795C14.8509 16.2745 14.5863 16.384 14.3104 16.3839C14.0346 16.3838 13.7701 16.2741 13.5751 16.079C13.3801 15.8839 13.2706 15.6193 13.2707 15.3435C13.2708 15.0676 13.3805 14.8031 13.5756 14.6081C13.7707 14.4131 14.0353 14.3036 14.3111 14.3037C14.587 14.3038 14.8515 14.4135 15.0465 14.6086C15.2415 14.8037 15.3509 15.0683 15.3508 15.3441ZM28.5029 15.3441C28.5029 15.4808 28.4759 15.6161 28.4236 15.7423C28.3713 15.8685 28.2946 15.9832 28.198 16.0797C28.1013 16.1763 27.9866 16.2529 27.8603 16.3052C27.7341 16.3574 27.5988 16.3843 27.4622 16.3842C27.3255 16.3842 27.1902 16.3572 27.064 16.3049C26.9378 16.2526 26.8232 16.1759 26.7266 16.0792C26.63 15.9826 26.5534 15.8679 26.5011 15.7416C26.4489 15.6154 26.422 15.4801 26.4221 15.3435C26.4222 15.0675 26.5319 14.8029 26.7271 14.6079C26.9222 14.4128 27.1869 14.3033 27.4628 14.3034C27.7388 14.3035 28.0034 14.4132 28.1984 14.6084C28.3935 14.8035 28.503 15.0682 28.5029 15.3441ZM41.655 15.3441C41.6549 15.4808 41.628 15.6161 41.5756 15.7423C41.5233 15.8685 41.4467 15.9832 41.35 16.0797C41.2534 16.1763 41.1386 16.2529 41.0124 16.3052C40.8862 16.3574 40.7509 16.3843 40.6142 16.3842C40.4776 16.3842 40.3423 16.3572 40.2161 16.3049C40.0899 16.2526 39.9752 16.1759 39.8786 16.0792C39.782 15.9826 39.7055 15.8679 39.6532 15.7416C39.601 15.6154 39.5741 15.4801 39.5742 15.3435C39.5743 15.0676 39.6839 14.8031 39.879 14.6081C40.0741 14.4131 40.3387 14.3036 40.6146 14.3037C40.8904 14.3038 41.1549 14.4135 41.3499 14.6086C41.5449 14.8037 41.6551 15.0683 41.655 15.3441ZM54.8071 15.3441C54.807 15.4808 54.78 15.6161 54.7277 15.7423C54.6754 15.8685 54.5987 15.9832 54.5021 16.0797C54.4054 16.1763 54.2907 16.2529 54.1645 16.3052C54.0382 16.3574 53.9029 16.3843 53.7663 16.3842C53.6297 16.3842 53.4944 16.3572 53.3682 16.3049C53.242 16.2526 53.1273 16.1759 53.0307 16.0792C52.9341 15.9826 52.8575 15.8679 52.8053 15.7416C52.753 15.6154 52.7262 15.4801 52.7262 15.3435C52.7263 15.0676 52.836 14.8031 53.0311 14.6081C53.2262 14.4131 53.4908 14.3036 53.7666 14.3037C54.0425 14.3038 54.307 14.4135 54.502 14.6086C54.697 14.8037 54.8064 15.0683 54.8064 15.3441H54.8071ZM67.9584 15.3441C67.9584 15.62 67.8489 15.8845 67.6538 16.0796C67.4588 16.2746 67.1942 16.3842 66.9184 16.3842C66.6425 16.3842 66.378 16.2746 66.1829 16.0796C65.9879 15.8845 65.8783 15.62 65.8783 15.3441C65.8783 15.0683 65.9879 14.8038 66.1829 14.6087C66.378 14.4137 66.6425 14.3041 66.9184 14.3041C67.1942 14.3041 67.4588 14.4137 67.6538 14.6087C67.8489 14.8038 67.9584 15.0683 67.9584 15.3441ZM81.1105 15.3441C81.1105 15.62 81.0009 15.8845 80.8059 16.0796C80.6108 16.2746 80.3463 16.3842 80.0704 16.3842C79.7946 16.3842 79.53 16.2746 79.335 16.0796C79.1399 15.8845 79.0304 15.62 79.0304 15.3441C79.0304 15.0683 79.1399 14.8038 79.335 14.6087C79.53 14.4137 79.7946 14.3041 80.0704 14.3041C80.3463 14.3041 80.6108 14.4137 80.8059 14.6087C81.0009 14.8038 81.1105 15.0683 81.1105 15.3441ZM94.2633 15.3441C94.2632 15.6201 94.1534 15.8847 93.9583 16.0797C93.7631 16.2748 93.4984 16.3843 93.2225 16.3842C92.9465 16.3841 92.682 16.2744 92.4869 16.0792C92.2918 15.8841 92.1823 15.6194 92.1824 15.3435C92.1825 15.0675 92.2922 14.8029 92.4874 14.6079C92.6826 14.4128 92.9473 14.3033 93.2232 14.3034C93.4991 14.3035 93.7637 14.4132 93.9588 14.6084C94.1538 14.8035 94.2634 15.0682 94.2633 15.3441ZM107.415 15.3441C107.415 15.6201 107.306 15.8847 107.11 16.0797C106.915 16.2748 106.65 16.3843 106.375 16.3842C106.099 16.3841 105.834 16.2744 105.639 16.0792C105.444 15.8841 105.334 15.6194 105.334 15.3435C105.335 15.0676 105.444 14.8031 105.639 14.6081C105.834 14.4131 106.099 14.3036 106.375 14.3037C106.651 14.3038 106.915 14.4135 107.11 14.6086C107.305 14.8037 107.415 15.0683 107.415 15.3441ZM120.567 15.3441C120.567 15.4808 120.54 15.6161 120.488 15.7424C120.436 15.8687 120.359 15.9834 120.262 16.08C120.166 16.1766 120.051 16.2532 119.925 16.3055C119.798 16.3577 119.663 16.3846 119.526 16.3846C119.39 16.3845 119.254 16.3576 119.128 16.3052C119.002 16.2529 118.887 16.1762 118.79 16.0795C118.694 15.9828 118.617 15.8681 118.565 15.7418C118.513 15.6155 118.486 15.4801 118.486 15.3435C118.486 15.0675 118.596 14.8029 118.791 14.6079C118.986 14.4128 119.251 14.3033 119.527 14.3034C119.803 14.3035 120.067 14.4132 120.262 14.6084C120.457 14.8035 120.567 15.0682 120.567 15.3441ZM133.719 15.3441C133.719 15.4807 133.692 15.616 133.639 15.7421C133.587 15.8683 133.511 15.9829 133.414 16.0795C133.317 16.176 133.203 16.2526 133.076 16.3048C132.95 16.3571 132.815 16.3839 132.678 16.3839C132.542 16.3838 132.407 16.3569 132.28 16.3046C132.154 16.2523 132.04 16.1756 131.943 16.079C131.846 15.9824 131.77 15.8677 131.718 15.7415C131.665 15.6153 131.639 15.48 131.639 15.3435C131.639 15.0676 131.748 14.8031 131.943 14.6081C132.139 14.4131 132.403 14.3036 132.679 14.3037C132.955 14.3038 133.219 14.4135 133.414 14.6086C133.609 14.8037 133.719 15.0683 133.719 15.3441ZM146.871 15.3441C146.871 15.6201 146.761 15.8847 146.566 16.0797C146.371 16.2748 146.106 16.3843 145.83 16.3842C145.554 16.3841 145.29 16.2744 145.094 16.0792C144.899 15.8841 144.79 15.6194 144.79 15.3435C144.79 15.0675 144.9 14.8029 145.095 14.6079C145.29 14.4128 145.555 14.3033 145.831 14.3034C146.107 14.3035 146.371 14.4132 146.566 14.6084C146.761 14.8035 146.871 15.0682 146.871 15.3441ZM2.19948 28.6737C2.19943 28.8103 2.17249 28.9456 2.12017 29.0718C2.06784 29.1981 1.99116 29.3127 1.89451 29.4093C1.79787 29.5059 1.68312 29.5825 1.55688 29.6347C1.43063 29.687 1.29536 29.7138 1.15873 29.7138C1.0221 29.7137 0.886784 29.6868 0.760572 29.6345C0.63436 29.5821 0.519729 29.5055 0.42315 29.4088C0.32657 29.3122 0.249951 29.1975 0.197707 29.0712C0.145464 28.945 0.118607 28.8097 0.118652 28.673C0.118652 28.3972 0.228225 28.1326 0.423277 27.9376C0.618328 27.7425 0.882881 27.633 1.15873 27.633C1.43457 27.633 1.69912 27.7425 1.89417 27.9376C2.08923 28.1326 2.1988 28.3972 2.1988 28.673L2.19948 28.6737ZM15.3508 28.6737C15.3507 28.9496 15.2411 29.2141 15.046 29.4091C14.8509 29.604 14.5863 29.7135 14.3104 29.7134C14.0346 29.7134 13.7701 29.6037 13.5751 29.4086C13.3801 29.2134 13.2706 28.9489 13.2707 28.673C13.2707 28.3972 13.3803 28.1326 13.5754 27.9376C13.7704 27.7425 14.0349 27.633 14.3108 27.633C14.5866 27.633 14.8512 27.7425 15.0462 27.9376C15.2413 28.1326 15.3508 28.3979 15.3508 28.6737ZM28.5029 28.6737C28.5029 28.8103 28.4759 28.9456 28.4236 29.0718C28.3713 29.1981 28.2946 29.3127 28.198 29.4093C28.1013 29.5059 27.9866 29.5825 27.8603 29.6347C27.7341 29.687 27.5988 29.7138 27.4622 29.7138C27.3255 29.7137 27.1902 29.6868 27.064 29.6345C26.9378 29.5821 26.8232 29.5055 26.7266 29.4088C26.63 29.3122 26.5534 29.1975 26.5011 29.0712C26.4489 28.945 26.422 28.8097 26.4221 28.673C26.4221 28.3971 26.5317 28.1324 26.7268 27.9373C26.9219 27.7422 27.1866 27.6326 27.4625 27.6326C27.7384 27.6326 28.0031 27.7422 28.1982 27.9373C28.3933 28.1324 28.5029 28.3978 28.5029 28.6737ZM41.655 28.6737C41.6549 28.8103 41.628 28.9456 41.5756 29.0718C41.5233 29.1981 41.4467 29.3127 41.35 29.4093C41.2534 29.5059 41.1386 29.5825 41.0124 29.6347C40.8862 29.687 40.7509 29.7138 40.6142 29.7138C40.4776 29.7137 40.3423 29.6868 40.2161 29.6345C40.0899 29.5821 39.9752 29.5055 39.8786 29.4088C39.782 29.3122 39.7055 29.1975 39.6532 29.0712C39.601 28.945 39.5741 28.8097 39.5742 28.673C39.5742 28.3972 39.6837 28.1326 39.8788 27.9376C40.0738 27.7425 40.3384 27.633 40.6142 27.633C40.8901 27.633 41.1546 27.7425 41.3496 27.9376C41.5447 28.1326 41.6543 28.3972 41.6543 28.673L41.655 28.6737ZM54.8071 28.6737C54.807 28.8103 54.78 28.9456 54.7277 29.0718C54.6754 29.1981 54.5987 29.3127 54.5021 29.4093C54.4054 29.5059 54.2907 29.5825 54.1645 29.6347C54.0382 29.687 53.9029 29.7138 53.7663 29.7138C53.6297 29.7137 53.4944 29.6868 53.3682 29.6345C53.242 29.5821 53.1273 29.5055 53.0307 29.4088C52.9341 29.3122 52.8575 29.1975 52.8053 29.0712C52.753 28.945 52.7262 28.8097 52.7262 28.673C52.7262 28.3972 52.8358 28.1326 53.0308 27.9376C53.2259 27.7425 53.4904 27.633 53.7663 27.633C54.0421 27.633 54.3067 27.7425 54.5017 27.9376C54.6968 28.1326 54.8064 28.3972 54.8064 28.673L54.8071 28.6737ZM67.9584 28.6737C67.9584 28.9496 67.8489 29.2141 67.6538 29.4092C67.4588 29.6042 67.1942 29.7138 66.9184 29.7138C66.6425 29.7138 66.378 29.6042 66.1829 29.4092C65.9879 29.2141 65.8783 28.9496 65.8783 28.6737C65.8783 28.3979 65.9879 28.1333 66.1829 27.9383C66.378 27.7432 66.6425 27.6336 66.9184 27.6336C67.1942 27.6336 67.4588 27.7432 67.6538 27.9383C67.8489 28.1333 67.9584 28.3979 67.9584 28.6737ZM81.1105 28.6737C81.1105 28.9496 81.0009 29.2141 80.8059 29.4092C80.6108 29.6042 80.3463 29.7138 80.0704 29.7138C79.7946 29.7138 79.53 29.6042 79.335 29.4092C79.1399 29.2141 79.0304 28.9496 79.0304 28.6737C79.0304 28.3979 79.1399 28.1333 79.335 27.9383C79.53 27.7432 79.7946 27.6336 80.0704 27.6336C80.3463 27.6336 80.6108 27.7432 80.8059 27.9383C81.0009 28.1333 81.1105 28.3979 81.1105 28.6737ZM94.2633 28.6737C94.2632 28.9496 94.1534 29.2143 93.9583 29.4093C93.7631 29.6044 93.4984 29.7139 93.2225 29.7138C92.9465 29.7137 92.682 29.604 92.4869 29.4088C92.2918 29.2136 92.1823 28.949 92.1824 28.673C92.1824 28.3971 92.292 28.1324 92.4872 27.9373C92.6823 27.7422 92.9469 27.6326 93.2229 27.6326C93.4988 27.6326 93.7634 27.7422 93.9585 27.9373C94.1536 28.1324 94.2633 28.3978 94.2633 28.6737ZM107.415 28.6737C107.415 28.9496 107.306 29.2143 107.11 29.4093C106.915 29.6044 106.65 29.7139 106.375 29.7138C106.099 29.7137 105.834 29.604 105.639 29.4088C105.444 29.2136 105.334 28.949 105.334 28.673C105.334 28.3972 105.444 28.1326 105.639 27.9376C105.834 27.7425 106.099 27.633 106.375 27.633C106.65 27.633 106.915 27.7425 107.11 27.9376C107.305 28.1326 107.415 28.3972 107.415 28.673L107.415 28.6737ZM120.567 28.6737C120.567 28.9497 120.458 29.2144 120.262 29.4096C120.067 29.6047 119.802 29.7142 119.526 29.7141C119.25 29.7141 118.986 29.6043 118.79 29.4091C118.595 29.2138 118.486 28.9491 118.486 28.673C118.486 28.3971 118.595 28.1324 118.791 27.9373C118.986 27.7422 119.25 27.6326 119.526 27.6326C119.802 27.6326 120.067 27.7422 120.262 27.9373C120.457 28.1324 120.567 28.3971 120.567 28.673L120.567 28.6737ZM133.719 28.6737C133.719 28.8103 133.692 28.9455 133.639 29.0717C133.587 29.1979 133.511 29.3125 133.414 29.4091C133.317 29.5056 133.203 29.5822 133.076 29.6344C132.95 29.6866 132.815 29.7135 132.678 29.7134C132.542 29.7134 132.407 29.6864 132.28 29.6341C132.154 29.5818 132.04 29.5052 131.943 29.4086C131.846 29.312 131.77 29.1973 131.718 29.0711C131.665 28.9449 131.639 28.8096 131.639 28.673C131.639 28.3972 131.748 28.1326 131.943 27.9376C132.138 27.7425 132.403 27.633 132.679 27.633C132.955 27.633 133.219 27.7425 133.414 27.9376C133.609 28.1326 133.719 28.3979 133.719 28.6737ZM146.871 28.6737C146.871 28.9496 146.761 29.2143 146.566 29.4093C146.371 29.6044 146.106 29.7139 145.83 29.7138C145.554 29.7137 145.29 29.604 145.094 29.4088C144.899 29.2136 144.79 28.949 144.79 28.673C144.79 28.3971 144.9 28.1324 145.095 27.9373C145.29 27.7422 145.554 27.6326 145.83 27.6326C146.106 27.6326 146.371 27.7422 146.566 27.9373C146.761 28.1324 146.871 28.3978 146.871 28.6737ZM2.19948 42.0019C2.19948 42.2778 2.08988 42.5425 1.89477 42.7376C1.69965 42.9327 1.435 43.0423 1.15906 43.0423C0.883127 43.0423 0.618478 42.9327 0.423361 42.7376C0.228245 42.5425 0.118652 42.2778 0.118652 42.0019C0.118652 41.7261 0.228225 41.4615 0.423277 41.2665C0.618328 41.0714 0.882881 40.9618 1.15873 40.9618C1.43457 40.9618 1.69912 41.0714 1.89417 41.2665C2.08923 41.4615 2.19948 41.7261 2.19948 42.0019ZM15.3508 42.0019C15.3508 42.2778 15.2413 42.5423 15.0462 42.7374C14.8512 42.9324 14.5866 43.042 14.3108 43.042C14.0349 43.042 13.7704 42.9324 13.5754 42.7374C13.3803 42.5423 13.2707 42.2778 13.2707 42.0019C13.2707 41.7261 13.3803 41.4615 13.5754 41.2665C13.7704 41.0714 14.0349 40.9618 14.3108 40.9618C14.5866 40.9618 14.8512 41.0714 15.0462 41.2665C15.2413 41.4615 15.3508 41.7261 15.3508 42.0019ZM28.5029 42.0019C28.5029 42.2778 28.3933 42.5425 28.1982 42.7376C28.0031 42.9327 27.7384 43.0423 27.4625 43.0423C27.1866 43.0423 26.9219 42.9327 26.7268 42.7376C26.5317 42.5425 26.4221 42.2778 26.4221 42.0019C26.4221 41.726 26.5317 41.4613 26.7268 41.2662C26.9219 41.0711 27.1866 40.9615 27.4625 40.9615C27.7384 40.9615 28.0031 41.0711 28.1982 41.2662C28.3933 41.4613 28.5029 41.726 28.5029 42.0019ZM41.655 42.0019C41.655 42.2778 41.5454 42.5425 41.3502 42.7376C41.1551 42.9327 40.8905 43.0423 40.6146 43.0423C40.3386 43.0423 40.074 42.9327 39.8789 42.7376C39.6838 42.5425 39.5742 42.2778 39.5742 42.0019C39.5742 41.7261 39.6837 41.4615 39.8788 41.2665C40.0738 41.0714 40.3384 40.9618 40.6142 40.9618C40.8901 40.9618 41.1546 41.0714 41.3496 41.2665C41.5447 41.4615 41.655 41.7261 41.655 42.0019ZM54.8071 42.0019C54.8071 42.2778 54.6974 42.5425 54.5023 42.7376C54.3072 42.9327 54.0426 43.0423 53.7666 43.0423C53.4907 43.0423 53.2261 42.9327 53.031 42.7376C52.8358 42.5425 52.7262 42.2778 52.7262 42.0019C52.7262 41.7261 52.8358 41.4615 53.0308 41.2665C53.2259 41.0714 53.4904 40.9618 53.7663 40.9618C54.0421 40.9618 54.3067 41.0714 54.5017 41.2665C54.6968 41.4615 54.8064 41.7261 54.8064 42.0019H54.8071ZM67.9584 42.0019C67.9584 42.2778 67.8489 42.5423 67.6538 42.7374C67.4588 42.9324 67.1942 43.042 66.9184 43.042C66.6425 43.042 66.378 42.9324 66.1829 42.7374C65.9879 42.5423 65.8783 42.2778 65.8783 42.0019C65.8783 41.7261 65.9879 41.4615 66.1829 41.2665C66.378 41.0714 66.6425 40.9618 66.9184 40.9618C67.1942 40.9618 67.4588 41.0714 67.6538 41.2665C67.8489 41.4615 67.9584 41.7261 67.9584 42.0019ZM81.1105 42.0019C81.1105 42.2778 81.0009 42.5423 80.8059 42.7374C80.6108 42.9324 80.3463 43.042 80.0704 43.042C79.7946 43.042 79.53 42.9324 79.335 42.7374C79.1399 42.5423 79.0304 42.2778 79.0304 42.0019C79.0304 41.7261 79.1399 41.4615 79.335 41.2665C79.53 41.0714 79.7946 40.9618 80.0704 40.9618C80.3463 40.9618 80.6108 41.0714 80.8059 41.2665C81.0009 41.4615 81.1105 41.7261 81.1105 42.0019ZM94.2633 42.0019C94.2633 42.2778 94.1536 42.5425 93.9585 42.7376C93.7634 42.9327 93.4988 43.0423 93.2229 43.0423C92.9469 43.0423 92.6823 42.9327 92.4872 42.7376C92.292 42.5425 92.1824 42.2778 92.1824 42.0019C92.1824 41.726 92.292 41.4613 92.4872 41.2662C92.6823 41.0711 92.9469 40.9615 93.2229 40.9615C93.4988 40.9615 93.7634 41.0711 93.9585 41.2662C94.1536 41.4613 94.2633 41.726 94.2633 42.0019ZM107.415 42.0019C107.415 42.2778 107.306 42.5425 107.111 42.7376C106.915 42.9327 106.651 43.0423 106.375 43.0423C106.099 43.0423 105.834 42.9327 105.639 42.7376C105.444 42.5425 105.334 42.2778 105.334 42.0019C105.334 41.7261 105.444 41.4615 105.639 41.2665C105.834 41.0714 106.099 40.9618 106.375 40.9618C106.65 40.9618 106.915 41.0714 107.11 41.2665C107.305 41.4615 107.415 41.7261 107.415 42.0019ZM120.567 42.0019C120.567 42.2779 120.458 42.5427 120.263 42.7378C120.067 42.933 119.803 43.0427 119.527 43.0427C119.251 43.0427 118.986 42.933 118.791 42.7378C118.595 42.5427 118.486 42.2779 118.486 42.0019C118.486 41.726 118.595 41.4613 118.791 41.2662C118.986 41.0711 119.25 40.9615 119.526 40.9615C119.802 40.9615 120.067 41.0711 120.262 41.2662C120.457 41.4613 120.567 41.726 120.567 42.0019ZM133.719 42.0019C133.719 42.2778 133.609 42.5423 133.414 42.7374C133.219 42.9324 132.955 43.042 132.679 43.042C132.403 43.042 132.138 42.9324 131.943 42.7374C131.748 42.5423 131.639 42.2778 131.639 42.0019C131.639 41.7261 131.748 41.4615 131.943 41.2665C132.138 41.0714 132.403 40.9618 132.679 40.9618C132.955 40.9618 133.219 41.0714 133.414 41.2665C133.609 41.4615 133.719 41.7261 133.719 42.0019ZM146.871 42.0019C146.871 42.2778 146.761 42.5425 146.566 42.7376C146.371 42.9327 146.106 43.0423 145.83 43.0423C145.554 43.0423 145.29 42.9327 145.095 42.7376C144.9 42.5425 144.79 42.2778 144.79 42.0019C144.79 41.726 144.9 41.4613 145.095 41.2662C145.29 41.0711 145.554 40.9615 145.83 40.9615C146.106 40.9615 146.371 41.0711 146.566 41.2662C146.761 41.4613 146.871 41.726 146.871 42.0019ZM2.19948 55.3308C2.19948 55.6066 2.0899 55.8712 1.89485 56.0662C1.6998 56.2613 1.43525 56.3709 1.1594 56.3709C0.883558 56.3709 0.619005 56.2613 0.423954 56.0662C0.228902 55.8712 0.11933 55.6066 0.11933 55.3308C0.11933 55.0549 0.228902 54.7904 0.423954 54.5954C0.619005 54.4003 0.883558 54.2907 1.1594 54.2907C1.43525 54.2907 1.6998 54.4003 1.89485 54.5954C2.0899 54.7904 2.19948 55.0549 2.19948 55.3308ZM15.3508 55.3308C15.3508 55.6066 15.2413 55.8712 15.0462 56.0662C14.8512 56.2613 14.5866 56.3709 14.3108 56.3709C14.0349 56.3709 13.7704 56.2613 13.5754 56.0662C13.3803 55.8712 13.2707 55.6066 13.2707 55.3308C13.2707 55.0549 13.3803 54.7904 13.5754 54.5954C13.7704 54.4003 14.0349 54.2907 14.3108 54.2907C14.5866 54.2907 14.8512 54.4003 15.0462 54.5954C15.2413 54.7904 15.3508 55.0549 15.3508 55.3308ZM28.5029 55.3308C28.5029 55.6066 28.3933 55.8712 28.1983 56.0662C28.0032 56.2613 27.7387 56.3709 27.4628 56.3709C27.187 56.3709 26.9224 56.2613 26.7274 56.0662C26.5323 55.8712 26.4228 55.6066 26.4228 55.3308C26.4228 55.0549 26.5323 54.7904 26.7274 54.5954C26.9224 54.4003 27.187 54.2907 27.4628 54.2907C27.7387 54.2907 28.0032 54.4003 28.1983 54.5954C28.3933 54.7904 28.5029 55.0549 28.5029 55.3308ZM41.655 55.3308C41.655 55.6066 41.5454 55.8712 41.3504 56.0662C41.1553 56.2613 40.8908 56.3709 40.6149 56.3709C40.3391 56.3709 40.0745 56.2613 39.8795 56.0662C39.6844 55.8712 39.5748 55.6066 39.5748 55.3308C39.5748 55.0549 39.6844 54.7904 39.8795 54.5954C40.0745 54.4003 40.3391 54.2907 40.6149 54.2907C40.8908 54.2907 41.1553 54.4003 41.3504 54.5954C41.5454 54.7904 41.655 55.0549 41.655 55.3308ZM54.8071 55.3308C54.8071 55.6066 54.6975 55.8712 54.5024 56.0662C54.3074 56.2613 54.0428 56.3709 53.767 56.3709C53.4912 56.3709 53.2266 56.2613 53.0316 56.0662C52.8365 55.8712 52.7269 55.6066 52.7269 55.3308C52.7269 55.0549 52.8365 54.7904 53.0316 54.5954C53.2266 54.4003 53.4912 54.2907 53.767 54.2907C54.0428 54.2907 54.3074 54.4003 54.5024 54.5954C54.6975 54.7904 54.8071 55.0549 54.8071 55.3308ZM67.9584 55.3308C67.9636 55.4705 67.9405 55.6098 67.8906 55.7403C67.8407 55.8709 67.7651 55.9901 67.6681 56.0908C67.5711 56.1914 67.4548 56.2715 67.3262 56.3262C67.1975 56.3809 67.0592 56.4091 66.9194 56.4092C66.7796 56.4092 66.6413 56.3811 66.5126 56.3265C66.3839 56.2718 66.2676 56.1918 66.1706 56.0912C66.0735 55.9906 65.9977 55.8715 65.9477 55.741C65.8978 55.6104 65.8746 55.4712 65.8797 55.3315C65.8894 55.0624 66.0031 54.8076 66.1969 54.6206C66.3907 54.4336 66.6494 54.3291 66.9187 54.329C67.188 54.3289 67.4468 54.4333 67.6407 54.6201C67.8346 54.8069 67.9485 55.0617 67.9584 55.3308ZM81.1105 55.3308C81.1157 55.4705 81.0926 55.6098 81.0427 55.7403C80.9928 55.8709 80.9171 55.9901 80.8201 56.0908C80.7231 56.1914 80.6069 56.2715 80.4782 56.3262C80.3496 56.3809 80.2113 56.4091 80.0715 56.4092C79.9317 56.4092 79.7933 56.3811 79.6647 56.3265C79.536 56.2718 79.4197 56.1918 79.3226 56.0912C79.2256 55.9906 79.1498 55.8715 79.0998 55.741C79.0498 55.6104 79.0267 55.4712 79.0317 55.3315C79.0415 55.0624 79.1552 54.8076 79.349 54.6206C79.5428 54.4336 79.8015 54.3291 80.0708 54.329C80.34 54.3289 80.5989 54.4333 80.7928 54.6201C80.9867 54.8069 81.1006 55.0617 81.1105 55.3308ZM94.2633 55.3308C94.2633 55.6066 94.1537 55.8712 93.9586 56.0662C93.7636 56.2613 93.499 56.3709 93.2232 56.3709C92.9473 56.3709 92.6828 56.2613 92.4877 56.0662C92.2927 55.8712 92.1831 55.6066 92.1831 55.3308C92.1831 55.0549 92.2927 54.7904 92.4877 54.5954C92.6828 54.4003 92.9473 54.2907 93.2232 54.2907C93.499 54.2907 93.7636 54.4003 93.9586 54.5954C94.1537 54.7904 94.2633 55.0549 94.2633 55.3308ZM107.415 55.3308C107.415 55.6066 107.306 55.8712 107.111 56.0662C106.916 56.2613 106.651 56.3709 106.375 56.3709C106.099 56.3709 105.835 56.2613 105.64 56.0662C105.445 55.8712 105.335 55.6066 105.335 55.3308C105.335 55.0549 105.445 54.7904 105.64 54.5954C105.835 54.4003 106.099 54.2907 106.375 54.2907C106.651 54.2907 106.916 54.4003 107.111 54.5954C107.306 54.7904 107.415 55.0549 107.415 55.3308ZM120.567 55.3308C120.567 55.6066 120.458 55.8712 120.263 56.0662C120.068 56.2613 119.803 56.3709 119.527 56.3709C119.251 56.3709 118.987 56.2613 118.792 56.0662C118.597 55.8712 118.487 55.6066 118.487 55.3308C118.487 55.0549 118.597 54.7904 118.792 54.5954C118.987 54.4003 119.251 54.2907 119.527 54.2907C119.803 54.2907 120.068 54.4003 120.263 54.5954C120.458 54.7904 120.567 55.0549 120.567 55.3308ZM133.719 55.3308C133.719 55.6066 133.609 55.8712 133.414 56.0662C133.219 56.2613 132.955 56.3709 132.679 56.3709C132.403 56.3709 132.138 56.2613 131.943 56.0662C131.748 55.8712 131.639 55.6066 131.639 55.3308C131.639 55.0549 131.748 54.7904 131.943 54.5954C132.138 54.4003 132.403 54.2907 132.679 54.2907C132.955 54.2907 133.219 54.4003 133.414 54.5954C133.609 54.7904 133.719 55.0549 133.719 55.3308ZM146.871 55.3308C146.871 55.6066 146.761 55.8712 146.566 56.0662C146.371 56.2613 146.107 56.3709 145.831 56.3709C145.555 56.3709 145.29 56.2613 145.095 56.0662C144.9 55.8712 144.791 55.6066 144.791 55.3308C144.791 55.0549 144.9 54.7904 145.095 54.5954C145.29 54.4003 145.555 54.2907 145.831 54.2907C146.107 54.2907 146.371 54.4003 146.566 54.5954C146.761 54.7904 146.871 55.0549 146.871 55.3308ZM2.19948 68.6604C2.19943 68.797 2.17249 68.9323 2.12017 69.0585C2.06784 69.1847 1.99116 69.2993 1.89451 69.3959C1.79787 69.4925 1.68312 69.5691 1.55688 69.6214C1.43063 69.6736 1.29536 69.7005 1.15873 69.7004C1.0221 69.7004 0.886784 69.6734 0.760572 69.6211C0.63436 69.5688 0.519729 69.4921 0.42315 69.3955C0.32657 69.2988 0.249951 69.1841 0.197707 69.0578C0.145464 68.9316 0.118607 68.7963 0.118652 68.6597C0.118652 68.3838 0.228225 68.1193 0.423277 67.9242C0.618328 67.7292 0.882881 67.6196 1.15873 67.6196C1.43457 67.6196 1.69912 67.7292 1.89417 67.9242C2.08923 68.1193 2.1988 68.3838 2.1988 68.6597L2.19948 68.6604ZM15.3508 68.6604C15.3507 68.9362 15.2411 69.2007 15.046 69.3957C14.8509 69.5907 14.5863 69.7002 14.3104 69.7001C14.0346 69.7 13.7701 69.5903 13.5751 69.3952C13.3801 69.2001 13.2706 68.9355 13.2707 68.6597C13.2707 68.3838 13.3803 68.1193 13.5754 67.9242C13.7704 67.7292 14.0349 67.6196 14.3108 67.6196C14.5866 67.6196 14.8512 67.7292 15.0462 67.9242C15.2413 68.1193 15.3508 68.3845 15.3508 68.6604ZM28.5029 68.6604C28.5029 68.797 28.4759 68.9323 28.4236 69.0585C28.3713 69.1847 28.2946 69.2993 28.198 69.3959C28.1013 69.4925 27.9866 69.5691 27.8603 69.6214C27.7341 69.6736 27.5988 69.7005 27.4622 69.7004C27.3255 69.7004 27.1902 69.6734 27.064 69.6211C26.9378 69.5688 26.8232 69.4921 26.7266 69.3955C26.63 69.2988 26.5534 69.1841 26.5011 69.0578C26.4489 68.9316 26.422 68.7963 26.4221 68.6597C26.4221 68.3837 26.5317 68.1191 26.7268 67.924C26.9219 67.7289 27.1866 67.6193 27.4625 67.6193C27.7384 67.6193 28.0031 67.7289 28.1982 67.924C28.3933 68.1191 28.5029 68.3844 28.5029 68.6604ZM41.655 68.6604C41.6549 68.797 41.628 68.9323 41.5756 69.0585C41.5233 69.1847 41.4467 69.2993 41.35 69.3959C41.2534 69.4925 41.1386 69.5691 41.0124 69.6214C40.8862 69.6736 40.7509 69.7005 40.6142 69.7004C40.4776 69.7004 40.3423 69.6734 40.2161 69.6211C40.0899 69.5688 39.9752 69.4921 39.8786 69.3955C39.782 69.2988 39.7055 69.1841 39.6532 69.0578C39.601 68.9316 39.5741 68.7963 39.5742 68.6597C39.5742 68.3838 39.6837 68.1193 39.8788 67.9242C40.0738 67.7292 40.3384 67.6196 40.6142 67.6196C40.8901 67.6196 41.1546 67.7292 41.3496 67.9242C41.5447 68.1193 41.6543 68.3838 41.6543 68.6597L41.655 68.6604ZM54.8071 68.6604C54.807 68.797 54.78 68.9323 54.7277 69.0585C54.6754 69.1847 54.5987 69.2993 54.5021 69.3959C54.4054 69.4925 54.2907 69.5691 54.1645 69.6214C54.0382 69.6736 53.9029 69.7005 53.7663 69.7004C53.6297 69.7004 53.4944 69.6734 53.3682 69.6211C53.242 69.5688 53.1273 69.4921 53.0307 69.3955C52.9341 69.2988 52.8575 69.1841 52.8053 69.0578C52.753 68.9316 52.7262 68.7963 52.7262 68.6597C52.7262 68.3838 52.8358 68.1193 53.0308 67.9242C53.2259 67.7292 53.4904 67.6196 53.7663 67.6196C54.0421 67.6196 54.3067 67.7292 54.5017 67.9242C54.6968 68.1193 54.8064 68.3838 54.8064 68.6597L54.8071 68.6604ZM67.9584 68.6604C67.9584 68.9362 67.8489 69.2008 67.6538 69.3958C67.4588 69.5909 67.1942 69.7004 66.9184 69.7004C66.6425 69.7004 66.378 69.5909 66.1829 69.3958C65.9879 69.2008 65.8783 68.9362 65.8783 68.6604C65.8783 68.3845 65.9879 68.12 66.1829 67.9249C66.378 67.7299 66.6425 67.6203 66.9184 67.6203C67.1942 67.6203 67.4588 67.7299 67.6538 67.9249C67.8489 68.12 67.9584 68.3845 67.9584 68.6604ZM81.1105 68.6604C81.1105 68.9362 81.0009 69.2008 80.8059 69.3958C80.6108 69.5909 80.3463 69.7004 80.0704 69.7004C79.7946 69.7004 79.53 69.5909 79.335 69.3958C79.1399 69.2008 79.0304 68.9362 79.0304 68.6604C79.0304 68.3845 79.1399 68.12 79.335 67.9249C79.53 67.7299 79.7946 67.6203 80.0704 67.6203C80.3463 67.6203 80.6108 67.7299 80.8059 67.9249C81.0009 68.12 81.1105 68.3845 81.1105 68.6604ZM94.2633 68.6604C94.2632 68.9363 94.1534 69.2009 93.9583 69.3959C93.7631 69.591 93.4984 69.7005 93.2225 69.7004C92.9465 69.7003 92.682 69.5906 92.4869 69.3955C92.2918 69.2003 92.1823 68.9356 92.1824 68.6597C92.1824 68.3837 92.292 68.1191 92.4872 67.924C92.6823 67.7289 92.9469 67.6193 93.2229 67.6193C93.4988 67.6193 93.7634 67.7289 93.9585 67.924C94.1536 68.1191 94.2633 68.3844 94.2633 68.6604ZM107.415 68.6604C107.415 68.9363 107.306 69.2009 107.11 69.3959C106.915 69.591 106.65 69.7005 106.375 69.7004C106.099 69.7003 105.834 69.5906 105.639 69.3955C105.444 69.2003 105.334 68.9356 105.334 68.6597C105.334 68.3838 105.444 68.1193 105.639 67.9242C105.834 67.7292 106.099 67.6196 106.375 67.6196C106.65 67.6196 106.915 67.7292 107.11 67.9242C107.305 68.1193 107.415 68.3838 107.415 68.6597L107.415 68.6604ZM120.567 68.6604C120.567 68.9364 120.458 69.2011 120.262 69.3962C120.067 69.5913 119.802 69.7009 119.526 69.7008C119.25 69.7007 118.986 69.591 118.79 69.3957C118.595 69.2005 118.486 68.9357 118.486 68.6597C118.486 68.3837 118.595 68.1191 118.791 67.924C118.986 67.7289 119.25 67.6193 119.526 67.6193C119.802 67.6193 120.067 67.7289 120.262 67.924C120.457 68.1191 120.567 68.3837 120.567 68.6597L120.567 68.6604ZM133.719 68.6604C133.719 68.7969 133.692 68.9322 133.639 69.0583C133.587 69.1845 133.511 69.2992 133.414 69.3957C133.317 69.4923 133.203 69.5688 133.076 69.621C132.95 69.6733 132.815 69.7001 132.678 69.7001C132.542 69.7 132.407 69.6731 132.28 69.6208C132.154 69.5685 132.04 69.4918 131.943 69.3952C131.846 69.2986 131.77 69.1839 131.718 69.0577C131.665 68.9315 131.639 68.7963 131.639 68.6597C131.639 68.3838 131.748 68.1193 131.943 67.9242C132.138 67.7292 132.403 67.6196 132.679 67.6196C132.955 67.6196 133.219 67.7292 133.414 67.9242C133.609 68.1193 133.719 68.3845 133.719 68.6604ZM146.871 68.6604C146.871 68.9363 146.761 69.2009 146.566 69.3959C146.371 69.591 146.106 69.7005 145.83 69.7004C145.554 69.7003 145.29 69.5906 145.094 69.3955C144.899 69.2003 144.79 68.9356 144.79 68.6597C144.79 68.3837 144.9 68.1191 145.095 67.924C145.29 67.7289 145.554 67.6193 145.83 67.6193C146.106 67.6193 146.371 67.7289 146.566 67.924C146.761 68.1191 146.871 68.3844 146.871 68.6604ZM2.19948 81.9893C2.19948 82.2651 2.0899 82.5296 1.89485 82.7247C1.6998 82.9197 1.43525 83.0293 1.1594 83.0293C0.883558 83.0293 0.619005 82.9197 0.423954 82.7247C0.228902 82.5296 0.11933 82.2651 0.11933 81.9893C0.11933 81.7134 0.228902 81.4489 0.423954 81.2538C0.619005 81.0587 0.883558 80.9492 1.1594 80.9492C1.43525 80.9492 1.6998 81.0587 1.89485 81.2538C2.0899 81.4489 2.19948 81.7134 2.19948 81.9893ZM15.3508 81.9893C15.3508 82.2651 15.2413 82.5296 15.0462 82.7247C14.8512 82.9197 14.5866 83.0293 14.3108 83.0293C14.0349 83.0293 13.7704 82.9197 13.5754 82.7247C13.3803 82.5296 13.2707 82.2651 13.2707 81.9893C13.2707 81.7134 13.3803 81.4489 13.5754 81.2538C13.7704 81.0587 14.0349 80.9492 14.3108 80.9492C14.5866 80.9492 14.8512 81.0587 15.0462 81.2538C15.2413 81.4489 15.3508 81.7134 15.3508 81.9893ZM28.5029 81.9893C28.5029 82.2651 28.3933 82.5296 28.1983 82.7247C28.0032 82.9197 27.7387 83.0293 27.4628 83.0293C27.187 83.0293 26.9224 82.9197 26.7274 82.7247C26.5323 82.5296 26.4228 82.2651 26.4228 81.9893C26.4228 81.7134 26.5323 81.4489 26.7274 81.2538C26.9224 81.0587 27.187 80.9492 27.4628 80.9492C27.7387 80.9492 28.0032 81.0587 28.1983 81.2538C28.3933 81.4489 28.5029 81.7134 28.5029 81.9893ZM41.655 81.9893C41.655 82.2651 41.5454 82.5296 41.3504 82.7247C41.1553 82.9197 40.8908 83.0293 40.6149 83.0293C40.3391 83.0293 40.0745 82.9197 39.8795 82.7247C39.6844 82.5296 39.5748 82.2651 39.5748 81.9893C39.5748 81.7134 39.6844 81.4489 39.8795 81.2538C40.0745 81.0587 40.3391 80.9492 40.6149 80.9492C40.8908 80.9492 41.1553 81.0587 41.3504 81.2538C41.5454 81.4489 41.655 81.7134 41.655 81.9893ZM54.8071 81.9893C54.8071 82.2651 54.6975 82.5296 54.5024 82.7247C54.3074 82.9197 54.0428 83.0293 53.767 83.0293C53.4912 83.0293 53.2266 82.9197 53.0316 82.7247C52.8365 82.5296 52.7269 82.2651 52.7269 81.9893C52.7269 81.7134 52.8365 81.4489 53.0316 81.2538C53.2266 81.0587 53.4912 80.9492 53.767 80.9492C54.0428 80.9492 54.3074 81.0587 54.5024 81.2538C54.6975 81.4489 54.8071 81.7134 54.8071 81.9893ZM67.9584 81.9893C67.9635 82.1289 67.9404 82.2682 67.8905 82.3988C67.8406 82.5293 67.7648 82.6485 67.6678 82.7491C67.5708 82.8497 67.4545 82.9297 67.3258 82.9844C67.1972 83.0391 67.0588 83.0673 66.919 83.0673C66.7793 83.0673 66.6409 83.0391 66.5123 82.9844C66.3836 82.9297 66.2673 82.8497 66.1703 82.7491C66.0733 82.6485 65.9975 82.5293 65.9476 82.3988C65.8977 82.2682 65.8746 82.1289 65.8797 81.9893C65.8895 81.7202 66.0033 81.4654 66.1972 81.2785C66.391 81.0916 66.6498 80.9871 66.919 80.9871C67.1883 80.9871 67.4471 81.0916 67.6409 81.2785C67.8348 81.4654 67.9486 81.7202 67.9584 81.9893ZM81.1105 81.9893C81.1156 82.1289 81.0925 82.2682 81.0425 82.3988C80.9926 82.5293 80.9169 82.6485 80.8199 82.7491C80.7228 82.8497 80.6065 82.9297 80.4779 82.9844C80.3493 83.0391 80.2109 83.0673 80.0711 83.0673C79.9313 83.0673 79.793 83.0391 79.6643 82.9844C79.5357 82.9297 79.4194 82.8497 79.3224 82.7491C79.2254 82.6485 79.1496 82.5293 79.0997 82.3988C79.0498 82.2682 79.0266 82.1289 79.0317 81.9893C79.0415 81.7202 79.1554 81.4654 79.3492 81.2785C79.5431 81.0916 79.8018 80.9871 80.0711 80.9871C80.3404 80.9871 80.5992 81.0916 80.793 81.2785C80.9869 81.4654 81.1007 81.7202 81.1105 81.9893ZM94.2633 81.9893C94.2633 82.2651 94.1537 82.5296 93.9586 82.7247C93.7636 82.9197 93.499 83.0293 93.2232 83.0293C92.9473 83.0293 92.6828 82.9197 92.4877 82.7247C92.2927 82.5296 92.1831 82.2651 92.1831 81.9893C92.1831 81.7134 92.2927 81.4489 92.4877 81.2538C92.6828 81.0587 92.9473 80.9492 93.2232 80.9492C93.499 80.9492 93.7636 81.0587 93.9586 81.2538C94.1537 81.4489 94.2633 81.7134 94.2633 81.9893ZM107.415 81.9893C107.415 82.2651 107.306 82.5296 107.111 82.7247C106.916 82.9197 106.651 83.0293 106.375 83.0293C106.099 83.0293 105.835 82.9197 105.64 82.7247C105.445 82.5296 105.335 82.2651 105.335 81.9893C105.335 81.7134 105.445 81.4489 105.64 81.2538C105.835 81.0587 106.099 80.9492 106.375 80.9492C106.651 80.9492 106.916 81.0587 107.111 81.2538C107.306 81.4489 107.415 81.7134 107.415 81.9893ZM120.567 81.9893C120.567 82.2651 120.458 82.5296 120.263 82.7247C120.068 82.9197 119.803 83.0293 119.527 83.0293C119.251 83.0293 118.987 82.9197 118.792 82.7247C118.597 82.5296 118.487 82.2651 118.487 81.9893C118.487 81.7134 118.597 81.4489 118.792 81.2538C118.987 81.0587 119.251 80.9492 119.527 80.9492C119.803 80.9492 120.068 81.0587 120.263 81.2538C120.458 81.4489 120.567 81.7134 120.567 81.9893ZM133.719 81.9893C133.719 82.2651 133.609 82.5296 133.414 82.7247C133.219 82.9197 132.955 83.0293 132.679 83.0293C132.403 83.0293 132.138 82.9197 131.943 82.7247C131.748 82.5296 131.639 82.2651 131.639 81.9893C131.639 81.7134 131.748 81.4489 131.943 81.2538C132.138 81.0587 132.403 80.9492 132.679 80.9492C132.955 80.9492 133.219 81.0587 133.414 81.2538C133.609 81.4489 133.719 81.7134 133.719 81.9893ZM146.871 81.9893C146.871 82.2651 146.761 82.5296 146.566 82.7247C146.371 82.9197 146.107 83.0293 145.831 83.0293C145.555 83.0293 145.29 82.9197 145.095 82.7247C144.9 82.5296 144.791 82.2651 144.791 81.9893C144.791 81.7134 144.9 81.4489 145.095 81.2538C145.29 81.0587 145.555 80.9492 145.831 80.9492C146.107 80.9492 146.371 81.0587 146.566 81.2538C146.761 81.4489 146.871 81.7134 146.871 81.9893ZM2.19948 95.3181C2.19943 95.4547 2.17249 95.59 2.12017 95.7163C2.06784 95.8425 1.99116 95.9571 1.89451 96.0537C1.79787 96.1503 1.68312 96.2269 1.55688 96.2791C1.43063 96.3314 1.29536 96.3582 1.15873 96.3582C1.0221 96.3581 0.886784 96.3312 0.760572 96.2789C0.63436 96.2265 0.519729 96.1499 0.42315 96.0532C0.32657 95.9566 0.249951 95.8419 0.197707 95.7156C0.145464 95.5894 0.118607 95.4541 0.118652 95.3174C0.118744 95.0416 0.228414 94.7771 0.423531 94.5821C0.618647 94.3871 0.883219 94.2776 1.15906 94.2777C1.43491 94.2778 1.6994 94.3875 1.89439 94.5826C2.08937 94.7777 2.19957 95.0423 2.19948 95.3181ZM15.3508 95.3181C15.3507 95.5939 15.2411 95.8585 15.046 96.0535C14.8509 96.2485 14.5863 96.3579 14.3104 96.3578C14.0346 96.3577 13.7701 96.2481 13.5751 96.053C13.3801 95.8578 13.2706 95.5933 13.2707 95.3174C13.2708 95.0416 13.3805 94.7771 13.5756 94.5821C13.7707 94.3871 14.0353 94.2776 14.3111 94.2777C14.587 94.2778 14.8515 94.3875 15.0465 94.5826C15.2415 94.7777 15.3509 95.0423 15.3508 95.3181ZM28.5029 95.3181C28.5029 95.4547 28.4759 95.59 28.4236 95.7163C28.3713 95.8425 28.2946 95.9571 28.198 96.0537C28.1013 96.1503 27.9866 96.2269 27.8603 96.2791C27.7341 96.3314 27.5988 96.3582 27.4622 96.3582C27.3255 96.3581 27.1902 96.3312 27.064 96.2789C26.9378 96.2265 26.8232 96.1499 26.7266 96.0532C26.63 95.9566 26.5534 95.8419 26.5011 95.7156C26.4489 95.5894 26.422 95.4541 26.4221 95.3174C26.4222 95.0415 26.5319 94.7769 26.7271 94.5818C26.9222 94.3868 27.1869 94.2773 27.4628 94.2774C27.7388 94.2774 28.0034 94.3871 28.1984 94.5823C28.3935 94.7775 28.503 95.0422 28.5029 95.3181ZM41.655 95.3181C41.6549 95.4547 41.628 95.59 41.5756 95.7163C41.5233 95.8425 41.4467 95.9571 41.35 96.0537C41.2534 96.1503 41.1386 96.2269 41.0124 96.2791C40.8862 96.3314 40.7509 96.3582 40.6142 96.3582C40.4776 96.3581 40.3423 96.3312 40.2161 96.2789C40.0899 96.2265 39.9752 96.1499 39.8786 96.0532C39.782 95.9566 39.7055 95.8419 39.6532 95.7156C39.601 95.5894 39.5741 95.4541 39.5742 95.3174C39.5743 95.0416 39.6839 94.7771 39.879 94.5821C40.0741 94.3871 40.3387 94.2776 40.6146 94.2777C40.8904 94.2778 41.1549 94.3875 41.3499 94.5826C41.5449 94.7777 41.6551 95.0423 41.655 95.3181ZM54.8071 95.3181C54.807 95.4547 54.78 95.59 54.7277 95.7163C54.6754 95.8425 54.5987 95.9571 54.5021 96.0537C54.4054 96.1503 54.2907 96.2269 54.1645 96.2791C54.0382 96.3314 53.9029 96.3582 53.7663 96.3582C53.6297 96.3581 53.4944 96.3312 53.3682 96.2789C53.242 96.2265 53.1273 96.1499 53.0307 96.0532C52.9341 95.9566 52.8575 95.8419 52.8053 95.7156C52.753 95.5894 52.7262 95.4541 52.7262 95.3174C52.7263 95.0416 52.836 94.7771 53.0311 94.5821C53.2262 94.3871 53.4908 94.2776 53.7666 94.2777C54.0425 94.2778 54.307 94.3875 54.502 94.5826C54.697 94.7777 54.8064 95.0423 54.8064 95.3181H54.8071ZM67.9584 95.3181C67.9584 95.5939 67.8489 95.8585 67.6538 96.0536C67.4588 96.2486 67.1942 96.3582 66.9184 96.3582C66.6425 96.3582 66.378 96.2486 66.1829 96.0536C65.9879 95.8585 65.8783 95.5939 65.8783 95.3181C65.8783 95.0423 65.9879 94.7777 66.1829 94.5827C66.378 94.3876 66.6425 94.278 66.9184 94.278C67.1942 94.278 67.4588 94.3876 67.6538 94.5827C67.8489 94.7777 67.9584 95.0423 67.9584 95.3181ZM81.1105 95.3181C81.1105 95.5939 81.0009 95.8585 80.8059 96.0536C80.6108 96.2486 80.3463 96.3582 80.0704 96.3582C79.7946 96.3582 79.53 96.2486 79.335 96.0536C79.1399 95.8585 79.0304 95.5939 79.0304 95.3181C79.0304 95.0423 79.1399 94.7777 79.335 94.5827C79.53 94.3876 79.7946 94.278 80.0704 94.278C80.3463 94.278 80.6108 94.3876 80.8059 94.5827C81.0009 94.7777 81.1105 95.0423 81.1105 95.3181ZM94.2633 95.3181C94.2632 95.594 94.1534 95.8587 93.9583 96.0537C93.7631 96.2488 93.4984 96.3583 93.2225 96.3582C92.9465 96.3581 92.682 96.2484 92.4869 96.0532C92.2918 95.858 92.1823 95.5934 92.1824 95.3174C92.1824 95.1808 92.2094 95.0455 92.2617 94.9193C92.3141 94.7931 92.3908 94.6784 92.4874 94.5818C92.5841 94.4853 92.6988 94.4086 92.825 94.3564C92.9512 94.3042 93.0866 94.2773 93.2232 94.2774C93.3598 94.2774 93.4951 94.3044 93.6213 94.3567C93.7475 94.409 93.8622 94.4857 93.9588 94.5823C94.0554 94.679 94.132 94.7937 94.1842 94.9199C94.2365 95.0462 94.2633 95.1815 94.2633 95.3181ZM107.415 95.3181C107.415 95.594 107.306 95.8587 107.11 96.0537C106.915 96.2488 106.65 96.3583 106.375 96.3582C106.099 96.3581 105.834 96.2484 105.639 96.0532C105.444 95.858 105.334 95.5934 105.334 95.3174C105.335 95.0416 105.444 94.7771 105.639 94.5821C105.834 94.3871 106.099 94.2776 106.375 94.2777C106.651 94.2778 106.915 94.3875 107.11 94.5826C107.305 94.7777 107.415 95.0423 107.415 95.3181ZM120.567 95.3181C120.567 95.5941 120.458 95.8588 120.262 96.0539C120.067 96.249 119.802 96.3586 119.526 96.3586C119.25 96.3585 118.986 96.2487 118.79 96.0535C118.595 95.8582 118.486 95.5935 118.486 95.3174C118.486 95.1808 118.513 95.0455 118.565 94.9193C118.618 94.7931 118.694 94.6784 118.791 94.5818C118.887 94.4853 119.002 94.4086 119.128 94.3564C119.255 94.3042 119.39 94.2773 119.527 94.2774C119.663 94.2774 119.799 94.3044 119.925 94.3567C120.051 94.409 120.166 94.4857 120.262 94.5823C120.359 94.679 120.435 94.7937 120.488 94.9199C120.54 95.0462 120.567 95.1815 120.567 95.3181ZM133.719 95.3181C133.719 95.4547 133.692 95.59 133.639 95.7161C133.587 95.8423 133.511 95.9569 133.414 96.0535C133.317 96.15 133.203 96.2266 133.076 96.2788C132.95 96.331 132.815 96.3579 132.678 96.3578C132.542 96.3578 132.407 96.3308 132.28 96.2785C132.154 96.2262 132.04 96.1496 131.943 96.053C131.846 95.9563 131.77 95.8417 131.718 95.7154C131.665 95.5892 131.639 95.454 131.639 95.3174C131.639 95.0416 131.748 94.7771 131.943 94.5821C132.139 94.3871 132.403 94.2776 132.679 94.2777C132.955 94.2778 133.219 94.3875 133.414 94.5826C133.609 94.7777 133.719 95.0423 133.719 95.3181ZM146.871 95.3181C146.871 95.594 146.761 95.8587 146.566 96.0537C146.371 96.2488 146.106 96.3583 145.83 96.3582C145.554 96.3581 145.29 96.2484 145.094 96.0532C144.899 95.858 144.79 95.5934 144.79 95.3174C144.79 95.1808 144.817 95.0455 144.869 94.9193C144.922 94.7931 144.998 94.6784 145.095 94.5818C145.192 94.4853 145.306 94.4086 145.433 94.3564C145.559 94.3042 145.694 94.2773 145.831 94.2774C145.967 94.2774 146.103 94.3044 146.229 94.3567C146.355 94.409 146.47 94.4857 146.566 94.5823C146.663 94.679 146.74 94.7937 146.792 94.9199C146.844 95.0462 146.871 95.1815 146.871 95.3181ZM2.19948 108.647C2.19943 108.784 2.17249 108.919 2.12017 109.045C2.06784 109.171 1.99116 109.286 1.89451 109.383C1.79787 109.479 1.68312 109.556 1.55688 109.608C1.43063 109.66 1.29536 109.687 1.15873 109.687C1.0221 109.687 0.886784 109.66 0.760572 109.608C0.63436 109.555 0.519729 109.479 0.42315 109.382C0.32657 109.285 0.249951 109.171 0.197707 109.044C0.145464 108.918 0.118607 108.783 0.118652 108.646C0.118652 108.37 0.228225 108.106 0.423277 107.911C0.618328 107.716 0.882881 107.606 1.15873 107.606C1.43457 107.606 1.69912 107.716 1.89417 107.911C2.08923 108.106 2.1988 108.37 2.1988 108.646L2.19948 108.647ZM15.3508 108.647C15.3507 108.923 15.2411 109.187 15.046 109.382C14.8509 109.577 14.5863 109.687 14.3104 109.687C14.0346 109.687 13.7701 109.577 13.5751 109.382C13.3801 109.187 13.2706 108.922 13.2707 108.646C13.2707 108.37 13.3803 108.106 13.5754 107.911C13.7704 107.716 14.0349 107.606 14.3108 107.606C14.5866 107.606 14.8512 107.716 15.0462 107.911C15.2413 108.106 15.3508 108.371 15.3508 108.647ZM28.5029 108.647C28.5029 108.784 28.4759 108.919 28.4236 109.045C28.3713 109.171 28.2946 109.286 28.198 109.383C28.1013 109.479 27.9866 109.556 27.8603 109.608C27.7341 109.66 27.5988 109.687 27.4622 109.687C27.3255 109.687 27.1902 109.66 27.064 109.608C26.9378 109.555 26.8232 109.479 26.7266 109.382C26.63 109.285 26.5534 109.171 26.5011 109.044C26.4489 108.918 26.422 108.783 26.4221 108.646C26.4221 108.37 26.5317 108.106 26.7268 107.911C26.9219 107.715 27.1866 107.606 27.4625 107.606C27.7384 107.606 28.0031 107.715 28.1982 107.911C28.3933 108.106 28.5029 108.371 28.5029 108.647ZM41.655 108.647C41.6549 108.784 41.628 108.919 41.5756 109.045C41.5233 109.171 41.4467 109.286 41.35 109.383C41.2534 109.479 41.1386 109.556 41.0124 109.608C40.8862 109.66 40.7509 109.687 40.6142 109.687C40.4776 109.687 40.3423 109.66 40.2161 109.608C40.0899 109.555 39.9752 109.479 39.8786 109.382C39.782 109.285 39.7055 109.171 39.6532 109.044C39.601 108.918 39.5741 108.783 39.5742 108.646C39.5742 108.37 39.6837 108.106 39.8788 107.911C40.0738 107.716 40.3384 107.606 40.6142 107.606C40.8901 107.606 41.1546 107.716 41.3496 107.911C41.5447 108.106 41.6543 108.37 41.6543 108.646L41.655 108.647ZM54.8071 108.647C54.807 108.784 54.78 108.919 54.7277 109.045C54.6754 109.171 54.5987 109.286 54.5021 109.383C54.4054 109.479 54.2907 109.556 54.1645 109.608C54.0382 109.66 53.9029 109.687 53.7663 109.687C53.6297 109.687 53.4944 109.66 53.3682 109.608C53.242 109.555 53.1273 109.479 53.0307 109.382C52.9341 109.285 52.8575 109.171 52.8053 109.044C52.753 108.918 52.7262 108.783 52.7262 108.646C52.7262 108.37 52.8358 108.106 53.0308 107.911C53.2259 107.716 53.4904 107.606 53.7663 107.606C54.0421 107.606 54.3067 107.716 54.5017 107.911C54.6968 108.106 54.8064 108.37 54.8064 108.646L54.8071 108.647ZM67.9584 108.647C67.9584 108.923 67.8489 109.187 67.6538 109.382C67.4588 109.577 67.1942 109.687 66.9184 109.687C66.6425 109.687 66.378 109.577 66.1829 109.382C65.9879 109.187 65.8783 108.923 65.8783 108.647C65.8783 108.371 65.9879 108.107 66.1829 107.912C66.378 107.716 66.6425 107.607 66.9184 107.607C67.1942 107.607 67.4588 107.716 67.6538 107.912C67.8489 108.107 67.9584 108.371 67.9584 108.647ZM81.1105 108.647C81.1105 108.923 81.0009 109.187 80.8059 109.382C80.6108 109.577 80.3463 109.687 80.0704 109.687C79.7946 109.687 79.53 109.577 79.335 109.382C79.1399 109.187 79.0304 108.923 79.0304 108.647C79.0304 108.371 79.1399 108.107 79.335 107.912C79.53 107.716 79.7946 107.607 80.0704 107.607C80.3463 107.607 80.6108 107.716 80.8059 107.912C81.0009 108.107 81.1105 108.371 81.1105 108.647ZM94.2633 108.647C94.2632 108.923 94.1534 109.188 93.9583 109.383C93.7631 109.578 93.4984 109.687 93.2225 109.687C92.9465 109.687 92.682 109.577 92.4869 109.382C92.2918 109.187 92.1823 108.922 92.1824 108.646C92.1824 108.37 92.292 108.106 92.4872 107.911C92.6823 107.715 92.9469 107.606 93.2229 107.606C93.4988 107.606 93.7634 107.715 93.9585 107.911C94.1536 108.106 94.2633 108.371 94.2633 108.647ZM107.415 108.647C107.415 108.923 107.306 109.188 107.11 109.383C106.915 109.578 106.65 109.687 106.375 109.687C106.099 109.687 105.834 109.577 105.639 109.382C105.444 109.187 105.334 108.922 105.334 108.646C105.334 108.37 105.444 108.106 105.639 107.911C105.834 107.716 106.099 107.606 106.375 107.606C106.65 107.606 106.915 107.716 107.11 107.911C107.305 108.106 107.415 108.37 107.415 108.646L107.415 108.647ZM120.567 108.647C120.567 108.784 120.54 108.919 120.488 109.045C120.436 109.171 120.359 109.286 120.262 109.383C120.166 109.479 120.051 109.556 119.925 109.608C119.798 109.661 119.663 109.687 119.526 109.687C119.39 109.687 119.254 109.66 119.128 109.608C119.002 109.556 118.887 109.479 118.79 109.382C118.694 109.286 118.617 109.171 118.565 109.045C118.513 108.918 118.486 108.783 118.486 108.646C118.486 108.37 118.595 108.106 118.791 107.911C118.986 107.715 119.25 107.606 119.526 107.606C119.802 107.606 120.067 107.715 120.262 107.911C120.457 108.106 120.567 108.37 120.567 108.646L120.567 108.647ZM133.719 108.647C133.719 108.784 133.692 108.919 133.639 109.045C133.587 109.171 133.511 109.286 133.414 109.382C133.317 109.479 133.203 109.555 133.076 109.608C132.95 109.66 132.815 109.687 132.678 109.687C132.542 109.687 132.407 109.66 132.28 109.607C132.154 109.555 132.04 109.478 131.943 109.382C131.846 109.285 131.77 109.171 131.718 109.044C131.665 108.918 131.639 108.783 131.639 108.646C131.639 108.37 131.748 108.106 131.943 107.911C132.138 107.716 132.403 107.606 132.679 107.606C132.955 107.606 133.219 107.716 133.414 107.911C133.609 108.106 133.719 108.371 133.719 108.647ZM146.871 108.647C146.871 108.923 146.761 109.188 146.566 109.383C146.371 109.578 146.106 109.687 145.83 109.687C145.554 109.687 145.29 109.577 145.094 109.382C144.899 109.187 144.79 108.922 144.79 108.646C144.79 108.37 144.9 108.106 145.095 107.911C145.29 107.715 145.554 107.606 145.83 107.606C146.106 107.606 146.371 107.715 146.566 107.911C146.761 108.106 146.871 108.371 146.871 108.647ZM2.19948 121.975C2.19948 122.251 2.0899 122.516 1.89485 122.711C1.6998 122.906 1.43525 123.015 1.1594 123.015C0.883558 123.015 0.619005 122.906 0.423954 122.711C0.228902 122.516 0.11933 122.251 0.11933 121.975C0.11933 121.699 0.228902 121.435 0.423954 121.24C0.619005 121.045 0.883558 120.935 1.1594 120.935C1.43525 120.935 1.6998 121.045 1.89485 121.24C2.0899 121.435 2.19948 121.699 2.19948 121.975ZM15.3508 121.975C15.3508 122.251 15.2413 122.516 15.0462 122.711C14.8512 122.906 14.5866 123.015 14.3108 123.015C14.0349 123.015 13.7704 122.906 13.5754 122.711C13.3803 122.516 13.2707 122.251 13.2707 121.975C13.2707 121.699 13.3803 121.435 13.5754 121.24C13.7704 121.045 14.0349 120.935 14.3108 120.935C14.5866 120.935 14.8512 121.045 15.0462 121.24C15.2413 121.435 15.3508 121.699 15.3508 121.975ZM28.5029 121.975C28.5029 122.251 28.3933 122.516 28.1983 122.711C28.0032 122.906 27.7387 123.015 27.4628 123.015C27.187 123.015 26.9224 122.906 26.7274 122.711C26.5323 122.516 26.4228 122.251 26.4228 121.975C26.4228 121.699 26.5323 121.435 26.7274 121.24C26.9224 121.045 27.187 120.935 27.4628 120.935C27.7387 120.935 28.0032 121.045 28.1983 121.24C28.3933 121.435 28.5029 121.699 28.5029 121.975ZM41.655 121.975C41.655 122.251 41.5454 122.516 41.3504 122.711C41.1553 122.906 40.8908 123.015 40.6149 123.015C40.3391 123.015 40.0745 122.906 39.8795 122.711C39.6844 122.516 39.5748 122.251 39.5748 121.975C39.5748 121.699 39.6844 121.435 39.8795 121.24C40.0745 121.045 40.3391 120.935 40.6149 120.935C40.8908 120.935 41.1553 121.045 41.3504 121.24C41.5454 121.435 41.655 121.699 41.655 121.975ZM54.8071 121.975C54.8071 122.251 54.6975 122.516 54.5024 122.711C54.3074 122.906 54.0428 123.015 53.767 123.015C53.4912 123.015 53.2266 122.906 53.0316 122.711C52.8365 122.516 52.7269 122.251 52.7269 121.975C52.7269 121.699 52.8365 121.435 53.0316 121.24C53.2266 121.045 53.4912 120.935 53.767 120.935C54.0428 120.935 54.3074 121.045 54.5024 121.24C54.6975 121.435 54.8071 121.699 54.8071 121.975ZM67.9584 121.975C67.9636 122.115 67.9406 122.254 67.8908 122.385C67.8409 122.515 67.7653 122.635 67.6683 122.735C67.5714 122.836 67.4551 122.916 67.3265 122.971C67.1979 123.026 67.0595 123.054 66.9198 123.054C66.78 123.054 66.6416 123.026 66.5129 122.971C66.3842 122.917 66.2679 122.837 66.1708 122.736C66.0737 122.636 65.9979 122.517 65.9479 122.386C65.8979 122.256 65.8747 122.116 65.8797 121.977C65.8893 121.707 66.0029 121.453 66.1967 121.266C66.3904 121.079 66.6491 120.974 66.9184 120.974C67.1877 120.974 67.4465 121.078 67.6405 121.265C67.8344 121.451 67.9484 121.706 67.9584 121.975ZM81.1105 121.975C81.1157 122.115 81.0927 122.254 81.0428 122.385C80.993 122.515 80.9173 122.635 80.8204 122.735C80.7234 122.836 80.6071 122.916 80.4785 122.971C80.3499 123.026 80.2116 123.054 80.0718 123.054C79.9321 123.054 79.7937 123.026 79.665 122.971C79.5363 122.917 79.42 122.837 79.3229 122.736C79.2258 122.636 79.15 122.517 79.0999 122.386C79.0499 122.256 79.0267 122.116 79.0317 121.977C79.0414 121.707 79.155 121.453 79.3487 121.266C79.5425 121.079 79.8012 120.974 80.0704 120.974C80.3397 120.974 80.5986 121.078 80.7926 121.265C80.9865 121.451 81.1005 121.706 81.1105 121.975ZM94.2633 121.975C94.2633 122.251 94.1537 122.516 93.9586 122.711C93.7636 122.906 93.499 123.015 93.2232 123.015C92.9473 123.015 92.6828 122.906 92.4877 122.711C92.2927 122.516 92.1831 122.251 92.1831 121.975C92.1831 121.699 92.2927 121.435 92.4877 121.24C92.6828 121.045 92.9473 120.935 93.2232 120.935C93.499 120.935 93.7636 121.045 93.9586 121.24C94.1537 121.435 94.2633 121.699 94.2633 121.975ZM107.415 121.975C107.415 122.251 107.306 122.516 107.111 122.711C106.916 122.906 106.651 123.015 106.375 123.015C106.099 123.015 105.835 122.906 105.64 122.711C105.445 122.516 105.335 122.251 105.335 121.975C105.335 121.699 105.445 121.435 105.64 121.24C105.835 121.045 106.099 120.935 106.375 120.935C106.651 120.935 106.916 121.045 107.111 121.24C107.306 121.435 107.415 121.699 107.415 121.975ZM120.567 121.975C120.567 122.251 120.458 122.516 120.263 122.711C120.068 122.906 119.803 123.015 119.527 123.015C119.251 123.015 118.987 122.906 118.792 122.711C118.597 122.516 118.487 122.251 118.487 121.975C118.487 121.699 118.597 121.435 118.792 121.24C118.987 121.045 119.251 120.935 119.527 120.935C119.803 120.935 120.068 121.045 120.263 121.24C120.458 121.435 120.567 121.699 120.567 121.975ZM133.719 121.975C133.719 122.251 133.609 122.516 133.414 122.711C133.219 122.906 132.955 123.015 132.679 123.015C132.403 123.015 132.138 122.906 131.943 122.711C131.748 122.516 131.639 122.251 131.639 121.975C131.639 121.699 131.748 121.435 131.943 121.24C132.138 121.045 132.403 120.935 132.679 120.935C132.955 120.935 133.219 121.045 133.414 121.24C133.609 121.435 133.719 121.699 133.719 121.975ZM146.871 121.975C146.871 122.251 146.761 122.516 146.566 122.711C146.371 122.906 146.107 123.015 145.831 123.015C145.555 123.015 145.29 122.906 145.095 122.711C144.9 122.516 144.791 122.251 144.791 121.975C144.791 121.699 144.9 121.435 145.095 121.24C145.29 121.045 145.555 120.935 145.831 120.935C146.107 120.935 146.371 121.045 146.566 121.24C146.761 121.435 146.871 121.699 146.871 121.975ZM2.19948 135.305C2.19943 135.441 2.17249 135.577 2.12017 135.703C2.06784 135.829 1.99116 135.944 1.89451 136.04C1.79787 136.137 1.68312 136.214 1.55688 136.266C1.43063 136.318 1.29536 136.345 1.15873 136.345C1.0221 136.345 0.886784 136.318 0.760572 136.266C0.63436 136.213 0.519729 136.136 0.42315 136.04C0.32657 135.943 0.249951 135.828 0.197707 135.702C0.145464 135.576 0.118607 135.441 0.118652 135.304C0.118652 135.028 0.228225 134.764 0.423277 134.569C0.618328 134.374 0.882881 134.264 1.15873 134.264C1.43457 134.264 1.69912 134.374 1.89417 134.569C2.08923 134.764 2.1988 135.028 2.1988 135.304L2.19948 135.305ZM15.3508 135.305C15.3507 135.581 15.2411 135.845 15.046 136.04C14.8509 136.235 14.5863 136.345 14.3104 136.344C14.0346 136.344 13.7701 136.235 13.5751 136.04C13.3801 135.844 13.2706 135.58 13.2707 135.304C13.2707 135.028 13.3803 134.764 13.5754 134.569C13.7704 134.374 14.0349 134.264 14.3108 134.264C14.5866 134.264 14.8512 134.374 15.0462 134.569C15.2413 134.764 15.3508 135.029 15.3508 135.305ZM28.5029 135.305C28.5029 135.441 28.4759 135.577 28.4236 135.703C28.3713 135.829 28.2946 135.944 28.198 136.04C28.1013 136.137 27.9866 136.214 27.8603 136.266C27.7341 136.318 27.5988 136.345 27.4622 136.345C27.3255 136.345 27.1902 136.318 27.064 136.266C26.9378 136.213 26.8232 136.136 26.7266 136.04C26.63 135.943 26.5534 135.828 26.5011 135.702C26.4489 135.576 26.422 135.441 26.4221 135.304C26.4221 135.028 26.5317 134.763 26.7268 134.568C26.9219 134.373 27.1866 134.264 27.4625 134.264C27.7384 134.264 28.0031 134.373 28.1982 134.568C28.3933 134.763 28.5029 135.029 28.5029 135.305ZM41.655 135.305C41.6549 135.441 41.628 135.577 41.5756 135.703C41.5233 135.829 41.4467 135.944 41.35 136.04C41.2534 136.137 41.1386 136.214 41.0124 136.266C40.8862 136.318 40.7509 136.345 40.6142 136.345C40.4776 136.345 40.3423 136.318 40.2161 136.266C40.0899 136.213 39.9752 136.136 39.8786 136.04C39.782 135.943 39.7055 135.828 39.6532 135.702C39.601 135.576 39.5741 135.441 39.5742 135.304C39.5742 135.028 39.6837 134.764 39.8788 134.569C40.0738 134.374 40.3384 134.264 40.6142 134.264C40.8901 134.264 41.1546 134.374 41.3496 134.569C41.5447 134.764 41.6543 135.028 41.6543 135.304L41.655 135.305ZM54.8071 135.305C54.807 135.441 54.78 135.577 54.7277 135.703C54.6754 135.829 54.5987 135.944 54.5021 136.04C54.4054 136.137 54.2907 136.214 54.1645 136.266C54.0382 136.318 53.9029 136.345 53.7663 136.345C53.6297 136.345 53.4944 136.318 53.3682 136.266C53.242 136.213 53.1273 136.136 53.0307 136.04C52.9341 135.943 52.8575 135.828 52.8053 135.702C52.753 135.576 52.7262 135.441 52.7262 135.304C52.7262 135.028 52.8358 134.764 53.0308 134.569C53.2259 134.374 53.4904 134.264 53.7663 134.264C54.0421 134.264 54.3067 134.374 54.5017 134.569C54.6968 134.764 54.8064 135.028 54.8064 135.304L54.8071 135.305ZM67.9584 135.305C67.9584 135.581 67.8489 135.845 67.6538 136.04C67.4588 136.235 67.1942 136.345 66.9184 136.345C66.6425 136.345 66.378 136.235 66.1829 136.04C65.9879 135.845 65.8783 135.581 65.8783 135.305C65.8783 135.029 65.9879 134.764 66.1829 134.569C66.378 134.374 66.6425 134.265 66.9184 134.265C67.1942 134.265 67.4588 134.374 67.6538 134.569C67.8489 134.764 67.9584 135.029 67.9584 135.305ZM81.1105 135.305C81.1105 135.581 81.0009 135.845 80.8059 136.04C80.6108 136.235 80.3463 136.345 80.0704 136.345C79.7946 136.345 79.53 136.235 79.335 136.04C79.1399 135.845 79.0304 135.581 79.0304 135.305C79.0304 135.029 79.1399 134.764 79.335 134.569C79.53 134.374 79.7946 134.265 80.0704 134.265C80.3463 134.265 80.6108 134.374 80.8059 134.569C81.0009 134.764 81.1105 135.029 81.1105 135.305ZM94.2633 135.305C94.2632 135.581 94.1534 135.845 93.9583 136.04C93.7631 136.235 93.4984 136.345 93.2225 136.345C92.9465 136.345 92.682 136.235 92.4869 136.04C92.2918 135.845 92.1823 135.58 92.1824 135.304C92.1824 135.028 92.292 134.763 92.4872 134.568C92.6823 134.373 92.9469 134.264 93.2229 134.264C93.4988 134.264 93.7634 134.373 93.9585 134.568C94.1536 134.763 94.2633 135.029 94.2633 135.305ZM107.415 135.305C107.415 135.581 107.306 135.845 107.11 136.04C106.915 136.235 106.65 136.345 106.375 136.345C106.099 136.345 105.834 136.235 105.639 136.04C105.444 135.845 105.334 135.58 105.334 135.304C105.334 135.028 105.444 134.764 105.639 134.569C105.834 134.374 106.099 134.264 106.375 134.264C106.65 134.264 106.915 134.374 107.11 134.569C107.305 134.764 107.415 135.028 107.415 135.304L107.415 135.305ZM120.567 135.305C120.567 135.581 120.458 135.845 120.262 136.041C120.067 136.236 119.802 136.345 119.526 136.345C119.25 136.345 118.986 136.235 118.79 136.04C118.595 135.845 118.486 135.58 118.486 135.304C118.486 135.028 118.595 134.763 118.791 134.568C118.986 134.373 119.25 134.264 119.526 134.264C119.802 134.264 120.067 134.373 120.262 134.568C120.457 134.763 120.567 135.028 120.567 135.304L120.567 135.305ZM133.719 135.305C133.719 135.441 133.692 135.577 133.639 135.703C133.587 135.829 133.511 135.944 133.414 136.04C133.317 136.137 133.203 136.213 133.076 136.265C132.95 136.318 132.815 136.345 132.678 136.344C132.542 136.344 132.407 136.317 132.28 136.265C132.154 136.213 132.04 136.136 131.943 136.04C131.846 135.943 131.77 135.828 131.718 135.702C131.665 135.576 131.639 135.441 131.639 135.304C131.639 135.028 131.748 134.764 131.943 134.569C132.138 134.374 132.403 134.264 132.679 134.264C132.955 134.264 133.219 134.374 133.414 134.569C133.609 134.764 133.719 135.029 133.719 135.305ZM146.871 135.305C146.871 135.581 146.761 135.845 146.566 136.04C146.371 136.235 146.106 136.345 145.83 136.345C145.554 136.345 145.29 136.235 145.094 136.04C144.899 135.845 144.79 135.58 144.79 135.304C144.79 135.028 144.9 134.763 145.095 134.568C145.29 134.373 145.554 134.264 145.83 134.264C146.106 134.264 146.371 134.373 146.566 134.568C146.761 134.763 146.871 135.029 146.871 135.305Z"
          fill="#0067DE"/>
</svg>