<svg width="214" height="713" viewBox="0 0 214 713" fill="none" xmlns="http://www.w3.org/2000/svg">
    <path d="M137.352 103.422C130.451 103.422 124.233 102.315 118.699 100.102C113.23 97.9531 108.543 95.0885 104.637 91.5078C100.796 87.9271 97.8333 83.8255 95.75 79.2031C93.6667 74.5807 92.625 69.7956 92.625 64.8476C92.625 62.1133 92.918 59.4115 93.5039 56.7422C94.1549 54.0729 95.1966 51.4362 96.6289 48.832C91.8112 49.418 86.8633 50.362 81.7852 51.6641C77.4232 52.7708 72.5404 54.3333 67.1367 56.3516C61.7982 58.4349 56.5573 61.1693 51.4141 64.5547C52.1302 57.9141 52.6185 51.9245 52.8789 46.5859C53.2044 41.3125 53.3672 36.5273 53.3672 32.2305C53.3672 26.4362 53.1719 21.5534 52.7812 17.582C52.3906 13.6758 51.9349 10.4857 51.4141 8.01171C50.8281 5.14713 50.2096 2.86848 49.5586 1.17577C54.5716 2.80338 60.0404 4.20312 65.9648 5.37499C71.8893 6.54687 78.0742 7.52343 84.5195 8.30468C90.9648 9.08593 97.5404 9.67187 104.246 10.0625C111.017 10.4531 117.723 10.6484 124.363 10.6484C131.59 10.6484 138.654 10.4206 145.555 9.96484C152.521 9.50911 159.031 8.82552 165.086 7.91406C171.206 7.0677 176.772 5.99349 181.785 4.6914C186.798 3.38932 190.997 1.89192 194.383 0.199216C193.406 3.32422 192.69 6.57942 192.234 9.96484C191.844 13.4154 191.648 16.8984 191.648 20.4141C191.648 23.6042 191.779 26.7943 192.039 29.9844C192.365 33.2396 192.69 36.4297 193.016 39.5547C193.341 42.6797 193.634 45.707 193.895 48.6367C194.22 51.5664 194.383 54.3008 194.383 56.8398C194.383 59.5742 194.025 62.6016 193.309 65.9219C192.592 69.3073 191.355 72.7253 189.598 76.1758C187.905 79.6263 185.626 82.9792 182.762 86.2344C179.897 89.4896 176.349 92.3867 172.117 94.9258C167.885 97.4648 162.905 99.4831 157.176 100.98C151.447 102.543 144.839 103.357 137.352 103.422ZM121.434 47.7578C122.996 49.3854 124.884 51.2409 127.098 53.3242C129.376 55.4727 131.818 57.4909 134.422 59.3789C137.091 61.2669 139.826 62.8294 142.625 64.0664C145.424 65.3685 148.094 66.0195 150.633 66.0195C153.562 66.0195 155.874 65.1732 157.566 63.4805C159.324 61.8529 160.203 60.0299 160.203 58.0117C160.203 56.1888 159.585 54.6588 158.348 53.4219C157.111 52.25 155.483 51.2734 153.465 50.4922C151.512 49.7109 149.298 49.125 146.824 48.7344C144.415 48.3437 142.007 48.0508 139.598 47.8555C137.254 47.6602 135.04 47.5625 132.957 47.5625C130.939 47.5625 129.344 47.5625 128.172 47.5625C127.065 47.5625 125.958 47.5625 124.852 47.5625C123.745 47.5625 122.605 47.6276 121.434 47.7578ZM140.574 162.602C140.574 160.583 139.988 158.76 138.816 157.133C137.71 155.505 136.115 154.04 134.031 152.738C132.013 151.501 129.572 150.395 126.707 149.418C123.842 148.507 120.685 147.758 117.234 147.172C111.701 147.172 106.102 147.302 100.437 147.562C94.7734 147.823 89.1745 148.246 83.6406 148.832C78.1068 149.418 72.7031 150.167 67.4297 151.078C62.1562 152.055 57.1432 153.227 52.3906 154.594C52.4557 153.552 52.5534 152.348 52.6836 150.98C52.7487 149.809 52.8138 148.376 52.8789 146.684C52.944 145.056 52.9766 143.168 52.9766 141.02C52.9766 136.983 52.7812 132.296 52.3906 126.957C52.0651 121.684 51.4141 115.824 50.4375 109.379C54.0833 110.16 58.543 110.844 63.8164 111.43C69.0898 112.016 74.819 112.504 81.0039 112.895C87.1888 113.285 93.6341 113.578 100.34 113.773C107.111 114.034 113.784 114.164 120.359 114.164C125.242 114.164 130.027 114.099 134.715 113.969C139.402 113.839 143.829 113.643 147.996 113.383C152.163 113.187 156.004 112.895 159.52 112.504C163.035 112.113 166.062 111.658 168.602 111.137C167.69 116.41 167.039 121.195 166.648 125.492C166.323 129.854 166.16 133.76 166.16 137.211C166.16 139.424 166.193 141.378 166.258 143.07C166.388 144.763 166.518 146.228 166.648 147.465C166.844 148.832 167.039 150.069 167.234 151.176C163.979 150.395 160.366 149.809 156.395 149.418C160.496 152.803 163.523 156.482 165.477 160.453C167.43 164.49 168.406 168.266 168.406 171.781C168.406 177.641 167.332 182.589 165.184 186.625C163.1 190.661 160.333 193.917 156.883 196.391C153.497 198.865 149.624 200.655 145.262 201.762C140.9 202.868 136.473 203.422 131.98 203.422C127.618 203.422 123.354 202.803 119.187 201.566C115.021 200.329 111.277 198.539 107.957 196.195C104.702 193.852 102.065 190.954 100.047 187.504C98.0286 184.053 97.0195 180.147 97.0195 175.785C97.0195 171.944 97.6706 168.656 98.9726 165.922C100.275 163.253 101.967 161.039 104.051 159.281C106.134 157.523 108.413 156.221 110.887 155.375C113.426 154.594 115.932 154.203 118.406 154.203C121.01 154.203 123.549 154.561 126.023 155.277C128.497 156.059 130.743 157.165 132.762 158.598C131.329 159.053 130.223 159.607 129.441 160.258C128.725 160.974 128.204 161.69 127.879 162.406C127.488 163.187 127.26 164.034 127.195 164.945C127.195 167.354 127.749 169.145 128.855 170.316C129.962 171.553 131.264 172.172 132.762 172.172C133.478 172.172 134.292 172.042 135.203 171.781C136.115 171.521 136.961 171.033 137.742 170.316C138.523 169.665 139.174 168.721 139.695 167.484C140.281 166.247 140.574 164.62 140.574 162.602ZM109.031 301.176C105.255 301.176 101.089 300.883 96.5312 300.297C92.039 299.711 87.4818 298.734 82.8594 297.367C78.3021 296 73.8424 294.145 69.4805 291.801C65.1836 289.457 61.375 286.527 58.0547 283.012C54.7344 279.561 52.0651 275.427 50.0469 270.609C48.0286 265.792 47.0195 260.193 47.0195 253.812C47.0195 247.432 47.9635 241.833 49.8516 237.016C51.7396 232.263 54.2461 228.161 57.3711 224.711C60.5612 221.326 64.207 218.526 68.3086 216.312C72.4753 214.099 76.8372 212.341 81.3945 211.039C85.9518 209.737 90.5417 208.826 95.1641 208.305C99.8516 207.849 104.279 207.621 108.445 207.621C115.802 207.621 122.996 208.598 130.027 210.551C137.124 212.504 143.439 215.466 148.973 219.437C154.507 223.474 158.966 228.487 162.352 234.477C165.737 240.531 167.43 247.628 167.43 255.766C167.43 261.234 166.583 266.15 164.891 270.512C163.263 274.874 161.017 278.747 158.152 282.133C155.288 285.518 151.935 288.383 148.094 290.727C144.253 293.135 140.184 295.121 135.887 296.684C131.59 298.246 127.13 299.385 122.508 300.102C117.885 300.818 113.393 301.176 109.031 301.176ZM105.809 267.191C107.306 267.191 109.161 267.126 111.375 266.996C113.654 266.931 116.03 266.736 118.504 266.41C120.978 266.085 123.452 265.629 125.926 265.043C128.4 264.522 130.613 263.806 132.566 262.895C134.52 261.983 136.115 260.844 137.352 259.477C138.589 258.174 139.207 256.612 139.207 254.789C139.207 253.031 138.621 251.501 137.449 250.199C136.277 248.897 134.747 247.758 132.859 246.781C130.971 245.87 128.823 245.089 126.414 244.437C124.07 243.852 121.694 243.363 119.285 242.973C116.941 242.647 114.663 242.387 112.449 242.191C110.301 242.061 108.478 241.996 106.98 241.996C104.832 241.996 102.228 242.159 99.168 242.484C96.1081 242.81 93.1784 243.428 90.3789 244.34C87.5794 245.251 85.1706 246.488 83.1523 248.051C81.1992 249.678 80.2226 251.794 80.2226 254.398C80.2226 256.872 81.1341 258.923 82.957 260.551C84.7799 262.243 86.9935 263.578 89.5976 264.555C92.2669 265.531 95.0664 266.215 97.9961 266.605C100.926 266.996 103.53 267.191 105.809 267.191ZM192.039 308.402C195.034 308.402 197.833 308.956 200.437 310.062C203.107 311.234 205.418 312.797 207.371 314.75C209.389 316.768 210.952 319.079 212.059 321.684C213.23 324.353 213.816 327.185 213.816 330.18C213.816 333.174 213.23 335.974 212.059 338.578C210.952 341.247 209.389 343.559 207.371 345.512C205.418 347.53 203.107 349.092 200.437 350.199C197.833 351.371 195.034 351.957 192.039 351.957C189.044 351.957 186.212 351.371 183.543 350.199C180.874 349.092 178.53 347.53 176.512 345.512C174.559 343.559 172.996 341.247 171.824 338.578C170.717 335.974 170.164 333.174 170.164 330.18C170.164 327.185 170.717 324.353 171.824 321.684C172.996 319.079 174.559 316.768 176.512 314.75C178.53 312.797 180.874 311.234 183.543 310.062C186.212 308.956 189.044 308.402 192.039 308.402ZM164.207 351.762C161.473 351.046 158.12 350.427 154.148 349.906C150.242 349.451 145.945 349.027 141.258 348.637C136.635 348.246 131.818 347.921 126.805 347.66C121.792 347.465 116.876 347.27 112.059 347.074C100.73 346.684 88.7187 346.456 76.0234 346.391C69.3828 346.391 62.8724 345.967 56.4922 345.121C50.1771 344.34 44.22 343.038 38.6211 341.215C33.0221 339.457 27.8463 337.146 23.0937 334.281C18.3411 331.482 14.2721 328.031 10.8867 323.93C7.50129 319.893 4.86457 315.173 2.97655 309.77C1.02342 304.431 0.0468618 298.376 0.0468621 291.605C0.0468623 286.527 0.697904 282.035 1.99999 278.129C3.30207 274.158 5.15754 270.837 7.56639 268.168C9.91014 265.434 12.7422 263.35 16.0625 261.918C19.3177 260.486 22.9635 259.77 27 259.77C30.125 259.77 32.9896 260.355 35.5937 261.527C38.1979 262.699 40.444 264.229 42.332 266.117C44.22 268.005 45.7174 270.186 46.8242 272.66C47.8659 275.069 48.3867 277.51 48.3867 279.984C48.3867 283.24 47.4101 286.299 45.457 289.164C43.4388 292.029 40.2161 294.307 35.789 296C36.1146 295.609 36.3424 295.186 36.4726 294.73C36.5377 294.21 36.5703 293.689 36.5703 293.168C36.5703 291.671 35.9844 290.271 34.8125 288.969C33.5755 287.667 32.1107 287.016 30.418 287.016C29.3112 287.016 28.3672 287.276 27.5859 287.797C26.8047 288.253 26.1536 288.871 25.6328 289.652C25.112 290.368 24.7539 291.15 24.5586 291.996C24.2982 292.842 24.168 293.656 24.168 294.437C24.168 295.674 24.3958 297.042 24.8515 298.539C25.3073 299.971 26.4792 301.404 28.3672 302.836C30.1901 304.268 32.9245 305.635 36.5703 306.937C40.151 308.24 45.1315 309.379 51.5117 310.355C57.8268 311.397 65.737 312.211 75.2422 312.797C84.7474 313.448 96.2708 313.773 109.812 313.773C114.565 313.773 119.383 313.676 124.266 313.48C129.214 313.35 134.096 313.057 138.914 312.602C143.797 312.211 148.582 311.658 153.27 310.941C158.022 310.225 162.547 309.314 166.844 308.207C166.128 309.835 165.477 311.853 164.891 314.262C164.37 316.345 163.914 318.949 163.523 322.074C163.198 325.264 163.035 329.04 163.035 333.402C163.035 338.676 163.426 344.796 164.207 351.762ZM142.82 444.145C137.937 444.145 133.185 443.428 128.562 441.996C123.94 440.629 119.839 438.187 116.258 434.672C112.677 431.156 109.812 426.404 107.664 420.414C105.516 414.49 104.441 406.937 104.441 397.758C101.251 398.018 98.582 398.669 96.4336 399.711C94.2851 400.818 92.5599 402.12 91.2578 403.617C89.9557 405.115 88.9791 406.71 88.3281 408.402C87.6771 410.095 87.2213 411.658 86.9609 413.09C86.7005 414.522 86.5703 415.727 86.5703 416.703C86.5703 417.68 86.5703 418.168 86.5703 418.168C87.026 422.204 88.0677 425.818 89.6953 429.008C90.3463 430.375 91.1601 431.71 92.1367 433.012C93.1784 434.314 94.3828 435.486 95.75 436.527C97.1823 437.634 98.7773 438.513 100.535 439.164C102.358 439.88 104.441 440.303 106.785 440.434C102.553 442.126 98.582 443.298 94.8711 443.949C91.2252 444.665 87.8073 445.023 84.6172 445.023C78.7578 445.023 73.3541 443.949 68.4062 441.801C63.5234 439.717 59.2916 436.82 55.7109 433.109C52.1302 429.398 49.3633 424.971 47.4101 419.828C45.3919 414.75 44.3828 409.216 44.3828 403.227C44.3828 397.367 45.3919 391.703 47.4101 386.234C49.4284 380.831 52.6185 376.013 56.9805 371.781C61.4075 367.615 67.1367 364.262 74.168 361.723C81.1992 359.249 89.7278 358.012 99.7539 358.012C110.626 358.012 120.262 359.574 128.66 362.699C137.059 365.824 144.09 370.023 149.754 375.297C155.483 380.57 159.812 386.658 162.742 393.559C165.737 400.525 167.234 407.816 167.234 415.434C167.234 419.21 166.811 422.823 165.965 426.273C165.118 429.789 163.719 432.849 161.766 435.453C159.812 438.122 157.273 440.238 154.148 441.801C151.089 443.363 147.312 444.145 142.82 444.145ZM120.555 397.367C120.62 399.19 120.978 401.306 121.629 403.715C122.345 406.124 123.322 408.402 124.559 410.551C125.796 412.699 127.326 414.49 129.148 415.922C130.971 417.419 133.055 418.168 135.398 418.168C136.896 418.168 138.1 417.647 139.012 416.605C139.923 415.564 140.379 414.229 140.379 412.602C140.379 410.323 139.728 408.272 138.426 406.449C137.124 404.691 135.496 403.161 133.543 401.859C131.59 400.622 129.441 399.613 127.098 398.832C124.754 398.051 122.573 397.562 120.555 397.367ZM134.812 537.504C132.078 537.504 129.344 537.016 126.609 536.039C123.875 535.128 121.401 533.793 119.187 532.035C117.039 530.277 115.249 528.096 113.816 525.492C112.449 522.953 111.766 520.089 111.766 516.898C111.766 514.034 112.254 511.592 113.23 509.574C114.207 507.556 115.477 505.896 117.039 504.594C118.602 503.292 120.392 502.315 122.41 501.664C124.493 501.078 126.609 500.785 128.758 500.785C133.315 500.785 137.254 501.892 140.574 504.105C139.467 504.431 138.621 504.887 138.035 505.473C137.514 506.124 137.124 506.71 136.863 507.23C136.603 507.882 136.44 508.533 136.375 509.184C136.375 511.072 136.798 512.276 137.645 512.797C138.491 513.318 139.467 513.643 140.574 513.773C141.681 513.773 142.755 513.35 143.797 512.504C144.839 511.658 145.359 510.193 145.359 508.109C145.359 507.523 145.262 506.677 145.066 505.57C144.936 504.529 144.546 503.324 143.895 501.957C143.243 500.655 142.267 499.32 140.965 497.953C139.728 496.586 137.97 495.316 135.691 494.145C133.478 493.038 130.678 492.126 127.293 491.41C123.973 490.694 119.936 490.336 115.184 490.336C110.301 490.336 106.329 491.052 103.27 492.484C100.275 493.917 97.931 495.609 96.2383 497.562C94.6107 499.581 93.5039 501.697 92.9179 503.91C92.332 506.124 92.039 508.012 92.039 509.574C92.039 510.941 92.2669 512.667 92.7226 514.75C93.2435 516.833 94.1549 518.884 95.457 520.902C96.7591 522.986 98.5495 524.874 100.828 526.566C103.172 528.259 106.167 529.398 109.812 529.984C107.208 531.742 104.083 533.142 100.437 534.184C96.8567 535.225 93.1133 535.746 89.207 535.746C83.8685 535.746 78.6601 534.737 73.582 532.719C68.5039 530.766 63.9791 527.966 60.0078 524.32C56.1015 520.74 52.9765 516.41 50.6328 511.332C48.2239 506.254 47.0195 500.655 47.0195 494.535C47.0195 489.978 47.7682 485.746 49.2656 481.84C50.6979 477.934 52.7161 474.385 55.3203 471.195C57.9245 468.07 60.9844 465.271 64.5 462.797C68.0807 460.323 71.9219 458.24 76.0234 456.547C80.1901 454.919 84.5521 453.682 89.1094 452.836C93.6666 451.99 98.2239 451.566 102.781 451.566C107.859 451.566 113.035 452.12 118.309 453.227C123.582 454.333 128.66 455.896 133.543 457.914C138.426 459.997 143.016 462.536 147.312 465.531C151.609 468.526 155.32 471.911 158.445 475.687C161.635 479.464 164.142 483.63 165.965 488.187C167.853 492.745 168.797 497.595 168.797 502.738C168.797 507.361 168.243 511.43 167.137 514.945C166.03 518.461 164.565 521.521 162.742 524.125C160.919 526.729 158.803 528.878 156.395 530.57C154.051 532.263 151.609 533.63 149.07 534.672C146.596 535.714 144.122 536.43 141.648 536.82C139.174 537.276 136.896 537.504 134.812 537.504ZM170.555 622.562C167.625 622.042 164.76 621.651 161.961 621.391C159.161 621.195 156.297 621.098 153.367 621.098C150.568 621.098 147.736 621.195 144.871 621.391C142.072 621.651 139.24 622.042 136.375 622.562C138.003 619.437 139.207 615.889 139.988 611.918C140.77 608.012 141.388 604.008 141.844 599.906L133.445 599.906C126.089 599.906 118.634 600.036 111.082 600.297C103.595 600.557 96.3034 600.98 89.207 601.566C82.1758 602.152 75.5026 602.901 69.1875 603.812C62.8724 604.789 57.2734 605.961 52.3906 607.328C52.4557 606.221 52.5534 604.919 52.6836 603.422C52.7487 602.12 52.8138 600.59 52.8789 598.832C52.944 597.074 52.9765 595.056 52.9765 592.777C52.9765 588.546 52.7812 583.663 52.3906 578.129C52.0651 572.595 51.414 566.605 50.4375 560.16C63.1328 562.374 76.3164 563.936 89.9883 564.848C103.725 565.824 117.137 566.312 130.223 566.312L141.844 566.312C141.518 561.885 140.997 557.491 140.281 553.129C139.63 548.832 138.816 544.763 137.84 540.922C138.556 541.182 139.5 541.41 140.672 541.605C141.844 541.801 143.048 541.931 144.285 541.996C145.522 542.126 146.727 542.191 147.898 542.191C149.07 542.257 150.047 542.289 150.828 542.289C154.148 542.289 157.436 542.159 160.691 541.898C163.947 541.638 167.234 541.312 170.555 540.922C169.253 544.047 168.178 547.758 167.332 552.055C166.551 556.352 165.965 560.714 165.574 565.141C171.238 564.75 176.479 564.294 181.297 563.773C186.115 563.253 190.477 562.634 194.383 561.918C193.471 567.191 192.853 572.074 192.527 576.566C192.202 581.059 192.039 585.128 192.039 588.773C192.039 591.117 192.072 593.201 192.137 595.023C192.267 596.911 192.397 598.507 192.527 599.809C192.658 601.371 192.82 602.738 193.016 603.91C189.891 603.194 185.984 602.576 181.297 602.055C176.674 601.599 171.499 601.143 165.77 600.687C166.225 604.984 166.844 609.021 167.625 612.797C168.406 616.638 169.383 619.893 170.555 622.562ZM140.77 708.305C138.165 708.305 135.822 707.784 133.738 706.742C131.655 705.701 129.865 704.301 128.367 702.543C126.935 700.785 125.796 698.734 124.949 696.391C124.168 694.047 123.777 691.573 123.777 688.969C123.777 685.974 124.135 683.402 124.852 681.254C125.568 679.171 126.479 677.38 127.586 675.883C128.758 674.451 130.027 673.311 131.395 672.465C132.827 671.618 134.194 670.935 135.496 670.414C136.798 669.958 138.003 669.665 139.109 669.535C140.216 669.405 141.062 669.34 141.648 669.34C140.542 669.926 139.858 670.674 139.598 671.586C139.337 672.497 139.207 673.214 139.207 673.734C139.207 675.232 139.598 676.306 140.379 676.957C141.16 677.608 141.974 677.934 142.82 677.934C143.341 677.934 143.927 677.803 144.578 677.543C145.229 677.283 145.815 676.827 146.336 676.176C146.922 675.525 147.41 674.678 147.801 673.637C148.191 672.595 148.387 671.293 148.387 669.73C148.387 668.754 148.191 667.712 147.801 666.605C147.41 665.499 146.792 664.49 145.945 663.578C145.164 662.732 144.155 662.016 142.918 661.43C141.746 660.844 140.379 660.551 138.816 660.551C135.887 660.551 133.413 661.299 131.395 662.797C129.376 664.294 127.586 666.247 126.023 668.656C124.526 671.13 123.126 673.897 121.824 676.957C120.522 680.082 119.155 683.272 117.723 686.527C116.355 689.783 114.793 692.94 113.035 696C111.342 699.125 109.259 701.892 106.785 704.301C104.311 706.775 101.349 708.76 97.8984 710.258C94.4479 711.755 90.3463 712.504 85.5937 712.504C79.539 712.504 74.0703 711.267 69.1875 708.793C64.3047 706.319 60.1054 702.999 56.5898 698.832C53.1393 694.73 50.5026 689.945 48.6797 684.477C46.7916 679.008 45.8476 673.246 45.8476 667.191C45.8476 661.658 46.5963 656.417 48.0937 651.469C49.5911 646.521 51.6745 642.191 54.3437 638.48C57.013 634.77 60.1705 631.807 63.8164 629.594C67.4622 627.445 71.401 626.371 75.6328 626.371C78.8229 626.371 81.5898 626.892 83.9336 627.934C86.3424 628.975 88.3281 630.408 89.8906 632.23C91.4531 634.118 92.625 636.299 93.4062 638.773C94.1875 641.312 94.5781 644.047 94.5781 646.977C94.5781 649.125 94.3502 651.273 93.8945 653.422C93.4388 655.57 92.7552 657.589 91.8437 659.477C90.9323 661.365 89.8255 663.057 88.5234 664.555C87.2213 666.052 85.7239 667.257 84.0312 668.168C84.1614 667.647 84.2591 667.126 84.3242 666.605C84.3893 666.15 84.4218 665.661 84.4218 665.141C84.4218 663.708 84.0312 662.569 83.25 661.723C82.5338 660.941 81.3294 660.551 79.6367 660.551C77.8138 660.551 76.2838 661.299 75.0468 662.797C73.8099 664.294 73.1914 665.954 73.1914 667.777C73.1914 668.819 73.4192 669.796 73.875 670.707C74.3307 671.618 74.9166 672.4 75.6328 673.051C76.414 673.702 77.2604 674.19 78.1718 674.516C79.0833 674.906 80.0273 675.102 81.0039 675.102C82.6966 675.102 84.5195 674.516 86.4726 673.344C88.4258 672.237 90.0534 670.642 91.3554 668.559C93.8945 664.457 96.0755 660.583 97.8984 656.937C99.7213 653.292 101.447 649.939 103.074 646.879C104.702 643.819 106.329 641.052 107.957 638.578C109.585 636.169 111.473 634.118 113.621 632.426C115.835 630.733 118.406 629.431 121.336 628.52C124.331 627.608 127.944 627.152 132.176 627.152C137.189 627.152 141.811 628.129 146.043 630.082C150.34 632.1 154.051 634.965 157.176 638.676C160.301 642.387 162.742 646.944 164.5 652.348C166.323 657.751 167.234 663.871 167.234 670.707C167.234 677.673 166.421 683.533 164.793 688.285C163.165 693.103 161.082 696.977 158.543 699.906C156.004 702.901 153.172 705.049 150.047 706.352C146.922 707.654 143.829 708.305 140.77 708.305Z"
          fill="#F4FAE8"/>
</svg>
