<svg xmlns="http://www.w3.org/2000/svg" width="148" height="137" viewBox="0 0 148 137" fill="none">
    <path d="M3.03889 1.89569C3.03889 2.17153 2.92931 2.43608 2.73426 2.63113C2.5392 2.82618 2.27466 2.93576 1.99881 2.93576C1.72297 2.93576 1.45842 2.82618 1.26337 2.63113C1.06832 2.43608 0.95874 2.17153 0.95874 1.89569C0.95874 1.61984 1.06832 1.35529 1.26337 1.16024C1.45842 0.965192 1.72297 0.855613 1.99881 0.855613C2.27466 0.855613 2.5392 0.965192 2.73426 1.16024C2.92931 1.35529 3.03889 1.61984 3.03889 1.89569ZM16.191 1.89569C16.191 2.17153 16.0814 2.43608 15.8863 2.63113C15.6913 2.82618 15.4267 2.93576 15.1509 2.93576C14.875 2.93576 14.6105 2.82618 14.4154 2.63113C14.2204 2.43608 14.1108 2.17153 14.1108 1.89569C14.1108 1.61984 14.2204 1.35529 14.4154 1.16024C14.6105 0.965192 14.875 0.855613 15.1509 0.855613C15.4267 0.855613 15.6913 0.965192 15.8863 1.16024C16.0814 1.35529 16.191 1.61984 16.191 1.89569ZM29.343 1.89569C29.343 2.17162 29.2334 2.43626 29.0383 2.63137C28.8432 2.82649 28.5785 2.93611 28.3026 2.93611C28.0267 2.93611 27.762 2.82649 27.5669 2.63137C27.3718 2.43626 27.2622 2.17162 27.2622 1.89569C27.2622 1.61975 27.3718 1.35511 27.5669 1.16C27.762 0.964881 28.0267 0.855266 28.3026 0.855266C28.5785 0.855266 28.8432 0.964881 29.0383 1.16C29.2334 1.35511 29.343 1.61975 29.343 1.89569ZM42.4951 1.89569C42.4951 2.17162 42.3855 2.43626 42.1904 2.63137C41.9952 2.82649 41.7306 2.93611 41.4547 2.93611C41.1787 2.93611 40.9141 2.82649 40.719 2.63137C40.5239 2.43626 40.4142 2.17162 40.4142 1.89569C40.4142 1.61984 40.5238 1.35529 40.7189 1.16024C40.9139 0.965192 41.1785 0.855613 41.4543 0.855613C41.7302 0.855613 41.9947 0.965192 42.1898 1.16024C42.3848 1.35529 42.4944 1.61984 42.4944 1.89569H42.4951ZM55.6472 1.89569C55.6472 2.17162 55.5375 2.43626 55.3424 2.63137C55.1473 2.82649 54.8827 2.93611 54.6067 2.93611C54.3308 2.93611 54.0662 2.82649 53.871 2.63137C53.6759 2.43626 53.5663 2.17162 53.5663 1.89569C53.5663 1.61984 53.6759 1.35529 53.8709 1.16024C54.066 0.965192 54.3305 0.855613 54.6064 0.855613C54.8822 0.855613 55.1468 0.965192 55.3418 1.16024C55.5369 1.35529 55.6465 1.61984 55.6465 1.89569H55.6472ZM68.7985 1.89569C68.7985 2.17153 68.6889 2.43608 68.4939 2.63113C68.2988 2.82618 68.0343 2.93576 67.7585 2.93576C67.4826 2.93576 67.2181 2.82618 67.023 2.63113C66.828 2.43608 66.7184 2.17153 66.7184 1.89569C66.7184 1.61984 66.828 1.35529 67.023 1.16024C67.2181 0.965192 67.4826 0.855613 67.7585 0.855613C68.0343 0.855613 68.2988 0.965192 68.4939 1.16024C68.6889 1.35529 68.7985 1.61984 68.7985 1.89569ZM81.9506 1.89569C81.9506 2.17153 81.841 2.43608 81.646 2.63113C81.4509 2.82618 81.1864 2.93576 80.9105 2.93576C80.6347 2.93576 80.3701 2.82618 80.1751 2.63113C79.98 2.43608 79.8705 2.17153 79.8705 1.89569C79.8705 1.61984 79.98 1.35529 80.1751 1.16024C80.3701 0.965192 80.6347 0.855613 80.9105 0.855613C81.1864 0.855613 81.4509 0.965192 81.646 1.16024C81.841 1.35529 81.9506 1.61984 81.9506 1.89569ZM95.1034 1.89569C95.1034 2.17162 94.9937 2.43626 94.7986 2.63137C94.6035 2.82649 94.3389 2.93611 94.0629 2.93611C93.787 2.93611 93.5224 2.82649 93.3272 2.63137C93.1321 2.43626 93.0225 2.17162 93.0225 1.89569C93.0225 1.61975 93.1321 1.35511 93.3272 1.16C93.5224 0.964881 93.787 0.855266 94.0629 0.855266C94.3389 0.855266 94.6035 0.964881 94.7986 1.16C94.9937 1.35511 95.1034 1.61975 95.1034 1.89569ZM108.255 1.89569C108.255 2.17162 108.146 2.43626 107.951 2.63137C107.756 2.82649 107.491 2.93611 107.215 2.93611C106.939 2.93611 106.674 2.82649 106.479 2.63137C106.284 2.43626 106.175 2.17162 106.175 1.89569C106.175 1.61984 106.284 1.35529 106.479 1.16024C106.674 0.965192 106.939 0.855613 107.215 0.855613C107.49 0.855613 107.755 0.965192 107.95 1.16024C108.145 1.35529 108.255 1.61984 108.255 1.89569H108.255ZM121.407 1.89569C121.407 2.17171 121.298 2.43644 121.103 2.63162C120.907 2.8268 120.643 2.93645 120.367 2.93645C120.091 2.93645 119.826 2.8268 119.631 2.63162C119.436 2.43644 119.326 2.17171 119.326 1.89569C119.326 1.61966 119.436 1.35493 119.631 1.15975C119.826 0.964571 120.091 0.854919 120.367 0.854919C120.643 0.854919 120.907 0.964571 121.103 1.15975C121.298 1.35493 121.407 1.61966 121.407 1.89569ZM134.559 1.89569C134.559 2.17153 134.449 2.43608 134.254 2.63113C134.059 2.82618 133.795 2.93576 133.519 2.93576C133.243 2.93576 132.978 2.82618 132.783 2.63113C132.588 2.43608 132.479 2.17153 132.479 1.89569C132.479 1.61984 132.588 1.35529 132.783 1.16024C132.978 0.965192 133.243 0.855613 133.519 0.855613C133.795 0.855613 134.059 0.965192 134.254 1.16024C134.449 1.35529 134.559 1.61984 134.559 1.89569ZM147.711 1.89569C147.711 2.17162 147.601 2.43626 147.406 2.63137C147.211 2.82649 146.946 2.93611 146.671 2.93611C146.395 2.93611 146.13 2.82649 145.935 2.63137C145.74 2.43626 145.63 2.17162 145.63 1.89569C145.63 1.61975 145.74 1.35511 145.935 1.16C146.13 0.964881 146.395 0.855266 146.671 0.855266C146.946 0.855266 147.211 0.964881 147.406 1.16C147.601 1.35511 147.711 1.61975 147.711 1.89569ZM3.03889 15.2253C3.03889 15.5011 2.92931 15.7656 2.73426 15.9607C2.5392 16.1558 2.27466 16.2653 1.99881 16.2653C1.72297 16.2653 1.45842 16.1558 1.26337 15.9607C1.06832 15.7656 0.95874 15.5011 0.95874 15.2253C0.95874 14.9494 1.06832 14.6849 1.26337 14.4898C1.45842 14.2948 1.72297 14.1852 1.99881 14.1852C2.27466 14.1852 2.5392 14.2948 2.73426 14.4898C2.92931 14.6849 3.03889 14.9494 3.03889 15.2253ZM16.191 15.2253C16.1909 15.3618 16.164 15.4971 16.1116 15.6233C16.0593 15.7494 15.9827 15.8641 15.8861 15.9606C15.7895 16.0571 15.6748 16.1337 15.5486 16.1859C15.4224 16.2382 15.2871 16.265 15.1505 16.265C15.0139 16.2649 14.8787 16.238 14.7525 16.1857C14.6264 16.1334 14.5117 16.0567 14.4152 15.9601C14.3186 15.8635 14.2421 15.7488 14.1898 15.6226C14.1376 15.4964 14.1108 15.3611 14.1108 15.2246C14.1108 14.9487 14.2204 14.6842 14.4154 14.4891C14.6105 14.2941 14.875 14.1845 15.1509 14.1845C15.4267 14.1845 15.6913 14.2941 15.8863 14.4891C16.0814 14.6842 16.191 14.9487 16.191 15.2246V15.2253ZM29.343 15.2253C29.343 15.3619 29.316 15.4972 29.2637 15.6234C29.2114 15.7496 29.1347 15.8643 29.038 15.9608C28.9414 16.0574 28.8267 16.134 28.7004 16.1863C28.5742 16.2385 28.4389 16.2654 28.3023 16.2653C28.1656 16.2653 28.0303 16.2383 27.9041 16.186C27.7779 16.1337 27.6632 16.057 27.5667 15.9604C27.4701 15.8637 27.3935 15.749 27.3412 15.6227C27.289 15.4965 27.2621 15.3612 27.2622 15.2246C27.2622 14.9486 27.3718 14.684 27.5669 14.4889C27.762 14.2938 28.0267 14.1841 28.3026 14.1841C28.5785 14.1841 28.8432 14.2938 29.0383 14.4889C29.2334 14.684 29.343 14.9486 29.343 15.2246V15.2253ZM42.4951 15.2253C42.495 15.5012 42.3853 15.7658 42.1901 15.9608C41.9949 16.1559 41.7303 16.2654 41.4543 16.2653C41.1784 16.2652 40.9138 16.1555 40.7187 15.9604C40.5237 15.7652 40.4142 15.5005 40.4142 15.2246C40.4142 14.9487 40.5238 14.6842 40.7189 14.4891C40.9139 14.2941 41.1785 14.1845 41.4543 14.1845C41.7302 14.1845 41.9947 14.2941 42.1898 14.4891C42.3848 14.6842 42.4944 14.9487 42.4944 15.2246L42.4951 15.2253ZM55.6472 15.2253C55.6471 15.3619 55.6202 15.4972 55.5678 15.6234C55.5155 15.7496 55.4388 15.8643 55.3422 15.9608C55.2455 16.0574 55.1308 16.134 55.0046 16.1863C54.8783 16.2385 54.743 16.2654 54.6064 16.2653C54.4698 16.2653 54.3345 16.2383 54.2083 16.186C54.0821 16.1337 53.9674 16.057 53.8708 15.9604C53.7742 15.8637 53.6976 15.749 53.6454 15.6227C53.5931 15.4965 53.5663 15.3612 53.5663 15.2246C53.5663 14.9487 53.6759 14.6842 53.8709 14.4891C54.066 14.2941 54.3305 14.1845 54.6064 14.1845C54.8822 14.1845 55.1468 14.2941 55.3418 14.4891C55.5369 14.6842 55.6465 14.9487 55.6465 15.2246L55.6472 15.2253ZM68.7985 15.2253C68.7985 15.5011 68.6889 15.7656 68.4939 15.9607C68.2988 16.1558 68.0343 16.2653 67.7585 16.2653C67.4826 16.2653 67.2181 16.1558 67.023 15.9607C66.828 15.7656 66.7184 15.5011 66.7184 15.2253C66.7184 14.9494 66.828 14.6849 67.023 14.4898C67.2181 14.2948 67.4826 14.1852 67.7585 14.1852C68.0343 14.1852 68.2988 14.2948 68.4939 14.4898C68.6889 14.6849 68.7985 14.9494 68.7985 15.2253ZM81.9506 15.2253C81.9506 15.5011 81.841 15.7656 81.646 15.9607C81.4509 16.1558 81.1864 16.2653 80.9105 16.2653C80.6347 16.2653 80.3701 16.1558 80.1751 15.9607C79.98 15.7656 79.8705 15.5011 79.8705 15.2253C79.8705 14.9494 79.98 14.6849 80.1751 14.4898C80.3701 14.2948 80.6347 14.1852 80.9105 14.1852C81.1864 14.1852 81.4509 14.2948 81.646 14.4898C81.841 14.6849 81.9506 14.9494 81.9506 15.2253ZM95.1034 15.2253C95.1033 15.5012 94.9936 15.7658 94.7984 15.9608C94.6032 16.1559 94.3385 16.2654 94.0626 16.2653C93.7867 16.2652 93.5221 16.1555 93.327 15.9604C93.132 15.7652 93.0224 15.5005 93.0225 15.2246C93.0225 14.9486 93.1321 14.684 93.3272 14.4889C93.5224 14.2938 93.787 14.1841 94.0629 14.1841C94.3389 14.1841 94.6035 14.2938 94.7986 14.4889C94.9937 14.684 95.1034 14.9486 95.1034 15.2246V15.2253ZM108.255 15.2253C108.255 15.5012 108.146 15.7658 107.95 15.9608C107.755 16.1559 107.491 16.2654 107.215 16.2653C106.939 16.2652 106.674 16.1555 106.479 15.9604C106.284 15.7652 106.174 15.5005 106.175 15.2246C106.175 14.9487 106.284 14.6842 106.479 14.4891C106.674 14.2941 106.939 14.1845 107.215 14.1845C107.49 14.1845 107.755 14.2941 107.95 14.4891C108.145 14.6842 108.255 14.9487 108.255 15.2246L108.255 15.2253ZM121.407 15.2253C121.407 15.5013 121.298 15.766 121.102 15.9611C120.907 16.1562 120.642 16.2658 120.366 16.2657C120.09 16.2656 119.826 16.1558 119.631 15.9606C119.435 15.7654 119.326 15.5006 119.326 15.2246C119.326 14.9485 119.436 14.6838 119.631 14.4886C119.826 14.2935 120.091 14.1838 120.367 14.1838C120.643 14.1838 120.907 14.2935 121.103 14.4886C121.298 14.6838 121.407 14.9485 121.407 15.2246V15.2253ZM134.559 15.2253C134.559 15.3618 134.532 15.4971 134.48 15.6233C134.427 15.7494 134.351 15.8641 134.254 15.9606C134.157 16.0571 134.043 16.1337 133.917 16.1859C133.79 16.2382 133.655 16.265 133.518 16.265C133.382 16.2649 133.247 16.238 133.12 16.1857C132.994 16.1334 132.88 16.0567 132.783 15.9601C132.687 15.8635 132.61 15.7488 132.558 15.6226C132.506 15.4964 132.479 15.3611 132.479 15.2246C132.479 14.9487 132.588 14.6842 132.783 14.4891C132.978 14.2941 133.243 14.1845 133.519 14.1845C133.795 14.1845 134.059 14.2941 134.254 14.4891C134.449 14.6842 134.559 14.9487 134.559 15.2246V15.2253ZM147.711 15.2253C147.711 15.5012 147.601 15.7658 147.406 15.9608C147.211 16.1559 146.946 16.2654 146.67 16.2653C146.394 16.2652 146.13 16.1555 145.935 15.9604C145.74 15.7652 145.63 15.5005 145.63 15.2246C145.63 14.9486 145.74 14.684 145.935 14.4889C146.13 14.2938 146.395 14.1841 146.671 14.1841C146.946 14.1841 147.211 14.2938 147.406 14.4889C147.601 14.684 147.711 14.9486 147.711 15.2246V15.2253ZM3.03889 28.5534C3.04408 28.6931 3.02107 28.8324 2.97122 28.963C2.92137 29.0936 2.84571 29.2128 2.74876 29.3135C2.65181 29.4142 2.53555 29.4943 2.40694 29.5491C2.27833 29.6038 2.14001 29.6321 2.00023 29.6322C1.86045 29.6323 1.72208 29.6042 1.5934 29.5496C1.46471 29.495 1.34836 29.4151 1.25127 29.3145C1.15419 29.2139 1.07836 29.0948 1.02834 28.9643C0.978319 28.8338 0.955117 28.6945 0.960126 28.5548C0.969776 28.2857 1.08342 28.0309 1.27714 27.8438C1.47086 27.6568 1.72957 27.5522 1.99884 27.552C2.26811 27.5519 2.52696 27.6561 2.72093 27.8429C2.9149 28.0296 3.02888 28.2844 3.03889 28.5534ZM16.191 28.5534C16.191 28.8293 16.0814 29.0938 15.8863 29.2889C15.6913 29.4839 15.4267 29.5935 15.1509 29.5935C14.875 29.5935 14.6105 29.4839 14.4154 29.2889C14.2204 29.0938 14.1108 28.8293 14.1108 28.5534C14.1108 28.2776 14.2204 28.0131 14.4154 27.818C14.6105 27.623 14.875 27.5134 15.1509 27.5134C15.4267 27.5134 15.6913 27.623 15.8863 27.818C16.0814 28.0131 16.191 28.2776 16.191 28.5534ZM29.343 28.5534C29.343 28.8293 29.2334 29.0938 29.0384 29.2889C28.8433 29.4839 28.5788 29.5935 28.3029 29.5935C28.0271 29.5935 27.7626 29.4839 27.5675 29.2889C27.3724 29.0938 27.2629 28.8293 27.2629 28.5534C27.2629 28.2776 27.3724 28.0131 27.5675 27.818C27.7626 27.623 28.0271 27.5134 28.3029 27.5134C28.5788 27.5134 28.8433 27.623 29.0384 27.818C29.2334 28.0131 29.343 28.2776 29.343 28.5534ZM42.4951 28.5534C42.4951 28.8293 42.3855 29.0938 42.1905 29.2889C41.9954 29.4839 41.7309 29.5935 41.455 29.5935C41.1792 29.5935 40.9146 29.4839 40.7196 29.2889C40.5245 29.0938 40.4149 28.8293 40.4149 28.5534C40.4149 28.2776 40.5245 28.0131 40.7196 27.818C40.9146 27.623 41.1792 27.5134 41.455 27.5134C41.7309 27.5134 41.9954 27.623 42.1905 27.818C42.3855 28.0131 42.4951 28.2776 42.4951 28.5534ZM55.6472 28.5534C55.6472 28.8293 55.5376 29.0938 55.3425 29.2889C55.1475 29.4839 54.8829 29.5935 54.6071 29.5935C54.3312 29.5935 54.0667 29.4839 53.8716 29.2889C53.6766 29.0938 53.567 28.8293 53.567 28.5534C53.567 28.2776 53.6766 28.0131 53.8716 27.818C54.0667 27.623 54.3312 27.5134 54.6071 27.5134C54.8829 27.5134 55.1475 27.623 55.3425 27.818C55.5376 28.0131 55.6472 28.2776 55.6472 28.5534ZM68.7985 28.5534C68.8037 28.6931 68.7807 28.8324 68.7309 28.963C68.681 29.0936 68.6054 29.2128 68.5084 29.3135C68.4114 29.4142 68.2952 29.4943 68.1666 29.5491C68.038 29.6038 67.8996 29.6321 67.7599 29.6322C67.6201 29.6323 67.4817 29.6042 67.353 29.5496C67.2243 29.495 67.108 29.4151 67.0109 29.3145C66.9138 29.2139 66.838 29.0948 66.788 28.9643C66.738 28.8338 66.7148 28.6945 66.7198 28.5548C66.7294 28.2857 66.8431 28.0309 67.0368 27.8438C67.2305 27.6568 67.4892 27.5522 67.7585 27.552C68.0277 27.5519 68.2866 27.6561 68.4806 27.8429C68.6745 28.0296 68.7885 28.2844 68.7985 28.5534ZM81.9506 28.5534C81.9558 28.6931 81.9328 28.8324 81.8829 28.963C81.8331 29.0936 81.7574 29.2128 81.6605 29.3135C81.5635 29.4142 81.4473 29.4943 81.3187 29.5491C81.19 29.6038 81.0517 29.6321 80.9119 29.6322C80.7722 29.6323 80.6338 29.6042 80.5051 29.5496C80.3764 29.495 80.2601 29.4151 80.163 29.3145C80.0659 29.2139 79.9901 29.0948 79.94 28.9643C79.89 28.8338 79.8668 28.6945 79.8718 28.5548C79.8815 28.2857 79.9951 28.0309 80.1888 27.8438C80.3826 27.6568 80.6413 27.5522 80.9105 27.552C81.1798 27.5519 81.4387 27.6561 81.6326 27.8429C81.8266 28.0296 81.9406 28.2844 81.9506 28.5534ZM95.1034 28.5534C95.1034 28.8293 94.9938 29.0938 94.7987 29.2889C94.6037 29.4839 94.3391 29.5935 94.0633 29.5935C93.7874 29.5935 93.5229 29.4839 93.3278 29.2889C93.1328 29.0938 93.0232 28.8293 93.0232 28.5534C93.0232 28.2776 93.1328 28.0131 93.3278 27.818C93.5229 27.623 93.7874 27.5134 94.0633 27.5134C94.3391 27.5134 94.6037 27.623 94.7987 27.818C94.9938 28.0131 95.1034 28.2776 95.1034 28.5534ZM108.255 28.5534C108.255 28.8293 108.146 29.0938 107.951 29.2889C107.756 29.4839 107.491 29.5935 107.215 29.5935C106.94 29.5935 106.675 29.4839 106.48 29.2889C106.285 29.0938 106.175 28.8293 106.175 28.5534C106.175 28.2776 106.285 28.0131 106.48 27.818C106.675 27.623 106.94 27.5134 107.215 27.5134C107.491 27.5134 107.756 27.623 107.951 27.818C108.146 28.0131 108.255 28.2776 108.255 28.5534ZM121.407 28.5534C121.407 28.8293 121.298 29.0938 121.103 29.2889C120.908 29.4839 120.643 29.5935 120.367 29.5935C120.092 29.5935 119.827 29.4839 119.632 29.2889C119.437 29.0938 119.327 28.8293 119.327 28.5534C119.327 28.2776 119.437 28.0131 119.632 27.818C119.827 27.623 120.092 27.5134 120.367 27.5134C120.643 27.5134 120.908 27.623 121.103 27.818C121.298 28.0131 121.407 28.2776 121.407 28.5534ZM134.559 28.5534C134.559 28.8293 134.449 29.0938 134.254 29.2889C134.059 29.4839 133.795 29.5935 133.519 29.5935C133.243 29.5935 132.978 29.4839 132.783 29.2889C132.588 29.0938 132.479 28.8293 132.479 28.5534C132.479 28.2776 132.588 28.0131 132.783 27.818C132.978 27.623 133.243 27.5134 133.519 27.5134C133.795 27.5134 134.059 27.623 134.254 27.818C134.449 28.0131 134.559 28.2776 134.559 28.5534ZM147.711 28.5534C147.711 28.8293 147.601 29.0938 147.406 29.2889C147.211 29.4839 146.947 29.5935 146.671 29.5935C146.395 29.5935 146.13 29.4839 145.935 29.2889C145.74 29.0938 145.631 28.8293 145.631 28.5534C145.631 28.2776 145.74 28.0131 145.935 27.818C146.13 27.623 146.395 27.5134 146.671 27.5134C146.947 27.5134 147.211 27.623 147.406 27.818C147.601 28.0131 147.711 28.2776 147.711 28.5534ZM3.03889 41.883C3.04404 42.0227 3.02097 42.162 2.97108 42.2926C2.92119 42.4231 2.84549 42.5423 2.74851 42.643C2.65152 42.7436 2.53524 42.8237 2.40662 42.8784C2.27799 42.9331 2.13965 42.9614 1.99987 42.9614C1.86009 42.9615 1.72173 42.9333 1.59306 42.8787C1.4644 42.8241 1.34806 42.7441 1.25101 42.6435C1.15396 42.5429 1.07818 42.4238 1.0282 42.2932C0.978225 42.1627 0.95507 42.0234 0.960126 41.8837C0.969867 41.6146 1.08359 41.3598 1.27738 41.1728C1.47116 40.9859 1.7299 40.8814 1.99917 40.8813C2.26844 40.8812 2.52725 40.9855 2.72116 41.1723C2.91507 41.3592 3.02897 41.6139 3.03889 41.883ZM16.191 41.883C16.191 42.1589 16.0814 42.4234 15.8863 42.6185C15.6913 42.8135 15.4267 42.9231 15.1509 42.9231C14.875 42.9231 14.6105 42.8135 14.4154 42.6185C14.2204 42.4234 14.1108 42.1589 14.1108 41.883C14.1108 41.6072 14.2204 41.3426 14.4154 41.1476C14.6105 40.9525 14.875 40.8429 15.1509 40.8429C15.4267 40.8429 15.6913 40.9525 15.8863 41.1476C16.0814 41.3426 16.191 41.6072 16.191 41.883ZM29.343 41.883C29.343 42.1589 29.2334 42.4234 29.0384 42.6185C28.8433 42.8135 28.5788 42.9231 28.3029 42.9231C28.0271 42.9231 27.7626 42.8135 27.5675 42.6185C27.3724 42.4234 27.2629 42.1589 27.2629 41.883C27.2629 41.6072 27.3724 41.3426 27.5675 41.1476C27.7626 40.9525 28.0271 40.8429 28.3029 40.8429C28.5788 40.8429 28.8433 40.9525 29.0384 41.1476C29.2334 41.3426 29.343 41.6072 29.343 41.883ZM42.4951 41.883C42.4951 42.1589 42.3855 42.4234 42.1905 42.6185C41.9954 42.8135 41.7309 42.9231 41.455 42.9231C41.1792 42.9231 40.9146 42.8135 40.7196 42.6185C40.5245 42.4234 40.4149 42.1589 40.4149 41.883C40.4149 41.6072 40.5245 41.3426 40.7196 41.1476C40.9146 40.9525 41.1792 40.8429 41.455 40.8429C41.7309 40.8429 41.9954 40.9525 42.1905 41.1476C42.3855 41.3426 42.4951 41.6072 42.4951 41.883ZM55.6472 41.883C55.6472 42.1589 55.5376 42.4234 55.3425 42.6185C55.1475 42.8135 54.8829 42.9231 54.6071 42.9231C54.3312 42.9231 54.0667 42.8135 53.8716 42.6185C53.6766 42.4234 53.567 42.1589 53.567 41.883C53.567 41.6072 53.6766 41.3426 53.8716 41.1476C54.0667 40.9525 54.3312 40.8429 54.6071 40.8429C54.8829 40.8429 55.1475 40.9525 55.3425 41.1476C55.5376 41.3426 55.6472 41.6072 55.6472 41.883ZM68.7985 41.883C68.8037 42.0227 68.7806 42.162 68.7307 42.2926C68.6808 42.4231 68.6051 42.5423 68.5081 42.643C68.4112 42.7436 68.2949 42.8237 68.1663 42.8784C68.0376 42.9331 67.8993 42.9614 67.7595 42.9614C67.6197 42.9615 67.4814 42.9333 67.3527 42.8787C67.224 42.8241 67.1077 42.7441 67.0107 42.6435C66.9136 42.5429 66.8378 42.4238 66.7878 42.2932C66.7379 42.1627 66.7147 42.0234 66.7198 41.8837C66.7295 41.6146 66.8432 41.3598 67.037 41.1728C67.2308 40.9859 67.4895 40.8814 67.7588 40.8813C68.0281 40.8812 68.2869 40.9855 68.4808 41.1723C68.6747 41.3592 68.7886 41.6139 68.7985 41.883ZM81.9506 41.883C81.9557 42.0227 81.9327 42.162 81.8828 42.2926C81.8329 42.4231 81.7572 42.5423 81.6602 42.643C81.5632 42.7436 81.4469 42.8237 81.3183 42.8784C81.1897 42.9331 81.0514 42.9614 80.9116 42.9614C80.7718 42.9615 80.6334 42.9333 80.5048 42.8787C80.3761 42.8241 80.2598 42.7441 80.1627 42.6435C80.0657 42.5429 79.9899 42.4238 79.9399 42.2932C79.8899 42.1627 79.8668 42.0234 79.8718 41.8837C79.8816 41.6146 79.9953 41.3598 80.1891 41.1728C80.3829 40.9859 80.6416 40.8814 80.9109 40.8813C81.1802 40.8812 81.439 40.9855 81.6329 41.1723C81.8268 41.3592 81.9407 41.6139 81.9506 41.883ZM95.1034 41.883C95.1034 42.1589 94.9938 42.4234 94.7987 42.6185C94.6037 42.8135 94.3391 42.9231 94.0633 42.9231C93.7874 42.9231 93.5229 42.8135 93.3278 42.6185C93.1328 42.4234 93.0232 42.1589 93.0232 41.883C93.0232 41.6072 93.1328 41.3426 93.3278 41.1476C93.5229 40.9525 93.7874 40.8429 94.0633 40.8429C94.3391 40.8429 94.6037 40.9525 94.7987 41.1476C94.9938 41.3426 95.1034 41.6072 95.1034 41.883ZM108.255 41.883C108.255 42.1589 108.146 42.4234 107.951 42.6185C107.756 42.8135 107.491 42.9231 107.215 42.9231C106.94 42.9231 106.675 42.8135 106.48 42.6185C106.285 42.4234 106.175 42.1589 106.175 41.883C106.175 41.6072 106.285 41.3426 106.48 41.1476C106.675 40.9525 106.94 40.8429 107.215 40.8429C107.491 40.8429 107.756 40.9525 107.951 41.1476C108.146 41.3426 108.255 41.6072 108.255 41.883ZM121.407 41.883C121.407 42.1589 121.298 42.4234 121.103 42.6185C120.908 42.8135 120.643 42.9231 120.367 42.9231C120.092 42.9231 119.827 42.8135 119.632 42.6185C119.437 42.4234 119.327 42.1589 119.327 41.883C119.327 41.6072 119.437 41.3426 119.632 41.1476C119.827 40.9525 120.092 40.8429 120.367 40.8429C120.643 40.8429 120.908 40.9525 121.103 41.1476C121.298 41.3426 121.407 41.6072 121.407 41.883ZM134.559 41.883C134.559 42.1589 134.449 42.4234 134.254 42.6185C134.059 42.8135 133.795 42.9231 133.519 42.9231C133.243 42.9231 132.978 42.8135 132.783 42.6185C132.588 42.4234 132.479 42.1589 132.479 41.883C132.479 41.6072 132.588 41.3426 132.783 41.1476C132.978 40.9525 133.243 40.8429 133.519 40.8429C133.795 40.8429 134.059 40.9525 134.254 41.1476C134.449 41.3426 134.559 41.6072 134.559 41.883ZM147.711 41.883C147.711 42.1589 147.601 42.4234 147.406 42.6185C147.211 42.8135 146.947 42.9231 146.671 42.9231C146.395 42.9231 146.13 42.8135 145.935 42.6185C145.74 42.4234 145.631 42.1589 145.631 41.883C145.631 41.6072 145.74 41.3426 145.935 41.1476C146.13 40.9525 146.395 40.8429 146.671 40.8429C146.947 40.8429 147.211 40.9525 147.406 41.1476C147.601 41.3426 147.711 41.6072 147.711 41.883ZM3.03889 55.2119C3.04404 55.3516 3.02097 55.4909 2.97108 55.6214C2.92119 55.752 2.84549 55.8712 2.74851 55.9719C2.65152 56.0725 2.53524 56.1526 2.40662 56.2073C2.27799 56.262 2.13965 56.2902 1.99987 56.2903C1.86009 56.2903 1.72173 56.2622 1.59306 56.2076C1.4644 56.153 1.34806 56.0729 1.25101 55.9724C1.15396 55.8718 1.07818 55.7526 1.0282 55.6221C0.978225 55.4916 0.95507 55.3523 0.960126 55.2126C0.969867 54.9435 1.08359 54.6887 1.27738 54.5017C1.47116 54.3147 1.7299 54.2102 1.99917 54.2101C2.26844 54.21 2.52725 54.3144 2.72116 54.5012C2.91507 54.6881 3.02897 54.9428 3.03889 55.2119ZM16.191 55.2119C16.191 55.4877 16.0814 55.7523 15.8863 55.9473C15.6913 56.1424 15.4267 56.252 15.1509 56.252C14.875 56.252 14.6105 56.1424 14.4154 55.9473C14.2204 55.7523 14.1108 55.4877 14.1108 55.2119C14.1108 54.9361 14.2204 54.6715 14.4154 54.4765C14.6105 54.2814 14.875 54.1718 15.1509 54.1718C15.4267 54.1718 15.6913 54.2814 15.8863 54.4765C16.0814 54.6715 16.191 54.9361 16.191 55.2119ZM29.343 55.2119C29.343 55.4877 29.2334 55.7523 29.0384 55.9473C28.8433 56.1424 28.5788 56.252 28.3029 56.252C28.0271 56.252 27.7626 56.1424 27.5675 55.9473C27.3724 55.7523 27.2629 55.4877 27.2629 55.2119C27.2629 54.9361 27.3724 54.6715 27.5675 54.4765C27.7626 54.2814 28.0271 54.1718 28.3029 54.1718C28.5788 54.1718 28.8433 54.2814 29.0384 54.4765C29.2334 54.6715 29.343 54.9361 29.343 55.2119ZM42.4951 55.2119C42.4951 55.4877 42.3855 55.7523 42.1905 55.9473C41.9954 56.1424 41.7309 56.252 41.455 56.252C41.1792 56.252 40.9146 56.1424 40.7196 55.9473C40.5245 55.7523 40.4149 55.4877 40.4149 55.2119C40.4149 54.9361 40.5245 54.6715 40.7196 54.4765C40.9146 54.2814 41.1792 54.1718 41.455 54.1718C41.7309 54.1718 41.9954 54.2814 42.1905 54.4765C42.3855 54.6715 42.4951 54.9361 42.4951 55.2119ZM55.6472 55.2119C55.6472 55.4877 55.5376 55.7523 55.3425 55.9473C55.1475 56.1424 54.8829 56.252 54.6071 56.252C54.3312 56.252 54.0667 56.1424 53.8716 55.9473C53.6766 55.7523 53.567 55.4877 53.567 55.2119C53.567 54.9361 53.6766 54.6715 53.8716 54.4765C54.0667 54.2814 54.3312 54.1718 54.6071 54.1718C54.8829 54.1718 55.1475 54.2814 55.3425 54.4765C55.5376 54.6715 55.6472 54.9361 55.6472 55.2119ZM68.7985 55.2119C68.8037 55.3516 68.7806 55.4909 68.7307 55.6214C68.6808 55.752 68.6051 55.8712 68.5081 55.9719C68.4112 56.0725 68.2949 56.1526 68.1663 56.2073C68.0376 56.262 67.8993 56.2902 67.7595 56.2903C67.6197 56.2903 67.4814 56.2622 67.3527 56.2076C67.224 56.153 67.1077 56.0729 67.0107 55.9724C66.9136 55.8718 66.8378 55.7526 66.7878 55.6221C66.7379 55.4916 66.7147 55.3523 66.7198 55.2126C66.7295 54.9435 66.8432 54.6887 67.037 54.5017C67.2308 54.3147 67.4895 54.2102 67.7588 54.2101C68.0281 54.21 68.2869 54.3144 68.4808 54.5012C68.6747 54.6881 68.7886 54.9428 68.7985 55.2119ZM81.9506 55.2119C81.9557 55.3516 81.9327 55.4909 81.8828 55.6214C81.8329 55.752 81.7572 55.8712 81.6602 55.9719C81.5632 56.0725 81.4469 56.1526 81.3183 56.2073C81.1897 56.262 81.0514 56.2902 80.9116 56.2903C80.7718 56.2903 80.6334 56.2622 80.5048 56.2076C80.3761 56.153 80.2598 56.0729 80.1627 55.9724C80.0657 55.8718 79.9899 55.7526 79.9399 55.6221C79.8899 55.4916 79.8668 55.3523 79.8718 55.2126C79.8816 54.9435 79.9953 54.6887 80.1891 54.5017C80.3829 54.3147 80.6416 54.2102 80.9109 54.2101C81.1802 54.21 81.439 54.3144 81.6329 54.5012C81.8268 54.6881 81.9407 54.9428 81.9506 55.2119ZM95.1034 55.2119C95.1034 55.4877 94.9938 55.7523 94.7987 55.9473C94.6037 56.1424 94.3391 56.252 94.0633 56.252C93.7874 56.252 93.5229 56.1424 93.3278 55.9473C93.1328 55.7523 93.0232 55.4877 93.0232 55.2119C93.0232 54.9361 93.1328 54.6715 93.3278 54.4765C93.5229 54.2814 93.7874 54.1718 94.0633 54.1718C94.3391 54.1718 94.6037 54.2814 94.7987 54.4765C94.9938 54.6715 95.1034 54.9361 95.1034 55.2119ZM108.255 55.2119C108.255 55.4877 108.146 55.7523 107.951 55.9473C107.756 56.1424 107.491 56.252 107.215 56.252C106.94 56.252 106.675 56.1424 106.48 55.9473C106.285 55.7523 106.175 55.4877 106.175 55.2119C106.175 54.9361 106.285 54.6715 106.48 54.4765C106.675 54.2814 106.94 54.1718 107.215 54.1718C107.491 54.1718 107.756 54.2814 107.951 54.4765C108.146 54.6715 108.255 54.9361 108.255 55.2119ZM121.407 55.2119C121.407 55.4877 121.298 55.7523 121.103 55.9473C120.908 56.1424 120.643 56.252 120.367 56.252C120.092 56.252 119.827 56.1424 119.632 55.9473C119.437 55.7523 119.327 55.4877 119.327 55.2119C119.327 54.9361 119.437 54.6715 119.632 54.4765C119.827 54.2814 120.092 54.1718 120.367 54.1718C120.643 54.1718 120.908 54.2814 121.103 54.4765C121.298 54.6715 121.407 54.9361 121.407 55.2119ZM134.559 55.2119C134.559 55.4877 134.449 55.7523 134.254 55.9473C134.059 56.1424 133.795 56.252 133.519 56.252C133.243 56.252 132.978 56.1424 132.783 55.9473C132.588 55.7523 132.479 55.4877 132.479 55.2119C132.479 54.9361 132.588 54.6715 132.783 54.4765C132.978 54.2814 133.243 54.1718 133.519 54.1718C133.795 54.1718 134.059 54.2814 134.254 54.4765C134.449 54.6715 134.559 54.9361 134.559 55.2119ZM147.711 55.2119C147.711 55.4877 147.601 55.7523 147.406 55.9473C147.211 56.1424 146.947 56.252 146.671 56.252C146.395 56.252 146.13 56.1424 145.935 55.9473C145.74 55.7523 145.631 55.4877 145.631 55.2119C145.631 54.9361 145.74 54.6715 145.935 54.4765C146.13 54.2814 146.395 54.1718 146.671 54.1718C146.947 54.1718 147.211 54.2814 147.406 54.4765C147.601 54.6715 147.711 54.9361 147.711 55.2119ZM3.03889 68.5408C3.04404 68.6805 3.02097 68.8197 2.97108 68.9503C2.92119 69.0809 2.84549 69.2001 2.74851 69.3007C2.65152 69.4014 2.53524 69.4815 2.40662 69.5362C2.27799 69.5909 2.13965 69.6191 1.99987 69.6192C1.86009 69.6192 1.72173 69.5911 1.59306 69.5365C1.4644 69.4818 1.34806 69.4018 1.25101 69.3012C1.15396 69.2006 1.07818 69.0815 1.0282 68.951C0.978225 68.8204 0.95507 68.6812 0.960126 68.5415C0.969867 68.2724 1.08359 68.0175 1.27738 67.8306C1.47116 67.6436 1.7299 67.5391 1.99917 67.539C2.26844 67.5389 2.52725 67.6433 2.72116 67.8301C2.91507 68.0169 3.02897 68.2717 3.03889 68.5408ZM16.191 68.5408C16.191 68.8166 16.0814 69.0812 15.8863 69.2762C15.6913 69.4713 15.4267 69.5808 15.1509 69.5808C14.875 69.5808 14.6105 69.4713 14.4154 69.2762C14.2204 69.0812 14.1108 68.8166 14.1108 68.5408C14.1108 68.2649 14.2204 68.0004 14.4154 67.8053C14.6105 67.6103 14.875 67.5007 15.1509 67.5007C15.4267 67.5007 15.6913 67.6103 15.8863 67.8053C16.0814 68.0004 16.191 68.2649 16.191 68.5408ZM29.343 68.5408C29.343 68.8166 29.2334 69.0812 29.0384 69.2762C28.8433 69.4713 28.5788 69.5808 28.3029 69.5808C28.0271 69.5808 27.7626 69.4713 27.5675 69.2762C27.3724 69.0812 27.2629 68.8166 27.2629 68.5408C27.2629 68.2649 27.3724 68.0004 27.5675 67.8053C27.7626 67.6103 28.0271 67.5007 28.3029 67.5007C28.5788 67.5007 28.8433 67.6103 29.0384 67.8053C29.2334 68.0004 29.343 68.2649 29.343 68.5408ZM42.4951 68.5408C42.4951 68.8166 42.3855 69.0812 42.1905 69.2762C41.9954 69.4713 41.7309 69.5808 41.455 69.5808C41.1792 69.5808 40.9146 69.4713 40.7196 69.2762C40.5245 69.0812 40.4149 68.8166 40.4149 68.5408C40.4149 68.2649 40.5245 68.0004 40.7196 67.8053C40.9146 67.6103 41.1792 67.5007 41.455 67.5007C41.7309 67.5007 41.9954 67.6103 42.1905 67.8053C42.3855 68.0004 42.4951 68.2649 42.4951 68.5408ZM55.6472 68.5408C55.6472 68.8166 55.5376 69.0812 55.3425 69.2762C55.1475 69.4713 54.8829 69.5808 54.6071 69.5808C54.3312 69.5808 54.0667 69.4713 53.8716 69.2762C53.6766 69.0812 53.567 68.8166 53.567 68.5408C53.567 68.2649 53.6766 68.0004 53.8716 67.8053C54.0667 67.6103 54.3312 67.5007 54.6071 67.5007C54.8829 67.5007 55.1475 67.6103 55.3425 67.8053C55.5376 68.0004 55.6472 68.2649 55.6472 68.5408ZM68.7985 68.5408C68.8037 68.6805 68.7806 68.8197 68.7307 68.9503C68.6808 69.0809 68.6051 69.2001 68.5081 69.3007C68.4112 69.4014 68.2949 69.4815 68.1663 69.5362C68.0376 69.5909 67.8993 69.6191 67.7595 69.6192C67.6197 69.6192 67.4814 69.5911 67.3527 69.5365C67.224 69.4818 67.1077 69.4018 67.0107 69.3012C66.9136 69.2006 66.8378 69.0815 66.7878 68.951C66.7379 68.8204 66.7147 68.6812 66.7198 68.5415C66.7295 68.2724 66.8432 68.0175 67.037 67.8306C67.2308 67.6436 67.4895 67.5391 67.7588 67.539C68.0281 67.5389 68.2869 67.6433 68.4808 67.8301C68.6747 68.0169 68.7886 68.2717 68.7985 68.5408ZM81.9506 68.5408C81.9557 68.6805 81.9327 68.8197 81.8828 68.9503C81.8329 69.0809 81.7572 69.2001 81.6602 69.3007C81.5632 69.4014 81.4469 69.4815 81.3183 69.5362C81.1897 69.5909 81.0514 69.6191 80.9116 69.6192C80.7718 69.6192 80.6334 69.5911 80.5048 69.5365C80.3761 69.4818 80.2598 69.4018 80.1627 69.3012C80.0657 69.2006 79.9899 69.0815 79.9399 68.951C79.8899 68.8204 79.8668 68.6812 79.8718 68.5415C79.8816 68.2724 79.9953 68.0175 80.1891 67.8306C80.3829 67.6436 80.6416 67.5391 80.9109 67.539C81.1802 67.5389 81.439 67.6433 81.6329 67.8301C81.8268 68.0169 81.9407 68.2717 81.9506 68.5408ZM95.1034 68.5408C95.1034 68.8166 94.9938 69.0812 94.7987 69.2762C94.6037 69.4713 94.3391 69.5808 94.0633 69.5808C93.7874 69.5808 93.5229 69.4713 93.3278 69.2762C93.1328 69.0812 93.0232 68.8166 93.0232 68.5408C93.0232 68.2649 93.1328 68.0004 93.3278 67.8053C93.5229 67.6103 93.7874 67.5007 94.0633 67.5007C94.3391 67.5007 94.6037 67.6103 94.7987 67.8053C94.9938 68.0004 95.1034 68.2649 95.1034 68.5408ZM108.255 68.5408C108.255 68.8166 108.146 69.0812 107.951 69.2762C107.756 69.4713 107.491 69.5808 107.215 69.5808C106.94 69.5808 106.675 69.4713 106.48 69.2762C106.285 69.0812 106.175 68.8166 106.175 68.5408C106.175 68.2649 106.285 68.0004 106.48 67.8053C106.675 67.6103 106.94 67.5007 107.215 67.5007C107.491 67.5007 107.756 67.6103 107.951 67.8053C108.146 68.0004 108.255 68.2649 108.255 68.5408ZM121.407 68.5408C121.407 68.8166 121.298 69.0812 121.103 69.2762C120.908 69.4713 120.643 69.5808 120.367 69.5808C120.092 69.5808 119.827 69.4713 119.632 69.2762C119.437 69.0812 119.327 68.8166 119.327 68.5408C119.327 68.2649 119.437 68.0004 119.632 67.8053C119.827 67.6103 120.092 67.5007 120.367 67.5007C120.643 67.5007 120.908 67.6103 121.103 67.8053C121.298 68.0004 121.407 68.2649 121.407 68.5408ZM134.559 68.5408C134.559 68.8166 134.449 69.0812 134.254 69.2762C134.059 69.4713 133.795 69.5808 133.519 69.5808C133.243 69.5808 132.978 69.4713 132.783 69.2762C132.588 69.0812 132.479 68.8166 132.479 68.5408C132.479 68.2649 132.588 68.0004 132.783 67.8053C132.978 67.6103 133.243 67.5007 133.519 67.5007C133.795 67.5007 134.059 67.6103 134.254 67.8053C134.449 68.0004 134.559 68.2649 134.559 68.5408ZM147.711 68.5408C147.711 68.8166 147.601 69.0812 147.406 69.2762C147.211 69.4713 146.947 69.5808 146.671 69.5808C146.395 69.5808 146.13 69.4713 145.935 69.2762C145.74 69.0812 145.631 68.8166 145.631 68.5408C145.631 68.2649 145.74 68.0004 145.935 67.8053C146.13 67.6103 146.395 67.5007 146.671 67.5007C146.947 67.5007 147.211 67.6103 147.406 67.8053C147.601 68.0004 147.711 68.2649 147.711 68.5408ZM3.03889 81.8703C3.03889 82.1462 2.92931 82.4107 2.73426 82.6058C2.5392 82.8008 2.27466 82.9104 1.99881 82.9104C1.72297 82.9104 1.45842 82.8008 1.26337 82.6058C1.06832 82.4107 0.95874 82.1462 0.95874 81.8703C0.95874 81.5945 1.06832 81.33 1.26337 81.1349C1.45842 80.9398 1.72297 80.8303 1.99881 80.8303C2.27466 80.8303 2.5392 80.9398 2.73426 81.1349C2.92931 81.33 3.03889 81.5945 3.03889 81.8703ZM16.191 81.8703C16.1909 82.0069 16.1639 82.1422 16.1115 82.2683C16.0592 82.3945 15.9825 82.5091 15.8858 82.6056C15.7892 82.7021 15.6745 82.7786 15.5483 82.8308C15.422 82.883 15.2868 82.9098 15.1502 82.9097C15.0136 82.9096 14.8784 82.8826 14.7522 82.8303C14.6261 82.7779 14.5115 82.7012 14.4149 82.6046C14.3184 82.508 14.2419 82.3933 14.1897 82.267C14.1375 82.1408 14.1107 82.0055 14.1108 81.869C14.1109 81.5931 14.2206 81.3286 14.4157 81.1336C14.6108 80.9386 14.8754 80.8291 15.1512 80.8292C15.4271 80.8293 15.6916 80.939 15.8866 81.1341C16.0816 81.3292 16.191 81.5945 16.191 81.8703ZM29.343 81.8703C29.3429 82.007 29.3159 82.1423 29.2636 82.2684C29.2112 82.3946 29.1345 82.5093 29.0378 82.6058C28.8425 82.8008 28.5779 82.9103 28.3019 82.9101C28.026 82.9099 27.7614 82.8001 27.5664 82.6049C27.3714 82.4096 27.262 82.1449 27.2622 81.869C27.2623 81.593 27.372 81.3284 27.5672 81.1334C27.7623 80.9383 28.027 80.8288 28.3029 80.8289C28.5789 80.829 28.8435 80.9387 29.0385 81.1339C29.2336 81.329 29.3431 81.5944 29.343 81.8703ZM42.4951 81.8703C42.495 82.007 42.468 82.1423 42.4156 82.2684C42.3633 82.3946 42.2865 82.5093 42.1899 82.6058C41.9946 82.8008 41.7299 82.9103 41.454 82.9101C41.178 82.9099 40.9135 82.8001 40.7185 82.6049C40.5235 82.4096 40.4141 82.1449 40.4142 81.869C40.4143 81.5931 40.524 81.3286 40.7191 81.1336C40.9142 80.9386 41.1788 80.8291 41.4547 80.8292C41.7305 80.8293 41.995 80.939 42.19 81.1341C42.385 81.3292 42.4945 81.5938 42.4944 81.8697L42.4951 81.8703ZM55.6472 81.8703C55.6471 82.007 55.6201 82.1423 55.5677 82.2684C55.5153 82.3946 55.4386 82.5093 55.3419 82.6058C55.2453 82.7024 55.1305 82.7789 55.0042 82.8311C54.878 82.8833 54.7427 82.9102 54.606 82.9101C54.4694 82.91 54.3341 82.883 54.2079 82.8306C54.0817 82.7782 53.9671 82.7015 53.8706 82.6049C53.774 82.5082 53.6974 82.3934 53.6452 82.2672C53.593 82.1409 53.5662 82.0056 53.5663 81.869C53.5664 81.5931 53.6761 81.3286 53.8712 81.1336C54.0663 80.9386 54.3309 80.8291 54.6067 80.8292C54.8826 80.8293 55.1471 80.939 55.3421 81.1341C55.5371 81.3292 55.6466 81.5938 55.6465 81.8697L55.6472 81.8703ZM68.7985 81.8703C68.7985 82.1462 68.6889 82.4107 68.4939 82.6058C68.2988 82.8008 68.0343 82.9104 67.7585 82.9104C67.4826 82.9104 67.2181 82.8008 67.023 82.6058C66.828 82.4107 66.7184 82.1462 66.7184 81.8703C66.7184 81.5945 66.828 81.33 67.023 81.1349C67.2181 80.9398 67.4826 80.8303 67.7585 80.8303C68.0343 80.8303 68.2988 80.9398 68.4939 81.1349C68.6889 81.33 68.7985 81.5945 68.7985 81.8703ZM81.9506 81.8703C81.9506 82.1462 81.841 82.4107 81.646 82.6058C81.4509 82.8008 81.1864 82.9104 80.9105 82.9104C80.6347 82.9104 80.3701 82.8008 80.1751 82.6058C79.98 82.4107 79.8705 82.1462 79.8705 81.8703C79.8705 81.5945 79.98 81.33 80.1751 81.1349C80.3701 80.9398 80.6347 80.8303 80.9105 80.8303C81.1864 80.8303 81.4509 80.9398 81.646 81.1349C81.841 81.33 81.9506 81.5945 81.9506 81.8703ZM95.1034 81.8703C95.1033 82.007 95.0763 82.1423 95.0239 82.2684C94.9715 82.3946 94.8948 82.5093 94.7981 82.6058C94.7015 82.7024 94.5867 82.7789 94.4604 82.8311C94.3342 82.8833 94.1989 82.9102 94.0622 82.9101C93.9256 82.91 93.7903 82.883 93.6641 82.8306C93.5379 82.7782 93.4233 82.7015 93.3268 82.6049C93.2302 82.5082 93.1536 82.3934 93.1014 82.2672C93.0492 82.1409 93.0224 82.0056 93.0225 81.869C93.0226 81.593 93.1323 81.3284 93.3275 81.1334C93.5227 80.9383 93.7873 80.8288 94.0633 80.8289C94.3392 80.829 94.6038 80.9387 94.7989 81.1339C94.9939 81.329 95.1034 81.5944 95.1034 81.8703ZM108.255 81.8703C108.255 82.007 108.228 82.1423 108.176 82.2684C108.124 82.3946 108.047 82.5093 107.95 82.6058C107.854 82.7024 107.739 82.7789 107.613 82.8311C107.486 82.8833 107.351 82.9102 107.214 82.9101C107.078 82.91 106.942 82.883 106.816 82.8306C106.69 82.7782 106.575 82.7015 106.479 82.6049C106.382 82.5082 106.306 82.3934 106.254 82.2672C106.201 82.1409 106.174 82.0056 106.175 81.869C106.175 81.5931 106.284 81.3286 106.479 81.1336C106.675 80.9386 106.939 80.8291 107.215 80.8292C107.491 80.8293 107.755 80.939 107.95 81.1341C108.145 81.3292 108.255 81.5938 108.255 81.8697L108.255 81.8703ZM121.407 81.8703C121.407 82.1464 121.297 82.411 121.102 82.6061C120.907 82.8011 120.642 82.9106 120.366 82.9104C120.09 82.9102 119.825 82.8004 119.63 82.6051C119.435 82.4098 119.326 82.145 119.326 81.869C119.326 81.7323 119.353 81.597 119.405 81.4707C119.458 81.3444 119.534 81.2297 119.631 81.1331C119.728 81.0365 119.842 80.9599 119.969 80.9076C120.095 80.8554 120.23 80.8285 120.367 80.8285C120.504 80.8286 120.639 80.8556 120.765 80.9079C120.892 80.9602 121.006 81.0369 121.103 81.1336C121.2 81.2303 121.276 81.3451 121.328 81.4713C121.381 81.5976 121.408 81.7337 121.407 81.8703ZM134.559 81.8703C134.559 82.1462 134.449 82.4107 134.254 82.6056C134.059 82.8005 133.794 82.9099 133.518 82.9097C133.242 82.9095 132.978 82.7998 132.783 82.6046C132.588 82.4094 132.479 82.1448 132.479 81.869C132.479 81.5931 132.588 81.3286 132.784 81.1336C132.979 80.9386 133.243 80.8291 133.519 80.8292C133.795 80.8293 134.059 80.939 134.254 81.1341C134.449 81.3292 134.559 81.5945 134.559 81.8703ZM147.711 81.8703C147.711 82.007 147.684 82.1423 147.631 82.2684C147.579 82.3946 147.502 82.5093 147.406 82.6058C147.309 82.7024 147.194 82.7789 147.068 82.8311C146.942 82.8833 146.806 82.9102 146.67 82.9101C146.533 82.91 146.398 82.883 146.272 82.8306C146.146 82.7782 146.031 82.7015 145.934 82.6049C145.838 82.5082 145.761 82.3934 145.709 82.2672C145.657 82.1409 145.63 82.0056 145.63 81.869C145.63 81.7323 145.657 81.597 145.709 81.4708C145.762 81.3446 145.838 81.2299 145.935 81.1334C146.032 81.0368 146.146 80.9602 146.273 80.908C146.399 80.8557 146.534 80.8288 146.671 80.8289C146.807 80.8289 146.943 80.8559 147.069 80.9082C147.195 80.9605 147.31 81.0372 147.406 81.1339C147.503 81.2305 147.58 81.3452 147.632 81.4715C147.684 81.5977 147.711 81.7337 147.711 81.8703ZM3.03889 95.1985C3.03889 95.4744 2.92931 95.7389 2.73426 95.934C2.5392 96.129 2.27466 96.2386 1.99881 96.2386C1.72297 96.2386 1.45842 96.129 1.26337 95.934C1.06832 95.7389 0.95874 95.4744 0.95874 95.1985C0.95874 94.9227 1.06832 94.6581 1.26337 94.4631C1.45842 94.268 1.72297 94.1585 1.99881 94.1585C2.27466 94.1585 2.5392 94.268 2.73426 94.4631C2.92931 94.6581 3.03889 94.9227 3.03889 95.1985ZM16.191 95.1985C16.191 95.4744 16.0814 95.7389 15.8863 95.934C15.6913 96.129 15.4267 96.2386 15.1509 96.2386C14.875 96.2386 14.6105 96.129 14.4154 95.934C14.2204 95.7389 14.1108 95.4744 14.1108 95.1985C14.1108 94.9227 14.2204 94.6581 14.4154 94.4631C14.6105 94.268 14.875 94.1585 15.1509 94.1585C15.4267 94.1585 15.6913 94.268 15.8863 94.4631C16.0814 94.6581 16.191 94.9227 16.191 95.1985ZM29.343 95.1985C29.343 95.4745 29.2334 95.7391 29.0383 95.9342C28.8432 96.1293 28.5785 96.239 28.3026 96.239C28.0267 96.239 27.762 96.1293 27.5669 95.9342C27.3718 95.7391 27.2622 95.4745 27.2622 95.1985C27.2622 94.9226 27.3718 94.658 27.5669 94.4629C27.762 94.2677 28.0267 94.1581 28.3026 94.1581C28.5785 94.1581 28.8432 94.2677 29.0383 94.4629C29.2334 94.658 29.343 94.9226 29.343 95.1985ZM42.4951 95.1985C42.4951 95.4745 42.3855 95.7391 42.1904 95.9342C41.9952 96.1293 41.7306 96.239 41.4547 96.239C41.1787 96.239 40.9141 96.1293 40.719 95.9342C40.5239 95.7391 40.4142 95.4745 40.4142 95.1985C40.4142 94.9227 40.5238 94.6581 40.7189 94.4631C40.9139 94.268 41.1785 94.1585 41.4543 94.1585C41.7302 94.1585 41.9947 94.268 42.1898 94.4631C42.3848 94.6581 42.4944 94.9227 42.4944 95.1985H42.4951ZM55.6472 95.1985C55.6472 95.4745 55.5375 95.7391 55.3424 95.9342C55.1473 96.1293 54.8827 96.239 54.6067 96.239C54.3308 96.239 54.0662 96.1293 53.871 95.9342C53.6759 95.7391 53.5663 95.4745 53.5663 95.1985C53.5663 94.9227 53.6759 94.6581 53.8709 94.4631C54.066 94.268 54.3305 94.1585 54.6064 94.1585C54.8822 94.1585 55.1468 94.268 55.3418 94.4631C55.5369 94.6581 55.6465 94.9227 55.6465 95.1985H55.6472ZM68.7985 95.1985C68.7985 95.4744 68.6889 95.7389 68.4939 95.934C68.2988 96.129 68.0343 96.2386 67.7585 96.2386C67.4826 96.2386 67.2181 96.129 67.023 95.934C66.828 95.7389 66.7184 95.4744 66.7184 95.1985C66.7184 94.9227 66.828 94.6581 67.023 94.4631C67.2181 94.268 67.4826 94.1585 67.7585 94.1585C68.0343 94.1585 68.2988 94.268 68.4939 94.4631C68.6889 94.6581 68.7985 94.9227 68.7985 95.1985ZM81.9506 95.1985C81.9506 95.4744 81.841 95.7389 81.646 95.934C81.4509 96.129 81.1864 96.2386 80.9105 96.2386C80.6347 96.2386 80.3701 96.129 80.1751 95.934C79.98 95.7389 79.8705 95.4744 79.8705 95.1985C79.8705 94.9227 79.98 94.6581 80.1751 94.4631C80.3701 94.268 80.6347 94.1585 80.9105 94.1585C81.1864 94.1585 81.4509 94.268 81.646 94.4631C81.841 94.6581 81.9506 94.9227 81.9506 95.1985ZM95.1034 95.1985C95.1034 95.4745 94.9937 95.7391 94.7986 95.9342C94.6035 96.1293 94.3389 96.239 94.0629 96.239C93.787 96.239 93.5224 96.1293 93.3272 95.9342C93.1321 95.7391 93.0225 95.4745 93.0225 95.1985C93.0225 94.9226 93.1321 94.658 93.3272 94.4629C93.5224 94.2677 93.787 94.1581 94.0629 94.1581C94.3389 94.1581 94.6035 94.2677 94.7986 94.4629C94.9937 94.658 95.1034 94.9226 95.1034 95.1985ZM108.255 95.1985C108.255 95.4745 108.146 95.7391 107.951 95.9342C107.756 96.1293 107.491 96.239 107.215 96.239C106.939 96.239 106.674 96.1293 106.479 95.9342C106.284 95.7391 106.175 95.4745 106.175 95.1985C106.175 94.9227 106.284 94.6581 106.479 94.4631C106.674 94.268 106.939 94.1585 107.215 94.1585C107.49 94.1585 107.755 94.268 107.95 94.4631C108.145 94.6581 108.255 94.9227 108.255 95.1985H108.255ZM121.407 95.1985C121.407 95.4746 121.298 95.7393 121.103 95.9345C120.907 96.1297 120.643 96.2393 120.367 96.2393C120.091 96.2393 119.826 96.1297 119.631 95.9345C119.436 95.7393 119.326 95.4746 119.326 95.1985C119.326 94.9225 119.436 94.6578 119.631 94.4626C119.826 94.2674 120.091 94.1578 120.367 94.1578C120.643 94.1578 120.907 94.2674 121.103 94.4626C121.298 94.6578 121.407 94.9225 121.407 95.1985ZM134.559 95.1985C134.559 95.4744 134.449 95.7389 134.254 95.934C134.059 96.129 133.795 96.2386 133.519 96.2386C133.243 96.2386 132.978 96.129 132.783 95.934C132.588 95.7389 132.479 95.4744 132.479 95.1985C132.479 94.9227 132.588 94.6581 132.783 94.4631C132.978 94.268 133.243 94.1585 133.519 94.1585C133.795 94.1585 134.059 94.268 134.254 94.4631C134.449 94.6581 134.559 94.9227 134.559 95.1985ZM147.711 95.1985C147.711 95.4745 147.601 95.7391 147.406 95.9342C147.211 96.1293 146.946 96.239 146.671 96.239C146.395 96.239 146.13 96.1293 145.935 95.9342C145.74 95.7391 145.63 95.4745 145.63 95.1985C145.63 94.9226 145.74 94.658 145.935 94.4629C146.13 94.2677 146.395 94.1581 146.671 94.1581C146.946 94.1581 147.211 94.2677 147.406 94.4629C147.601 94.658 147.711 94.9226 147.711 95.1985ZM3.03889 108.527C3.04404 108.667 3.02097 108.806 2.97108 108.937C2.92119 109.068 2.84549 109.187 2.74851 109.287C2.65152 109.388 2.53524 109.468 2.40662 109.523C2.27799 109.578 2.13965 109.606 1.99987 109.606C1.86009 109.606 1.72173 109.578 1.59306 109.523C1.4644 109.468 1.34806 109.388 1.25101 109.288C1.15396 109.187 1.07818 109.068 1.0282 108.938C0.978225 108.807 0.95507 108.668 0.960126 108.528C0.969867 108.259 1.08359 108.004 1.27738 107.817C1.47116 107.63 1.7299 107.526 1.99917 107.526C2.26844 107.526 2.52725 107.63 2.72116 107.817C2.91507 108.004 3.02897 108.258 3.03889 108.527ZM16.191 108.527C16.191 108.803 16.0814 109.068 15.8863 109.263C15.6913 109.458 15.4267 109.567 15.1509 109.567C14.875 109.567 14.6105 109.458 14.4154 109.263C14.2204 109.068 14.1108 108.803 14.1108 108.527C14.1108 108.252 14.2204 107.987 14.4154 107.792C14.6105 107.597 14.875 107.487 15.1509 107.487C15.4267 107.487 15.6913 107.597 15.8863 107.792C16.0814 107.987 16.191 108.252 16.191 108.527ZM29.343 108.527C29.343 108.803 29.2334 109.068 29.0384 109.263C28.8433 109.458 28.5788 109.567 28.3029 109.567C28.0271 109.567 27.7626 109.458 27.5675 109.263C27.3724 109.068 27.2629 108.803 27.2629 108.527C27.2629 108.252 27.3724 107.987 27.5675 107.792C27.7626 107.597 28.0271 107.487 28.3029 107.487C28.5788 107.487 28.8433 107.597 29.0384 107.792C29.2334 107.987 29.343 108.252 29.343 108.527ZM42.4951 108.527C42.4951 108.803 42.3855 109.068 42.1905 109.263C41.9954 109.458 41.7309 109.567 41.455 109.567C41.1792 109.567 40.9146 109.458 40.7196 109.263C40.5245 109.068 40.4149 108.803 40.4149 108.527C40.4149 108.252 40.5245 107.987 40.7196 107.792C40.9146 107.597 41.1792 107.487 41.455 107.487C41.7309 107.487 41.9954 107.597 42.1905 107.792C42.3855 107.987 42.4951 108.252 42.4951 108.527ZM55.6472 108.527C55.6472 108.803 55.5376 109.068 55.3425 109.263C55.1475 109.458 54.8829 109.567 54.6071 109.567C54.3312 109.567 54.0667 109.458 53.8716 109.263C53.6766 109.068 53.567 108.803 53.567 108.527C53.567 108.252 53.6766 107.987 53.8716 107.792C54.0667 107.597 54.3312 107.487 54.6071 107.487C54.8829 107.487 55.1475 107.597 55.3425 107.792C55.5376 107.987 55.6472 108.252 55.6472 108.527ZM68.7985 108.527C68.8037 108.667 68.7806 108.806 68.7307 108.937C68.6808 109.068 68.6051 109.187 68.5081 109.287C68.4112 109.388 68.2949 109.468 68.1663 109.523C68.0376 109.578 67.8993 109.606 67.7595 109.606C67.6197 109.606 67.4814 109.578 67.3527 109.523C67.224 109.468 67.1077 109.388 67.0107 109.288C66.9136 109.187 66.8378 109.068 66.7878 108.938C66.7379 108.807 66.7147 108.668 66.7198 108.528C66.7295 108.259 66.8432 108.004 67.037 107.817C67.2308 107.63 67.4895 107.526 67.7588 107.526C68.0281 107.526 68.2869 107.63 68.4808 107.817C68.6747 108.004 68.7886 108.258 68.7985 108.527ZM81.9506 108.527C81.9557 108.667 81.9327 108.806 81.8828 108.937C81.8329 109.068 81.7572 109.187 81.6602 109.287C81.5632 109.388 81.4469 109.468 81.3183 109.523C81.1897 109.578 81.0514 109.606 80.9116 109.606C80.7718 109.606 80.6334 109.578 80.5048 109.523C80.3761 109.468 80.2598 109.388 80.1627 109.288C80.0657 109.187 79.9899 109.068 79.9399 108.938C79.8899 108.807 79.8668 108.668 79.8718 108.528C79.8816 108.259 79.9953 108.004 80.1891 107.817C80.3829 107.63 80.6416 107.526 80.9109 107.526C81.1802 107.526 81.439 107.63 81.6329 107.817C81.8268 108.004 81.9407 108.258 81.9506 108.527ZM95.1034 108.527C95.1034 108.803 94.9938 109.068 94.7987 109.263C94.6037 109.458 94.3391 109.567 94.0633 109.567C93.7874 109.567 93.5229 109.458 93.3278 109.263C93.1328 109.068 93.0232 108.803 93.0232 108.527C93.0232 108.252 93.1328 107.987 93.3278 107.792C93.5229 107.597 93.7874 107.487 94.0633 107.487C94.3391 107.487 94.6037 107.597 94.7987 107.792C94.9938 107.987 95.1034 108.252 95.1034 108.527ZM108.255 108.527C108.255 108.803 108.146 109.068 107.951 109.263C107.756 109.458 107.491 109.567 107.215 109.567C106.94 109.567 106.675 109.458 106.48 109.263C106.285 109.068 106.175 108.803 106.175 108.527C106.175 108.252 106.285 107.987 106.48 107.792C106.675 107.597 106.94 107.487 107.215 107.487C107.491 107.487 107.756 107.597 107.951 107.792C108.146 107.987 108.255 108.252 108.255 108.527ZM121.407 108.527C121.407 108.803 121.298 109.068 121.103 109.263C120.908 109.458 120.643 109.567 120.367 109.567C120.092 109.567 119.827 109.458 119.632 109.263C119.437 109.068 119.327 108.803 119.327 108.527C119.327 108.252 119.437 107.987 119.632 107.792C119.827 107.597 120.092 107.487 120.367 107.487C120.643 107.487 120.908 107.597 121.103 107.792C121.298 107.987 121.407 108.252 121.407 108.527ZM134.559 108.527C134.559 108.803 134.449 109.068 134.254 109.263C134.059 109.458 133.795 109.567 133.519 109.567C133.243 109.567 132.978 109.458 132.783 109.263C132.588 109.068 132.479 108.803 132.479 108.527C132.479 108.252 132.588 107.987 132.783 107.792C132.978 107.597 133.243 107.487 133.519 107.487C133.795 107.487 134.059 107.597 134.254 107.792C134.449 107.987 134.559 108.252 134.559 108.527ZM147.711 108.527C147.711 108.803 147.601 109.068 147.406 109.263C147.211 109.458 146.947 109.567 146.671 109.567C146.395 109.567 146.13 109.458 145.935 109.263C145.74 109.068 145.631 108.803 145.631 108.527C145.631 108.252 145.74 107.987 145.935 107.792C146.13 107.597 146.395 107.487 146.671 107.487C146.947 107.487 147.211 107.597 147.406 107.792C147.601 107.987 147.711 108.252 147.711 108.527ZM3.03889 121.856C3.04408 121.996 3.02107 122.135 2.97122 122.266C2.92137 122.396 2.84571 122.516 2.74876 122.616C2.65181 122.717 2.53555 122.797 2.40694 122.852C2.27833 122.907 2.14001 122.935 2.00023 122.935C1.86045 122.935 1.72208 122.907 1.5934 122.852C1.46471 122.798 1.34836 122.718 1.25127 122.617C1.15419 122.517 1.07836 122.398 1.02834 122.267C0.978319 122.137 0.955117 121.997 0.960126 121.858C0.969776 121.589 1.08342 121.334 1.27714 121.147C1.47086 120.96 1.72957 120.855 1.99884 120.855C2.26811 120.855 2.52696 120.959 2.72093 121.146C2.9149 121.332 3.02888 121.587 3.03889 121.856ZM16.191 121.856C16.191 122.132 16.0814 122.397 15.8863 122.592C15.6913 122.787 15.4267 122.896 15.1509 122.896C14.875 122.896 14.6105 122.787 14.4154 122.592C14.2204 122.397 14.1108 122.132 14.1108 121.856C14.1108 121.58 14.2204 121.316 14.4154 121.121C14.6105 120.926 14.875 120.816 15.1509 120.816C15.4267 120.816 15.6913 120.926 15.8863 121.121C16.0814 121.316 16.191 121.58 16.191 121.856ZM29.343 121.856C29.343 122.132 29.2334 122.397 29.0384 122.592C28.8433 122.787 28.5788 122.896 28.3029 122.896C28.0271 122.896 27.7626 122.787 27.5675 122.592C27.3724 122.397 27.2629 122.132 27.2629 121.856C27.2629 121.58 27.3724 121.316 27.5675 121.121C27.7626 120.926 28.0271 120.816 28.3029 120.816C28.5788 120.816 28.8433 120.926 29.0384 121.121C29.2334 121.316 29.343 121.58 29.343 121.856ZM42.4951 121.856C42.4951 122.132 42.3855 122.397 42.1905 122.592C41.9954 122.787 41.7309 122.896 41.455 122.896C41.1792 122.896 40.9146 122.787 40.7196 122.592C40.5245 122.397 40.4149 122.132 40.4149 121.856C40.4149 121.58 40.5245 121.316 40.7196 121.121C40.9146 120.926 41.1792 120.816 41.455 120.816C41.7309 120.816 41.9954 120.926 42.1905 121.121C42.3855 121.316 42.4951 121.58 42.4951 121.856ZM55.6472 121.856C55.6472 122.132 55.5376 122.397 55.3425 122.592C55.1475 122.787 54.8829 122.896 54.6071 122.896C54.3312 122.896 54.0667 122.787 53.8716 122.592C53.6766 122.397 53.567 122.132 53.567 121.856C53.567 121.58 53.6766 121.316 53.8716 121.121C54.0667 120.926 54.3312 120.816 54.6071 120.816C54.8829 120.816 55.1475 120.926 55.3425 121.121C55.5376 121.316 55.6472 121.58 55.6472 121.856ZM68.7985 121.856C68.8037 121.996 68.7807 122.135 68.7309 122.266C68.681 122.396 68.6054 122.516 68.5084 122.616C68.4114 122.717 68.2952 122.797 68.1666 122.852C68.038 122.907 67.8996 122.935 67.7599 122.935C67.6201 122.935 67.4817 122.907 67.353 122.852C67.2243 122.798 67.108 122.718 67.0109 122.617C66.9138 122.517 66.838 122.398 66.788 122.267C66.738 122.137 66.7148 121.997 66.7198 121.858C66.7294 121.589 66.8431 121.334 67.0368 121.147C67.2305 120.96 67.4892 120.855 67.7585 120.855C68.0277 120.855 68.2866 120.959 68.4806 121.146C68.6745 121.332 68.7885 121.587 68.7985 121.856ZM81.9506 121.856C81.9558 121.996 81.9328 122.135 81.8829 122.266C81.8331 122.396 81.7574 122.516 81.6605 122.616C81.5635 122.717 81.4473 122.797 81.3187 122.852C81.19 122.907 81.0517 122.935 80.9119 122.935C80.7722 122.935 80.6338 122.907 80.5051 122.852C80.3764 122.798 80.2601 122.718 80.163 122.617C80.0659 122.517 79.9901 122.398 79.94 122.267C79.89 122.137 79.8668 121.997 79.8718 121.858C79.8815 121.589 79.9951 121.334 80.1888 121.147C80.3826 120.96 80.6413 120.855 80.9105 120.855C81.1798 120.855 81.4387 120.959 81.6326 121.146C81.8266 121.332 81.9406 121.587 81.9506 121.856ZM95.1034 121.856C95.1034 122.132 94.9938 122.397 94.7987 122.592C94.6037 122.787 94.3391 122.896 94.0633 122.896C93.7874 122.896 93.5229 122.787 93.3278 122.592C93.1328 122.397 93.0232 122.132 93.0232 121.856C93.0232 121.58 93.1328 121.316 93.3278 121.121C93.5229 120.926 93.7874 120.816 94.0633 120.816C94.3391 120.816 94.6037 120.926 94.7987 121.121C94.9938 121.316 95.1034 121.58 95.1034 121.856ZM108.255 121.856C108.255 122.132 108.146 122.397 107.951 122.592C107.756 122.787 107.491 122.896 107.215 122.896C106.94 122.896 106.675 122.787 106.48 122.592C106.285 122.397 106.175 122.132 106.175 121.856C106.175 121.58 106.285 121.316 106.48 121.121C106.675 120.926 106.94 120.816 107.215 120.816C107.491 120.816 107.756 120.926 107.951 121.121C108.146 121.316 108.255 121.58 108.255 121.856ZM121.407 121.856C121.407 122.132 121.298 122.397 121.103 122.592C120.908 122.787 120.643 122.896 120.367 122.896C120.092 122.896 119.827 122.787 119.632 122.592C119.437 122.397 119.327 122.132 119.327 121.856C119.327 121.58 119.437 121.316 119.632 121.121C119.827 120.926 120.092 120.816 120.367 120.816C120.643 120.816 120.908 120.926 121.103 121.121C121.298 121.316 121.407 121.58 121.407 121.856ZM134.559 121.856C134.559 122.132 134.449 122.397 134.254 122.592C134.059 122.787 133.795 122.896 133.519 122.896C133.243 122.896 132.978 122.787 132.783 122.592C132.588 122.397 132.479 122.132 132.479 121.856C132.479 121.58 132.588 121.316 132.783 121.121C132.978 120.926 133.243 120.816 133.519 120.816C133.795 120.816 134.059 120.926 134.254 121.121C134.449 121.316 134.559 121.58 134.559 121.856ZM147.711 121.856C147.711 122.132 147.601 122.397 147.406 122.592C147.211 122.787 146.947 122.896 146.671 122.896C146.395 122.896 146.13 122.787 145.935 122.592C145.74 122.397 145.631 122.132 145.631 121.856C145.631 121.58 145.74 121.316 145.935 121.121C146.13 120.926 146.395 120.816 146.671 120.816C146.947 120.816 147.211 120.926 147.406 121.121C147.601 121.316 147.711 121.58 147.711 121.856ZM3.03889 135.185C3.04408 135.325 3.02107 135.464 2.97122 135.595C2.92137 135.725 2.84571 135.845 2.74876 135.945C2.65181 136.046 2.53555 136.126 2.40694 136.181C2.27833 136.236 2.14001 136.264 2.00023 136.264C1.86045 136.264 1.72208 136.236 1.5934 136.181C1.46471 136.127 1.34836 136.047 1.25127 135.946C1.15419 135.846 1.07836 135.727 1.02834 135.596C0.978319 135.466 0.955117 135.326 0.960126 135.187C0.969776 134.917 1.08342 134.663 1.27714 134.476C1.47086 134.289 1.72957 134.184 1.99884 134.184C2.26811 134.184 2.52696 134.288 2.72093 134.475C2.9149 134.661 3.02888 134.916 3.03889 135.185ZM16.191 135.185C16.191 135.461 16.0814 135.726 15.8863 135.921C15.6913 136.116 15.4267 136.225 15.1509 136.225C14.875 136.225 14.6105 136.116 14.4154 135.921C14.2204 135.726 14.1108 135.461 14.1108 135.185C14.1108 134.909 14.2204 134.645 14.4154 134.45C14.6105 134.255 14.875 134.145 15.1509 134.145C15.4267 134.145 15.6913 134.255 15.8863 134.45C16.0814 134.645 16.191 134.909 16.191 135.185ZM29.343 135.185C29.343 135.461 29.2334 135.726 29.0384 135.921C28.8433 136.116 28.5788 136.225 28.3029 136.225C28.0271 136.225 27.7626 136.116 27.5675 135.921C27.3724 135.726 27.2629 135.461 27.2629 135.185C27.2629 134.909 27.3724 134.645 27.5675 134.45C27.7626 134.255 28.0271 134.145 28.3029 134.145C28.5788 134.145 28.8433 134.255 29.0384 134.45C29.2334 134.645 29.343 134.909 29.343 135.185ZM42.4951 135.185C42.4951 135.461 42.3855 135.726 42.1905 135.921C41.9954 136.116 41.7309 136.225 41.455 136.225C41.1792 136.225 40.9146 136.116 40.7196 135.921C40.5245 135.726 40.4149 135.461 40.4149 135.185C40.4149 134.909 40.5245 134.645 40.7196 134.45C40.9146 134.255 41.1792 134.145 41.455 134.145C41.7309 134.145 41.9954 134.255 42.1905 134.45C42.3855 134.645 42.4951 134.909 42.4951 135.185ZM55.6472 135.185C55.6472 135.461 55.5376 135.726 55.3425 135.921C55.1475 136.116 54.8829 136.225 54.6071 136.225C54.3312 136.225 54.0667 136.116 53.8716 135.921C53.6766 135.726 53.567 135.461 53.567 135.185C53.567 134.909 53.6766 134.645 53.8716 134.45C54.0667 134.255 54.3312 134.145 54.6071 134.145C54.8829 134.145 55.1475 134.255 55.3425 134.45C55.5376 134.645 55.6472 134.909 55.6472 135.185ZM68.7985 135.185C68.8037 135.325 68.7807 135.464 68.7309 135.595C68.681 135.725 68.6054 135.845 68.5084 135.945C68.4114 136.046 68.2952 136.126 68.1666 136.181C68.038 136.236 67.8996 136.264 67.7599 136.264C67.6201 136.264 67.4817 136.236 67.353 136.181C67.2243 136.127 67.108 136.047 67.0109 135.946C66.9138 135.846 66.838 135.727 66.788 135.596C66.738 135.466 66.7148 135.326 66.7198 135.187C66.7294 134.917 66.8431 134.663 67.0368 134.476C67.2305 134.289 67.4892 134.184 67.7585 134.184C68.0277 134.184 68.2866 134.288 68.4806 134.475C68.6745 134.661 68.7885 134.916 68.7985 135.185ZM81.9506 135.185C81.9558 135.325 81.9328 135.464 81.8829 135.595C81.8331 135.725 81.7574 135.845 81.6605 135.945C81.5635 136.046 81.4473 136.126 81.3187 136.181C81.19 136.236 81.0517 136.264 80.9119 136.264C80.7722 136.264 80.6338 136.236 80.5051 136.181C80.3764 136.127 80.2601 136.047 80.163 135.946C80.0659 135.846 79.9901 135.727 79.94 135.596C79.89 135.466 79.8668 135.326 79.8718 135.187C79.8815 134.917 79.9951 134.663 80.1888 134.476C80.3826 134.289 80.6413 134.184 80.9105 134.184C81.1798 134.184 81.4387 134.288 81.6326 134.475C81.8266 134.661 81.9406 134.916 81.9506 135.185ZM95.1034 135.185C95.1034 135.461 94.9938 135.726 94.7987 135.921C94.6037 136.116 94.3391 136.225 94.0633 136.225C93.7874 136.225 93.5229 136.116 93.3278 135.921C93.1328 135.726 93.0232 135.461 93.0232 135.185C93.0232 134.909 93.1328 134.645 93.3278 134.45C93.5229 134.255 93.7874 134.145 94.0633 134.145C94.3391 134.145 94.6037 134.255 94.7987 134.45C94.9938 134.645 95.1034 134.909 95.1034 135.185ZM108.255 135.185C108.255 135.461 108.146 135.726 107.951 135.921C107.756 136.116 107.491 136.225 107.215 136.225C106.94 136.225 106.675 136.116 106.48 135.921C106.285 135.726 106.175 135.461 106.175 135.185C106.175 134.909 106.285 134.645 106.48 134.45C106.675 134.255 106.94 134.145 107.215 134.145C107.491 134.145 107.756 134.255 107.951 134.45C108.146 134.645 108.255 134.909 108.255 135.185ZM121.407 135.185C121.407 135.461 121.298 135.726 121.103 135.921C120.908 136.116 120.643 136.225 120.367 136.225C120.092 136.225 119.827 136.116 119.632 135.921C119.437 135.726 119.327 135.461 119.327 135.185C119.327 134.909 119.437 134.645 119.632 134.45C119.827 134.255 120.092 134.145 120.367 134.145C120.643 134.145 120.908 134.255 121.103 134.45C121.298 134.645 121.407 134.909 121.407 135.185ZM134.559 135.185C134.559 135.461 134.449 135.726 134.254 135.921C134.059 136.116 133.795 136.225 133.519 136.225C133.243 136.225 132.978 136.116 132.783 135.921C132.588 135.726 132.479 135.461 132.479 135.185C132.479 134.909 132.588 134.645 132.783 134.45C132.978 134.255 133.243 134.145 133.519 134.145C133.795 134.145 134.059 134.255 134.254 134.45C134.449 134.645 134.559 134.909 134.559 135.185ZM147.711 135.185C147.711 135.461 147.601 135.726 147.406 135.921C147.211 136.116 146.947 136.225 146.671 136.225C146.395 136.225 146.13 136.116 145.935 135.921C145.74 135.726 145.631 135.461 145.631 135.185C145.631 134.909 145.74 134.645 145.935 134.45C146.13 134.255 146.395 134.145 146.671 134.145C146.947 134.145 147.211 134.255 147.406 134.45C147.601 134.645 147.711 134.909 147.711 135.185Z"
          fill="#CCF381"/>
</svg>